<mxfile host="app.diagrams.net" modified="2024-05-16T10:49:38.842Z" agent="Mozilla/5.0 (Windows NT 10.0; Win64; x64) AppleWebKit/537.36 (KHTML, like Gecko) Chrome/124.0.0.0 Safari/537.36 Edg/124.0.0.0" etag="M-kghVL5iajLuVpn-eZA" version="24.0.5" type="github">
  <diagram name="Page-1" id="bIQ4X-_3ALcCQnq8JC7t">
    <mxGraphModel dx="1476" dy="891" grid="1" gridSize="10" guides="1" tooltips="1" connect="1" arrows="1" fold="1" page="1" pageScale="1" pageWidth="1400" pageHeight="850" background="#ffffff" math="0" shadow="0">
      <root>
        <mxCell id="0" />
        <mxCell id="1" parent="0" />
        <mxCell id="GHpy8DAtyEdUzNsid3nN-2" value="" style="rounded=1;whiteSpace=wrap;html=1;strokeColor=#0070F2;strokeWidth=1;arcSize=5;fillColor=#EBF8FF;perimeterSpacing=0;" parent="1" vertex="1">
          <mxGeometry x="240" y="100" width="760" height="520" as="geometry" />
        </mxCell>
        <mxCell id="GHpy8DAtyEdUzNsid3nN-3" value="" style="shape=image;verticalLabelPosition=bottom;verticalAlign=top;imageAspect=0;aspect=fixed;image=data:image/svg+xml,PHN2ZyB4bWxucz0iaHR0cDovL3d3dy53My5vcmcvMjAwMC9zdmciIGlkPSJMYXllcl8xIiBkYXRhLW5hbWU9IkxheWVyIDEiIHZpZXdCb3g9IjAgMCAxMzAuMzk0IDEzMC4zOTQiPgogIDxkZWZzPgogICAgPGxpbmVhckdyYWRpZW50IGlkPSJsaW5lYXItZ3JhZGllbnQiIHgxPSI2NS4zMjkiIHgyPSI2NS4zMjkiIHkxPSIuOTM5IiB5Mj0iMTI5LjA2OCIgZ3JhZGllbnRVbml0cz0idXNlclNwYWNlT25Vc2UiPgogICAgICA8c3RvcCBvZmZzZXQ9IjAiIHN0b3AtY29sb3I9IiMwMGI4ZjEiLz4KICAgICAgPHN0b3Agb2Zmc2V0PSIuMDE2IiBzdG9wLWNvbG9yPSIjMDFiNmYwIi8+CiAgICAgIDxzdG9wIG9mZnNldD0iLjMwOCIgc3RvcC1jb2xvcj0iIzBkOTBkOSIvPgogICAgICA8c3RvcCBvZmZzZXQ9Ii41NzgiIHN0b3AtY29sb3I9IiMxNzc1YzgiLz4KICAgICAgPHN0b3Agb2Zmc2V0PSIuODE3IiBzdG9wLWNvbG9yPSIjMWM2NWJmIi8+CiAgICAgIDxzdG9wIG9mZnNldD0iMSIgc3RvcC1jb2xvcj0iIzFlNWZiYiIvPgogICAgPC9saW5lYXJHcmFkaWVudD4KICAgIDxzdHlsZT4KICAgICAgLmNscy0xe2ZpbGw6dXJsKCNsaW5lYXItZ3JhZGllbnQpfS5jbHMtMntmaWxsOiNmZmZ9CiAgICA8L3N0eWxlPgogIDwvZGVmcz4KICA8cmVjdCB3aWR0aD0iMTI4LjEyOCIgaGVpZ2h0PSIxMjguMTI4IiB4PSIxLjI2NCIgeT0iLjkzOSIgY2xhc3M9ImNscy0xIiByeD0iMTMuODI0Ii8+CiAgPHBhdGggZD0ibTE1Ljg3NyA2NC4yNzcgNi44NS00LjI1OGExMC44NzggMTAuODc4IDAgMCAwIDMuOTQxIDMuODQgMTAuMjUxIDEwLjI1MSAwIDAgMCA1LjEgMS4zNDcgOC4xODggOC4xODggMCAwIDAgMy41MjktLjY3MSAyLjM1NyAyLjM1NyAwIDAgMCAxLjQxLTIuMzA5IDIuMDg0IDIuMDg0IDAgMCAwLS41MDgtMS40MjEgNC41MjkgNC41MjkgMCAwIDAtMS4zOC0xLjAyNCAxMC42IDEwLjYgMCAwIDAtMi0uNzUybC0yLjM0Ni0uNjQzLTQuNC0xLjIwNmExNy4zNzQgMTcuMzc0IDAgMCAxLTQuMjI0LTEuNzYgOS44ODYgOS44ODYgMCAwIDEtMy4xNzUtMi45NTkgOC4yMjYgOC4yMjYgMCAwIDEtMS4yNTQtNC43NDQgMTAuNzI0IDEwLjcyNCAwIDAgMSAuOTU4LTQuNjU5IDkuNDQxIDkuNDQxIDAgMCAxIDIuNjgxLTMuMzgxQTEyLjA1NiAxMi4wNTYgMCAwIDEgMjUuMjIgMzcuNmExOS4xNTcgMTkuMTU3IDAgMCAxIDUuNC0uNzEzIDE5LjY5IDE5LjY5IDAgMCAxIDQuOTU0LjU3NyAxOC4wNjYgMTguMDY2IDAgMCAxIDQgMS41MjYgMTUuOTE1IDE1LjkxNSAwIDAgMSAzLjEyMSAyLjE0NyAyMS4xIDIxLjEgMCAwIDEgMi4zNjQgMi40NjNsLTYuMjg3IDUuMDk1YTkuOSA5LjkgMCAwIDAtMS42NzItMS42NDYgMTcuNjcgMTcuNjcgMCAwIDAtMi4wMzktMS4zNyAxMC4yNjggMTAuMjY4IDAgMCAwLTIuMjItLjk1MSA4LjA1NSA4LjA1NSAwIDAgMC0yLjI4Ny0uMzRxLTMuOTcgMC0zLjk3IDIuNWEyLjM5MiAyLjM5MiAwIDAgMCAuNDM4IDEuNDQ0IDQgNCAwIDAgMCAxLjIyNCAxLjA2OCA3LjgxMSA3LjgxMSAwIDAgMCAxLjkxNS43NzFsMi4zNjkuNjQ0IDQuMzc3IDEuMTkxYTE3LjcgMTcuNyAwIDAgMSA0LjM0OCAxLjgyIDEwLjQ2NiAxMC40NjYgMCAwIDEgMy4zMTQgMy4wMzQgOC4wMzggOC4wMzggMCAwIDEgMS4yOTMgNC43MiAxMC45NzUgMTAuOTc1IDAgMCAxLS43NjMgNC4wMDkgOC45MTQgOC45MTQgMCAwIDEtMi41IDMuNDgxIDEyLjkyNyAxMi45MjcgMCAwIDEtNC41MTQgMi40NDQgMjEuNTYgMjEuNTYgMCAwIDEtNi43NDguOTI0IDIxLjAyIDIxLjAyIDAgMCAxLTUuMzMtLjYyOSAxNy40NjQgMTcuNDY0IDAgMCAxLTQuMjc2LTEuNzEgMTQuNzA2IDE0LjcwNiAwIDAgMS0zLjMxNC0yLjU3NCAyMC40MzcgMjAuNDM3IDAgMCAxLTIuNTQtMy4yNDhaTTQ3LjYwNyA3MS43ODRsMTIuMTM5LTM0LjRoOC42MTFsMTIuMTQzIDM0LjRoLTkuMzYybC0yLjA3OS02LjM3NUg1OC4yNzZsLTIuMjM3IDYuMzc1Wm0xMi44MzktMTIuOTUyaDYuNTMybC0zLjE2NC05LjQ5NGgtLjA5Wk04NC42NDQgNzEuNzg0VjM3LjUxNmgxMi45YTM2Ljk0IDM2Ljk0IDAgMCAxIDUuNDA2LjQgMTIuOCAxMi44IDAgMCAxIDQuNzcxIDEuNjUgOS41NDcgOS41NDcgMCAwIDEgMy4zOTUgMy41NDkgMTIuMjczIDEyLjI3MyAwIDAgMSAxLjMwNyA2LjA5MSAxMS42NzcgMTEuNjc3IDAgMCAxLTEuMzggNi4wODEgOS45MjYgOS45MjYgMCAwIDEtMy41NDMgMy41MzMgMTMuNDYyIDEzLjQ2MiAwIDAgMS00LjgzMyAxLjY1IDM1LjA5MiAzNS4wOTIgMCAwIDEtNS4xNzUuNEg5My44djEwLjkxNFptOS4xNTYtMTcuOTdoMy45ODhhOS4zNTYgOS4zNTYgMCAwIDAgMi42NzMtLjMxNyA0LjIyNSA0LjIyNSAwIDAgMCAxLjY2Ni0uODkzIDMuMTc2IDMuMTc2IDAgMCAwIC44ODMtMS4zOSA2LjI2MSA2LjI2MSAwIDAgMCAwLTMuNTcxIDMuMTc2IDMuMTc2IDAgMCAwLS44ODMtMS4zOSA0LjMyOCA0LjMyOCAwIDAgMC0xLjY2Ni0uOTA1IDkuMTA5IDkuMTA5IDAgMCAwLTIuNjczLS4zMjdIOTMuOFpNMTcuNzQzIDExMy43ODRWNzkuNTE3aDE0LjYxNmEzOC42ODggMzguNjg4IDAgMCAxIDQuNDE3LjI1OSAxMi43ODIgMTIuNzgyIDAgMCAxIDQuMSAxLjEzNSA3LjUgNy41IDAgMCAxIDIuOTgyIDIuNTMyQTcuNjkyIDcuNjkyIDAgMCAxIDQ1IDg3LjkwN2E4LjU5MyA4LjU5MyAwIDAgMS0uNTU1IDMuMjMzIDYuOTg4IDYuOTg4IDAgMCAxLTEuNSAyLjMyNSA3LjMzMSA3LjMzMSAwIDAgMS0yLjE0NSAxLjUwOCA5Ljk4NiA5Ljk4NiAwIDAgMS0yLjU3My43ODJ2LjA5MWExNC45ODkgMTQuOTg5IDAgMCAxIDIuOTUyLjg0MiA3LjA5NCA3LjA5NCAwIDAgMSAyLjMzOCAxLjUxMiA2LjcgNi43IDAgMCAxIDEuNTM4IDIuNDM2IDEwLjEgMTAuMSAwIDAgMSAuNTU4IDMuNTc5IDguNTc2IDguNTc2IDAgMCAxLTEuMTgyIDQuNjcgOC43NDcgOC43NDcgMCAwIDEtMy4wMjcgMi45MzggMTMuMTE5IDEzLjExOSAwIDAgMS00LjEyOSAxLjUxNSAyMy40MTYgMjMuNDE2IDAgMCAxLTQuNDcuNDQ0Wk0yNi45IDkzLjE2OWg0LjM3NGE1LjM5MSA1LjM5MSAwIDAgMCAzLjU0LS45MDcgMy4zMyAzLjMzIDAgMCAwIC4wMjMtNC44MDkgNS4zMDggNS4zMDggMCAwIDAtMy40NzMtLjg4NEgyNi45Wm0wIDEzLjU2M2g0LjYyYTUuOTUgNS45NSAwIDAgMCAzLjc3OC0uOTU3IDMuMyAzLjMgMCAwIDAgMS4xNjEtMi42OTMgMy4wNTcgMy4wNTcgMCAwIDAtMS4yMDctMi42MjYgNi41NDMgNi41NDMgMCAwIDAtMy44NDUtLjg4OUgyNi45Wk00OS4xMjEgODcuMnYtNy42ODNINzguMVY4Ny4yaC05Ljg1NnYyNi41ODNoLTkuMjY3Vjg3LjJaTTg0LjM5NCAxMTMuNzg0Vjc5LjUxN0g5Ny4zYTM3LjA3OCAzNy4wNzggMCAwIDEgNS40MDYuNCAxMi44MTMgMTIuODEzIDAgMCAxIDQuNzcxIDEuNjUgOS41NTUgOS41NTUgMCAwIDEgMy40IDMuNTQ5IDEyLjI3NiAxMi4yNzYgMCAwIDEgMS4zMDcgNi4wOTEgMTEuNjc0IDExLjY3NCAwIDAgMS0xLjM4IDYuMDgxIDkuOTEgOS45MSAwIDAgMS0zLjU0NSAzLjUzNyAxMy40ODIgMTMuNDgyIDAgMCAxLTQuODMzIDEuNjUxIDM1LjIyNSAzNS4yMjUgMCAwIDEtNS4xNzUuMzk1aC0zLjcwM3YxMC45MThabTkuMTU0LTE3Ljk3aDMuOTg4YTkuMzU2IDkuMzU2IDAgMCAwIDIuNjczLS4zMTcgNC4yMzcgNC4yMzcgMCAwIDAgMS42NjYtLjg5MiAzLjE4NSAzLjE4NSAwIDAgMCAuODgzLTEuMzkxIDYuMjM4IDYuMjM4IDAgMCAwIDAtMy41NzEgMy4xODIgMy4xODIgMCAwIDAtLjg4My0xLjM5IDQuMzI3IDQuMzI3IDAgMCAwLTEuNjY2LS45IDkuMDcyIDkuMDcyIDAgMCAwLTIuNjczLS4zMjhoLTMuOTg4Wk0xOC4wNzcgMjguODM0VjE2LjI2OWg0LjU2NmExMS4xNjMgMTEuMTYzIDAgMCAxIDEuOTIzLjE2MiA0LjQ2NCA0LjQ2NCAwIDAgMSAxLjY0MS42MTMgMy4yNzIgMy4yNzIgMCAwIDEgMS4xMzUgMS4yMzEgNC4yMjUgNC4yMjUgMCAwIDEgLjQyMyAyLjAyMyA0LjE1NCA0LjE1NCAwIDAgMS0uNDQ3IDIuMDU5IDMuMzI4IDMuMzI4IDAgMCAxLTEuMTkgMS4yMzkgNC43OTIgNC43OTIgMCAwIDEtMS42NjYuNjA5IDEwLjc1MSAxMC43NTEgMCAwIDEtMS44Ni4xNjJIMjAuODJ2NC40NjdabTIuNzQzLTYuNmgxLjg4OWEyLjc1MSAyLjc1MSAwIDAgMCAxLjgyLS40NzMgMS43NjIgMS43NjIgMCAwIDAgLjUzNS0xLjM5MyAxLjczOSAxLjczOSAwIDAgMC0uNTI2LTEuMzU1IDIuNzM3IDIuNzM3IDAgMCAwLTEuODI5LS40NzZIMjAuODJaTTM0Ljk3OCAyOS4wNzRhNi4yNSA2LjI1IDAgMCAxLTIuMjA5LS40IDUuMzc1IDUuMzc1IDAgMCAxLTEuODk0LTEuMjA3IDUuOTcgNS45NyAwIDAgMS0xLjMyMi0yLjAyNiA3LjU5MSA3LjU5MSAwIDAgMS0uNS0yLjg4OCA3LjU4NSA3LjU4NSAwIDAgMSAuNS0yLjg3MiA2LjAyIDYuMDIgMCAwIDEgMS4zMjItMi4wMzkgNS4yOSA1LjI5IDAgMCAxIDEuODk0LTEuMjA2IDYuMzE1IDYuMzE1IDAgMCAxIDIuMjA5LS40IDYuMjA3IDYuMjA3IDAgMCAxIDIuMi40IDUuMzU1IDUuMzU1IDAgMCAxIDEuODg2IDEuMjA2IDUuOTE4IDUuOTE4IDAgMCAxIDEuMzIyIDIuMDM5IDcuNjQ2IDcuNjQ2IDAgMCAxIC41IDIuODcyIDcuNjUyIDcuNjUyIDAgMCAxLS41IDIuODg4IDUuODY5IDUuODY5IDAgMCAxLTEuMzIyIDIuMDI2IDUuNDQzIDUuNDQzIDAgMCAxLTEuODg2IDEuMjA3IDYuMTQ0IDYuMTQ0IDAgMCAxLTIuMi40Wm0wLTIuMjI5YTIuODc4IDIuODc4IDAgMCAwIDEuMzEzLS4yOTQgMi43NDQgMi43NDQgMCAwIDAgLjk5Mi0uODU0IDQuMjY5IDQuMjY5IDAgMCAwIC42My0xLjM1OSA2LjY3NCA2LjY3NCAwIDAgMCAuMjIzLTEuNzg2IDUuMDQxIDUuMDQxIDAgMCAwLS44NDktMy4xIDIuOTQyIDIuOTQyIDAgMCAwLTQuNjI1IDAgNS4wNzQgNS4wNzQgMCAwIDAtLjg0MSAzLjEgNi43NjIgNi43NjIgMCAwIDAgLjIxOSAxLjc4NiA0LjE4IDQuMTggMCAwIDAgLjYyNSAxLjM1OSAyLjcyNCAyLjcyNCAwIDAgMCAxIC44NTQgMi45IDIuOSAwIDAgMCAxLjMxMy4yOTRaTTQ1LjA4OCAyOC44MzRsLTMuMzM5LTEyLjU2NWgyLjc4NUw0NS44NiAyMnEuMTgxLjcuMzI3IDEuMzE0Yy4xLjQxMi4xODguODg4LjI3NyAxLjQzaC4wMzZxLjEyNS0uNzguMjY5LTEuNDEzdC4zMTEtMS4zMTRsMS4yNzYtNS43NDRINTAuOWwxLjM1OSA1Ljc3N2MuMDU1LjI0OS4xMTEuNDc4LjE2NS42ODhzLjEwNy40MTYuMTU0LjYxOC4wOTIuNDEzLjEzNi42MzQuMDg5LjQ3Mi4xMzMuNzU0aC4wMzNsLjEzMy0uNzU0YTEyLjYyOCAxMi42MjggMCAwIDEgLjI3LTEuMjE5Yy4wNTMtLjE5OS4xMDYtLjQyOC4xNjEtLjY4OGwxLjI3Ni01LjgxaDIuNTQ1TDUzLjk5IDI4LjgzNGgtMi4zNjNsLTEuOTg4LTguNzQ0aC0uMDMzbC0yLjEyMiA4Ljc0NFpNNTkuMjE5IDI4LjgzNFYxNi4yNjloOC41NTR2Mi4zMTNoLTUuNzk0djIuN2g0LjE5NHYyLjE4OGgtNC4xOTR2My4xM2g2LjF2Mi4yMzhaTTcwLjI2NyAyOC44MzRWMTYuMjY5aDQuNzE1YTkuMDU1IDkuMDU1IDAgMCAxIDIuMDY5LjIxNiA0LjE5NCA0LjE5NCAwIDAgMSAxLjU1My42ODggMy4wNzQgMy4wNzQgMCAwIDEgLjk3OCAxLjIxNCA0LjIxNCA0LjIxNCAwIDAgMSAuMzQgMS43NjkgMy42ODQgMy42ODQgMCAwIDEtLjY3MSAyLjM0NiAzLjg2NSAzLjg2NSAwIDAgMS0xLjk0IDEuMjQzbDIuNzg5IDUuMDg5aC0yLjkxM0w3NC41NzYgMjQuMWgtMS42djQuNzMyWm0yLjcxLTYuODcxaDEuODg5YTMuMjQ1IDMuMjQ1IDAgMCAwIDEuNzc4LS4zODUgMS41IDEuNSAwIDAgMCAuNTc3LTEuMzQ3IDEuNDYzIDEuNDYzIDAgMCAwLS41NzctMS4zMTggMy4yNzYgMy4yNzYgMCAwIDAtMS43NzgtLjM4MWgtMS44ODlaTTgyLjY3MyAyOC44MzRWMTYuMjY5aDIuNzUxdjEyLjU2NVpNODguNDQ4IDI4LjgzNFYxNi4yNjloMi43Nmw1LjI2MyA4LjAxNWguMDI5di04LjAxNWgyLjU1M3YxMi41NjVIOTYuNWwtNS40NzktOC4wODFoLS4wMzN2OC4wODFaTTEwNi44NDcgMjkuMDc0YTUuNjcgNS42NyAwIDAgMS0yLjQ2Ni0uNDkzIDQuNjU2IDQuNjU2IDAgMCAxLTEuNzExLTEuMzc1IDUuODkxIDUuODkxIDAgMCAxLTEtMi4wODEgMTAuMDI1IDEwLjAyNSAwIDAgMS0uMzIzLTIuNjIzIDguNDg4IDguNDg4IDAgMCAxIC40LTIuNjczIDUuODU5IDUuODU5IDAgMCAxIDEuMTM2LTIuMDM5IDQuOTcxIDQuOTcxIDAgMCAxIDEuOC0xLjMgNS45ODYgNS45ODYgMCAwIDEgMi4zODYtLjQ1NiA3LjA1IDcuMDUgMCAwIDEgMS42ODMuMiA0LjE4IDQuMTggMCAwIDEgMS40NS42NjMgNC40MzEgNC40MzEgMCAwIDEgMS4xNDkgMS4yMzkgNi42ODUgNi42ODUgMCAwIDEgLjc5MSAxLjkyM2wtMi41MjkuN2EzLjk4OSAzLjk4OSAwIDAgMC0xLjAwNi0xLjg3NyAyLjI0NSAyLjI0NSAwIDAgMC0xLjU1NC0uNTUxIDMuMjM4IDMuMjM4IDAgMCAwLS44OTEuMTQ1IDIuMiAyLjIgMCAwIDAtLjk0OS42IDMuNjQ0IDMuNjQ0IDAgMCAwLS43NjMgMS4yNTUgNS45NTkgNS45NTkgMCAwIDAtLjMxNCAyLjEzIDYuOTI0IDYuOTI0IDAgMCAwIC4yODUgMi4xNzIgMy44MDggMy44MDggMCAwIDAgLjczIDEuMzM4IDIuNDMyIDIuNDMyIDAgMCAwIC45NzguNjg4IDMuMDI0IDMuMDI0IDAgMCAwIDEuMDQuMiAyLjQ5MyAyLjQ5MyAwIDAgMCAxLjcxNi0uNiAyLjc5MSAyLjc5MSAwIDAgMCAuODctMS42NTNoLTIuMTk1di0yLjA3MWg0LjgxNXY2LjNoLTIuMjIxVjI3LjFoLS4wMzNhMi42IDIuNiAwIDAgMS0uMzYuNjMgMy4wMzIgMy4wMzIgMCAwIDEtLjY2OC42MzggMy45NzkgMy45NzkgMCAwIDEtLjk3NC41IDMuNyAzLjcgMCAwIDEtMS4yNzIuMjA2WiIgY2xhc3M9ImNscy0yIi8+Cjwvc3ZnPg==;" parent="1" vertex="1">
          <mxGeometry x="950" y="110" width="35" height="35" as="geometry" />
        </mxCell>
        <mxCell id="GHpy8DAtyEdUzNsid3nN-4" value="SAP Business Technology Platform" style="text;html=1;strokeColor=none;fillColor=none;align=center;verticalAlign=middle;whiteSpace=wrap;rounded=0;fontStyle=1;fontSize=18;fontColor=#333333;" parent="1" vertex="1">
          <mxGeometry x="250" y="110" width="320" height="30" as="geometry" />
        </mxCell>
        <mxCell id="GHpy8DAtyEdUzNsid3nN-6" value="" style="rounded=1;whiteSpace=wrap;html=1;strokeColor=#0070F2;strokeWidth=1;arcSize=5;fillColor=#FFFFFF;perimeterSpacing=0;" parent="1" vertex="1">
          <mxGeometry x="280" y="160" width="670" height="320" as="geometry" />
        </mxCell>
        <mxCell id="GHpy8DAtyEdUzNsid3nN-7" value="Subaccount" style="text;html=1;strokeColor=none;fillColor=none;align=left;verticalAlign=middle;whiteSpace=wrap;rounded=0;fontStyle=1;fontSize=15;fontColor=#333333;" parent="1" vertex="1">
          <mxGeometry x="300" y="170" width="100" height="30" as="geometry" />
        </mxCell>
        <mxCell id="GHpy8DAtyEdUzNsid3nN-8" value="" style="shape=image;verticalLabelPosition=bottom;verticalAlign=top;imageAspect=0;aspect=fixed;image=data:image/svg+xml,PHN2ZyB3aWR0aD0iNDkiIGhlaWdodD0iNDkiIHZpZXdCb3g9IjAgMCA0OSA0OSIgZmlsbD0ibm9uZSIgeG1sbnM9Imh0dHA6Ly93d3cudzMub3JnLzIwMDAvc3ZnIj4KPGcgY2xpcC1wYXRoPSJ1cmwoI2NsaXAwXzI2MjJfMzIxMCkiPgo8cGF0aCBmaWxsLXJ1bGU9ImV2ZW5vZGQiIGNsaXAtcnVsZT0iZXZlbm9kZCIgZD0iTTEwLjk5OSAxNi41MzVINC45OTkwNUM0LjYwMTIzIDE2LjUzNSA0LjIxOTcgMTYuMzc2OSAzLjkzODM5IDE2LjA5NTZDMy42NTcwOSAxNS44MTQzIDMuNDk5MDUgMTUuNDMyOCAzLjQ5OTA1IDE1LjAzNUMzLjQ5OTA1IDE0LjYzNzEgMy42NTcwOSAxNC4yNTU2IDMuOTM4MzkgMTMuOTc0M0M0LjIxOTcgMTMuNjkzIDQuNjAxMjMgMTMuNTM1IDQuOTk5MDUgMTMuNTM1SDEwLjk5OUMxMS4zOTY5IDEzLjUzNSAxMS43Nzg0IDEzLjY5MyAxMi4wNTk3IDEzLjk3NDNDMTIuMzQxIDE0LjI1NTYgMTIuNDk5IDE0LjYzNzEgMTIuNDk5IDE1LjAzNUMxMi40OTkgMTUuNDMyOCAxMi4zNDEgMTUuODE0MyAxMi4wNTk3IDE2LjA5NTZDMTEuNzc4NCAxNi4zNzY5IDExLjM5NjkgMTYuNTM1IDEwLjk5OSAxNi41MzVaTTcuOTk5MTQgMjUuNTM1SDEuOTk5MTRDMS42MDEzMiAyNS41MzUgMS4yMTk3OSAyNS4zNzY5IDAuOTM4NDg1IDI1LjA5NTZDMC42NTcxODEgMjQuODE0MyAwLjQ5OTE0NiAyNC40MzI4IDAuNDk5MTQ2IDI0LjAzNUMwLjQ5OTE0NiAyMy42MzcxIDAuNjU3MTgxIDIzLjI1NTYgMC45Mzg0ODUgMjIuOTc0M0MxLjIxOTc5IDIyLjY5MyAxLjYwMTMyIDIyLjUzNSAxLjk5OTE0IDIyLjUzNUg3Ljk5OTE0QzguMzk2OTcgMjIuNTM1IDguNzc4NSAyMi42OTMgOS4wNTk4IDIyLjk3NDNDOS4zNDExMSAyMy4yNTU2IDkuNDk5MTQgMjMuNjM3MSA5LjQ5OTE0IDI0LjAzNUM5LjQ5OTE0IDI0LjQzMjggOS4zNDExMSAyNC44MTQzIDkuMDU5OCAyNS4wOTU2QzguNzc4NSAyNS4zNzY5IDguMzk2OTcgMjUuNTM1IDcuOTk5MTQgMjUuNTM1Wk03Ljk0ODA2IDM0LjUzNUgxMC45OTkxQzExLjM5NjkgMzQuNTM1IDExLjc3ODQgMzQuMzc2OSAxMi4wNTk3IDM0LjA5NTZDMTIuMzQxIDMzLjgxNDMgMTIuNDk5MSAzMy40MzI4IDEyLjQ5OTEgMzMuMDM1QzEyLjQ5OTEgMzIuNjM3MSAxMi4zNDEgMzIuMjU1NiAxMi4wNTk3IDMxLjk3NDNDMTEuNzc4NCAzMS42OTMgMTEuMzk2OSAzMS41MzUgMTAuOTk5MSAzMS41MzVINy45NDgwNkM3LjU1MDIzIDMxLjUzNSA3LjE2ODcgMzEuNjkzIDYuODg3NCAzMS45NzQzQzYuNjA2MDkgMzIuMjU1NiA2LjQ0ODA2IDMyLjYzNzEgNi40NDgwNiAzMy4wMzVDNi40NDgwNiAzMy40MzI4IDYuNjA2MDkgMzMuODE0MyA2Ljg4NzQgMzQuMDk1NkM3LjE2ODcgMzQuMzc2OSA3LjU1MDIzIDM0LjUzNSA3Ljk0ODA2IDM0LjUzNVoiIGZpbGw9InVybCgjcGFpbnQwX3JhZGlhbF8yNjIyXzMyMTApIi8+CjxwYXRoIGZpbGwtcnVsZT0iZXZlbm9kZCIgY2xpcC1ydWxlPSJldmVub2RkIiBkPSJNMTQuNzUyMSAxOS41MzUySDE2LjcyMDFMMTcuNTY2MSAxNy41MDcyTDE2LjE1OTEgMTYuMTAwMkMxNS43NDg1IDE1LjY2MjMgMTUuNTIxOSAxNS4wODM0IDE1LjUyNjEgMTQuNDgzMkMxNS41MiAxNC4xOTU2IDE1LjU3MyAxMy45MDk4IDE1LjY4MTkgMTMuNjQzNUMxNS43OTA4IDEzLjM3NzIgMTUuOTUzMiAxMy4xMzYxIDE2LjE1OTEgMTIuOTM1MkwxOS4zODExIDkuNjkyMkMxOS41ODIgOS40ODYyOSAxOS44MjMxIDkuMzIzODQgMjAuMDg5NCA5LjIxNDk2QzIwLjM1NTcgOS4xMDYwNyAyMC42NDE1IDkuMDUzMDUgMjAuOTI5MSA5LjA1OTJDMjEuMjI3NiA5LjA0ODkgMjEuNTI1IDkuMDk5NzMgMjEuODAzMSA5LjIwODU5QzIyLjA4MTEgOS4zMTc0NSAyMi4zMzQgOS40ODIwMiAyMi41NDYxIDkuNjkyMkwyMy45NTAxIDExLjA5OTJMMjUuOTkwMSAxMC4yNTMyVjguMjg1MkMyNS45NzgzIDcuOTg2NTYgMjYuMDI4NCA3LjY4ODcxIDI2LjEzNzMgNy40MTAzN0MyNi4yNDYyIDcuMTMyMDQgMjYuNDExNSA2Ljg3OTI1IDI2LjYyMjggNi42Njc5MkMyNi44MzQyIDYuNDU2NTggMjcuMDg3IDYuMjkxMjcgMjcuMzY1MyA2LjE4MjM4QzI3LjY0MzYgNi4wNzM0OSAyNy45NDE1IDYuMDIzMzggMjguMjQwMSA2LjAzNTJIMzIuNzQwMUMzMy4wMzg4IDYuMDIzMzggMzMuMzM2NiA2LjA3MzQ5IDMzLjYxNSA2LjE4MjM4QzMzLjg5MzMgNi4yOTEyNyAzNC4xNDYxIDYuNDU2NTggMzQuMzU3NCA2LjY2NzkyQzM0LjU2ODggNi44NzkyNSAzNC43MzQxIDcuMTMyMDQgMzQuODQzIDcuNDEwMzdDMzQuOTUxOCA3LjY4ODcxIDM1LjAwMiA3Ljk4NjU2IDM0Ljk5MDEgOC4yODUyVjEwLjI1MzJMMzcuMDMwMSAxMS4wOTkyTDM4LjQzNzEgOS42OTIyQzM4LjY0ODggOS40ODE0NCAzOC45MDE2IDkuMzE2NDggMzkuMTc5OCA5LjIwNzU5QzM5LjQ1OCA5LjA5ODY5IDM5Ljc1NTYgOS4wNDgxOCA0MC4wNTQxIDkuMDU5MkM0MC4zNDEyIDkuMDUzNDcgNDAuNjI2NSA5LjEwNjY4IDQwLjg5MjIgOS4yMTU1NkM0MS4xNTggOS4zMjQ0MyA0MS4zOTg2IDkuNDg2NjYgNDEuNTk5MSA5LjY5MjJMNDQuODYwMSAxMi45MjYyQzQ1LjA2NiAxMy4xMjcxIDQ1LjIyODUgMTMuMzY4MiA0NS4zMzc0IDEzLjYzNDVDNDUuNDQ2MyAxMy45MDA4IDQ1LjQ5OTMgMTQuMTg2NiA0NS40OTMxIDE0LjQ3NDJDNDUuNDk3MyAxNS4wNzQ0IDQ1LjI3MDcgMTUuNjUzMyA0NC44NjAxIDE2LjA5MTJMNDMuNDU2MSAxNy40OTgyTDQ0LjI5OTEgMTkuNTM1Mkg0Ni4yNDkxQzQ2LjU0NzggMTkuNTIzNCA0Ni44NDU2IDE5LjU3MzUgNDcuMTI0IDE5LjY4MjRDNDcuNDAyMyAxOS43OTEzIDQ3LjY1NTEgMTkuOTU2NiA0Ny44NjY0IDIwLjE2NzlDNDguMDc3NyAyMC4zNzkzIDQ4LjI0MzEgMjAuNjMyIDQ4LjM1MTkgMjAuOTEwNEM0OC40NjA4IDIxLjE4ODcgNDguNTEwOSAyMS40ODY2IDQ4LjQ5OTEgMjEuNzg1MlYyNi4yODUyQzQ4LjUwNTYgMjYuNTc2NyA0OC40NTQ3IDI2Ljg2NjYgNDguMzQ5MiAyNy4xMzg0QzQ4LjI0MzYgMjcuNDEwMiA0OC4wODU2IDI3LjY1ODUgNDcuODg0MSAyNy44NjkyQzQ3LjY3NyAyOC4wODgyIDQ3LjQyNTcgMjguMjYwNyA0Ny4xNDcgMjguMzc1NUM0Ni44NjgzIDI4LjQ5MDMgNDYuNTY4NCAyOC41NDQ4IDQ2LjI2NzEgMjguNTM1Mkg0NC4yOTkxTDQzLjQ0MTEgMzAuNTYzMkw0NC44NDUxIDMxLjk3MDJDNDUuMjUxNCAzMi4zOTY5IDQ1LjQ3OCAzMi45NjM1IDQ1LjQ3OCAzMy41NTI3QzQ1LjQ3OCAzNC4xNDE5IDQ1LjI1MTQgMzQuNzA4NSA0NC44NDUxIDM1LjEzNTJMNDEuNjExMSAzOC4zOTMyQzQxLjQxMDYgMzguNTk4OCA0MS4xNyAzOC43NjEgNDAuOTA0MiAzOC44Njk5QzQwLjYzODUgMzguOTc4NyA0MC4zNTMyIDM5LjAzMTkgNDAuMDY2MSAzOS4wMjYyQzM5Ljc2NzYgMzkuMDM3MiAzOS40NyAzOC45ODY3IDM5LjE5MTggMzguODc3OEMzOC45MTM2IDM4Ljc2ODkgMzguNjYwOCAzOC42MDQgMzguNDQ5MSAzOC4zOTMyTDM3LjA0MjEgMzYuOTE3MkwzNS4wMDIxIDM3LjgxNzJWMzkuNzg4MkMzNS4wMDU5IDQwLjA4MDQgMzQuOTUxOSA0MC4zNzA1IDM0Ljg0MzMgNDAuNjQxOEMzNC43MzQ2IDQwLjkxMzEgMzQuNTczNSA0MS4xNjAzIDM0LjM2OTEgNDEuMzY5MkMzNC4xNjIgNDEuNTg4MiAzMy45MTA3IDQxLjc2MDcgMzMuNjMyIDQxLjg3NTVDMzMuMzUzMyA0MS45OTAzIDMzLjA1MzQgNDIuMDQ0OCAzMi43NTIxIDQyLjAzNTJIMjguMjUyMUMyNy45NTA5IDQyLjA0MjYgMjcuNjUxNiA0MS45ODU5IDI3LjM3MzkgNDEuODY5MUMyNy4wOTYyIDQxLjc1MjIgMjYuODQ2NCA0MS41Nzc3IDI2LjY0MTEgNDEuMzU3MkMyNi40MzY3IDQxLjE0ODMgMjYuMjc1NiA0MC45MDExIDI2LjE2NyA0MC42Mjk4QzI2LjA1ODQgNDAuMzU4NSAyNi4wMDQ0IDQwLjA2ODQgMjYuMDA4MSAzOS43NzYyVjM3LjgwNTJMMjMuOTY4MSAzNi45MDUyTDIyLjU2NDEgMzguMzgxMkMyMi4zNTIgMzguNTkxNCAyMi4wOTkxIDM4Ljc1NiAyMS44MjExIDM4Ljg2NDhDMjEuNTQzIDM4Ljk3MzcgMjEuMjQ1NiAzOS4wMjQ1IDIwLjk0NzEgMzkuMDE0MkMyMC42NTk1IDM5LjAyMDQgMjAuMzczNyAzOC45NjczIDIwLjEwNzQgMzguODU4NUMxOS44NDExIDM4Ljc0OTYgMTkuNiAzOC41ODcxIDE5LjM5OTEgMzguMzgxMkwxNi4xNTYxIDM1LjE0NzJDMTUuNzQ5OSAzNC43MjA1IDE1LjUyMzMgMzQuMTUzOSAxNS41MjMzIDMzLjU2NDdDMTUuNTIzMyAzMi45NzU1IDE1Ljc0OTkgMzIuNDA4OSAxNi4xNTYxIDMxLjk4MjJMMTcuNTYzMSAzMC41NzUyTDE2LjcxNzEgMjguNTM1MkgxNC43NDkxQzE0LjQ0NzggMjguNTQ0OSAxNC4xNDc5IDI4LjQ5MDYgMTMuODY5MSAyOC4zNzU4QzEzLjU5MDQgMjguMjYxIDEzLjMzOTIgMjguMDg4MyAxMy4xMzIxIDI3Ljg2OTJDMTIuOTI3NCAyNy42NiAxMi43NjYxIDI3LjQxMjMgMTIuNjU3NCAyNy4xNDA0QzEyLjU0ODggMjYuODY4NiAxMi40OTUgMjYuNTc3OSAxMi40OTkxIDI2LjI4NTJWMjEuNzg1MkMxMi40ODczIDIxLjQ4NjMgMTIuNTM3NSAyMS4xODgyIDEyLjY0NjUgMjAuOTA5NkMxMi43NTU2IDIwLjYzMTEgMTIuOTIxMiAyMC4zNzgyIDEzLjEzMjkgMjAuMTY2OEMxMy4zNDQ1IDE5Ljk1NTQgMTMuNTk3NyAxOS43OTAxIDEzLjg3NjQgMTkuNjgxNEMxNC4xNTUxIDE5LjU3MjcgMTQuNDUzMiAxOS41MjMgMTQuNzUyMSAxOS41MzUyWk0yNi4xNTUxIDI5Ljc4NjRDMjYuMzM1MyAyOS45NDg3IDI2LjU2OTcgMzAuMDM3NSAyNi44MTIxIDMwLjAzNTRDMjYuOTg2NyAzMC4wMzMxIDI3LjE1ODMgMjkuOTkgMjcuMzEzMSAyOS45MDk0TDM3LjM3NTEgMjUuMDM0NEMzNy41MjU4IDI0Ljk1MTIgMzcuNjUxNSAyNC44MjkxIDM3LjczOSAyNC42ODA4QzM3LjgyNjUgMjQuNTMyNSAzNy44NzI2IDI0LjM2MzUgMzcuODcyNiAyNC4xOTE0QzM3Ljg3MjYgMjQuMDE5MiAzNy44MjY1IDIzLjg1MDIgMzcuNzM5IDIzLjcwMkMzNy42NTE1IDIzLjU1MzcgMzcuNTI1OCAyMy40MzE2IDM3LjM3NTEgMjMuMzQ4NEwyNy4zMTMxIDE4LjE2MTRDMjcuMTU4MyAxOC4wODA4IDI2Ljk4NjcgMTguMDM3NiAyNi44MTIxIDE4LjAzNTRDMjYuNjg5MiAxOC4wMzUgMjYuNTY3NCAxOC4wNTk4IDI2LjQ1NDQgMTguMTA4M0MyNi4zNDE0IDE4LjE1NjggMjYuMjM5NiAxOC4yMjggMjYuMTU1MSAxOC4zMTc0QzI2LjA2MTkgMTguNDExNSAyNS45ODg4IDE4LjUyMzYgMjUuOTQwMyAxOC42NDY4QzI1Ljg5MTggMTguNzcwMSAyNS44NjkgMTguOTAyIDI1Ljg3MzEgMTkuMDM0NFYyOS4wOTk0QzI1Ljg2NzIgMjkuMjI3NSAyNS44ODkzIDI5LjM1NTQgMjUuOTM4IDI5LjQ3NDFDMjUuOTg2NyAyOS41OTI4IDI2LjA2MDggMjkuNjk5NCAyNi4xNTUxIDI5Ljc4NjRaIiBmaWxsPSJ1cmwoI3BhaW50MV9yYWRpYWxfMjYyMl8zMjEwKSIvPgo8L2c+CjxkZWZzPgo8cmFkaWFsR3JhZGllbnQgaWQ9InBhaW50MF9yYWRpYWxfMjYyMl8zMjEwIiBjeD0iMCIgY3k9IjAiIHI9IjEiIGdyYWRpZW50VW5pdHM9InVzZXJTcGFjZU9uVXNlIiBncmFkaWVudFRyYW5zZm9ybT0idHJhbnNsYXRlKDIuMzU3MzIgMTYuNjk0MSkgcm90YXRlKDYwLjI1NTEpIHNjYWxlKDE2Ljg0NzkgMTMuMjI3KSI+CjxzdG9wIHN0b3AtY29sb3I9IiMxMzQ4RkYiLz4KPHN0b3Agb2Zmc2V0PSIxIiBzdG9wLWNvbG9yPSIjMDYyMzhEIi8+CjwvcmFkaWFsR3JhZGllbnQ+CjxyYWRpYWxHcmFkaWVudCBpZD0icGFpbnQxX3JhZGlhbF8yNjIyXzMyMTAiIGN4PSIwIiBjeT0iMCIgcj0iMSIgZ3JhZGllbnRVbml0cz0idXNlclNwYWNlT25Vc2UiIGdyYWRpZW50VHJhbnNmb3JtPSJ0cmFuc2xhdGUoMTguMDgwNiAxMS4zMTk4KSByb3RhdGUoNDUuMzE3Nikgc2NhbGUoMzUuNDQ4OCA2Ni45Nzc4KSI+CjxzdG9wIHN0b3AtY29sb3I9IiMwMTk1RkYiLz4KPHN0b3Agb2Zmc2V0PSIxIiBzdG9wLWNvbG9yPSIjMTE0N0U5Ii8+CjwvcmFkaWFsR3JhZGllbnQ+CjxjbGlwUGF0aCBpZD0iY2xpcDBfMjYyMl8zMjEwIj4KPHJlY3Qgd2lkdGg9IjQ4IiBoZWlnaHQ9IjQ4IiBmaWxsPSJ3aGl0ZSIgdHJhbnNmb3JtPSJ0cmFuc2xhdGUoMC41IDAuMDM0OTEyMSkiLz4KPC9jbGlwUGF0aD4KPC9kZWZzPgo8L3N2Zz4K;" parent="1" vertex="1">
          <mxGeometry x="897" y="160.5" width="49" height="49" as="geometry" />
        </mxCell>
        <mxCell id="GHpy8DAtyEdUzNsid3nN-9" value="Cloud Foundry Runtime" style="text;html=1;strokeColor=none;fillColor=none;align=left;verticalAlign=middle;whiteSpace=wrap;rounded=0;fontStyle=1;fontSize=12;fontColor=#808080;" parent="1" vertex="1">
          <mxGeometry x="300" y="190" width="190" height="30" as="geometry" />
        </mxCell>
        <mxCell id="GHpy8DAtyEdUzNsid3nN-14" value="&lt;b&gt;&lt;font color=&quot;#333333&quot;&gt;Applications Clients&lt;/font&gt;&lt;/b&gt;" style="rounded=1;whiteSpace=wrap;html=1;labelPosition=center;verticalLabelPosition=top;align=center;verticalAlign=bottom;dashed=1;" parent="1" vertex="1">
          <mxGeometry x="40" y="180" width="150" height="340" as="geometry" />
        </mxCell>
        <mxCell id="GHpy8DAtyEdUzNsid3nN-15" value="End User" style="shape=image;verticalLabelPosition=top;verticalAlign=bottom;imageAspect=0;aspect=fixed;image=data:image/svg+xml,PHN2ZyB4bWxucz0iaHR0cDovL3d3dy53My5vcmcvMjAwMC9zdmciIHZlcnNpb249IjEuMSIgeG1sbnM6eGxpbms9Imh0dHA6Ly93d3cudzMub3JnLzE5OTkveGxpbmsiIHZpZXdCb3g9IjAgMCA1MTAgNTEwIiBwcmVzZXJ2ZUFzcGVjdFJhdGlvPSJ4TWlkWU1pZCI+CiAgICAgICAgICAgICAgICAgICAgPGRlZnM+PHN0eWxlPi5jbHMtMXtmaWxsOiM1OTU5NTk7fTwvc3R5bGU+PC9kZWZzPgogICAgICAgICAgICAgICAgICAgIDx0aXRsZT51c2VyPC90aXRsZT4KICAgICAgICAgICAgICAgICAgICA8ZyBpZD0iTGF5ZXJfMiIgZGF0YS1uYW1lPSJMYXllciAyIj48ZyBpZD0idXNlciI+CiAgICAgICAgICAgICAgICAgICAgPHBhdGggY2xhc3M9ImNscy0xIiBkPSJNNjQgNTEyVjM4NHEwLTI2IDEwLTQ5LjV0MjcuNS00MVQxNDIgMjY2dDUwLTEwaDY0cS0yNyAwLTUwLTEwdC00MC41LTI3LjVUMTM4IDE3OHQtMTAtNTBxMC0yNiAxMC00OS41dDI3LjUtNDFUMjA2IDEwdDUwLTEwcTI2IDAgNDkuNSAxMHQ0MSAyNy41IDI3LjUgNDEgMTAgNDkuNXEwIDI3LTEwIDUwdC0yNy41IDQwLjUtNDEgMjcuNS00OS41IDEwaDY0cTI2IDAgNDkuNSAxMHQ0MSAyNy41IDI3LjUgNDEgMTAgNDkuNXYxMjhINjR6bTMyLTEyOHY5NmgzMjB2LTk2cTAtNDAtMjgtNjh0LTY4LTI4SDE5MnEtNDAgMC02OCAyOHQtMjggNjh6bTY0LTI1NnEwIDQwIDI4IDY4dDY4IDI4IDY4LTI4IDI4LTY4LTI4LTY4LTY4LTI4LTY4IDI4LTI4IDY4eiI+PC9wYXRoPgogICAgICAgICAgICAgICAgICAgIDwvZz48L2c+CiAgICAgICAgICAgICAgICAgICAgPC9zdmc+;fontStyle=1;labelPosition=center;align=center;fontColor=#333333;" parent="1" vertex="1">
          <mxGeometry x="85" y="60" width="60" height="60" as="geometry" />
        </mxCell>
        <mxCell id="GHpy8DAtyEdUzNsid3nN-17" value="Smartphone" style="shape=image;verticalLabelPosition=bottom;verticalAlign=top;imageAspect=0;aspect=fixed;image=data:image/svg+xml,PHN2ZyB4bWxucz0iaHR0cDovL3d3dy53My5vcmcvMjAwMC9zdmciIHZlcnNpb249IjEuMSIgeG1sbnM6eGxpbms9Imh0dHA6Ly93d3cudzMub3JnLzE5OTkveGxpbmsiIHZpZXdCb3g9IjAgMCA1MTAgNTEwIiBwcmVzZXJ2ZUFzcGVjdFJhdGlvPSJ4TWlkWU1pZCI+CiAgICAgICAgICAgICAgICAgICAgPGRlZnM+PHN0eWxlPi5jbHMtMXtmaWxsOiM1OTU5NTk7fTwvc3R5bGU+PC9kZWZzPgogICAgICAgICAgICAgICAgICAgIDx0aXRsZT5pcGhvbmU8L3RpdGxlPgogICAgICAgICAgICAgICAgICAgIDxnIGlkPSJMYXllcl8yIiBkYXRhLW5hbWU9IkxheWVyIDIiPjxnIGlkPSJpcGhvbmUiPgogICAgICAgICAgICAgICAgICAgIDxwYXRoIGNsYXNzPSJjbHMtMSIgZD0iTTM2MC45MTcgMXEzMiAwIDU0IDIydDIwIDU0djM1OHEwIDMyLTIyIDU0LjV0LTU1IDIyLjVoLTIwNHEtMzIgMC01NC41LTIyLjV0LTIyLjUtNTQuNVY3N3EwLTMyIDIyLjUtNTR0NTQuNS0yMmgyMDd6bTI2IDc2cTAtMTEtNy41LTE4dC0xOC41LTdoLTIwcS04IDAtMTMuNSA0LjV0LTkuNSAxMC41bC0xMSAyM3EtNyAxNS0yMyAxNWgtNTFxLTggMC0xMy41LTQuNXQtOS41LTEwLjVsLTEwLTIzcS03LTE1LTIzLTE1aC0yMHEtMjYgMC0yNiAyNXYzNThxMCAxMSA3IDE4LjV0MTkgNy41aDIwNHExMSAwIDE4LjUtNy41dDcuNS0xOC41Vjc3eiI+PC9wYXRoPgogICAgICAgICAgICAgICAgICAgIDwvZz48L2c+CiAgICAgICAgICAgICAgICAgICAgPC9zdmc+;fontStyle=1;fontColor=#333333;" parent="1" vertex="1">
          <mxGeometry x="85" y="370" width="60" height="60" as="geometry" />
        </mxCell>
        <mxCell id="GHpy8DAtyEdUzNsid3nN-19" value="SAP Fiori &#xa;Launchpad" style="shape=image;verticalLabelPosition=bottom;verticalAlign=top;imageAspect=0;aspect=fixed;image=data:image/svg+xml,PHN2ZyBpZD0ic2NwLWxhdW5jaHBhZCIgeG1sbnM9Imh0dHA6Ly93d3cudzMub3JnLzIwMDAvc3ZnIiB2aWV3Qm94PSIwIDAgNTYgNTYiPjxkZWZzPjxzdHlsZT4uY2xzLTF7ZmlsbDojMDAzYjc0O30uY2xzLTJ7ZmlsbDojMDA2ZGQ3O308L3N0eWxlPjwvZGVmcz48cGF0aCBjbGFzcz0iY2xzLTEiIGQ9Ik00OSw3YTIuODg5LDIuODg5LDAsMCwxLDMsM1Y0MGEyLjk1OSwyLjk1OSwwLDAsMS0uODQ0LDIuMTA5QTIuODM3LDIuODM3LDAsMCwxLDQ5LDQzSDdhMi44NzEsMi44NzEsMCwwLDEtMi4xMDktLjg5MUEyLjg3NiwyLjg3NiwwLDAsMSw0LDQwVjEwYTIuODM0LDIuODM0LDAsMCwxLC44OTEtMi4xNTZBMi45NTQsMi45NTQsMCwwLDEsNyw3Wm0wLDNIN1Y0MEg0OVpNMzguNSw0NkExLjMyNywxLjMyNywwLDAsMSw0MCw0Ny41YTEuNTA5LDEuNTA5LDAsMCwxLS40MjIsMS4wMzFBMS4zODEsMS4zODEsMCwwLDEsMzguNSw0OWgtMjFBMS42MTQsMS42MTQsMCwwLDEsMTYsNDcuNWExLjM4MSwxLjM4MSwwLDAsMSwuNDY5LTEuMDc4QTEuNTA1LDEuNTA1LDAsMCwxLDE3LjUsNDZaIi8+PHJlY3QgY2xhc3M9ImNscy0yIiB4PSIxMCIgeT0iMTMiIHdpZHRoPSIxNi41MTUiIGhlaWdodD0iMTUiIHJ4PSIxLjI1Ii8+PHJlY3QgY2xhc3M9ImNscy0yIiB4PSIyOS41IiB5PSIxMyIgd2lkdGg9IjE2LjUiIGhlaWdodD0iNiIgcng9IjEuMjUiLz48cmVjdCBjbGFzcz0iY2xzLTIiIHg9IjEwIiB5PSIzMSIgd2lkdGg9IjYuNzMiIGhlaWdodD0iNiIgcng9IjAuNSIvPjxyZWN0IGNsYXNzPSJjbHMtMiIgeD0iMTkuNzY1IiB5PSIzMSIgd2lkdGg9IjYuNzM1IiBoZWlnaHQ9IjYiIHJ4PSIwLjUiLz48cmVjdCBjbGFzcz0iY2xzLTIiIHg9IjI5LjUiIHk9IjMxIiB3aWR0aD0iNi43MzUiIGhlaWdodD0iNiIgcng9IjAuNSIvPjxyZWN0IGNsYXNzPSJjbHMtMiIgeD0iMzkuMjY1IiB5PSIzMSIgd2lkdGg9IjYuNzM1IiBoZWlnaHQ9IjYiIHJ4PSIwLjUiLz48cmVjdCBjbGFzcz0iY2xzLTIiIHg9IjI5LjUiIHk9IjIyIiB3aWR0aD0iNi43MzUiIGhlaWdodD0iNiIgcng9IjAuNSIvPjxyZWN0IGNsYXNzPSJjbHMtMiIgeD0iMzkuMjY1IiB5PSIyMiIgd2lkdGg9IjYuNzM1IiBoZWlnaHQ9IjYiIHJ4PSIwLjUiLz48L3N2Zz4=;fontStyle=1;fontColor=#333333;" parent="1" vertex="1">
          <mxGeometry x="385" y="249" width="50" height="50" as="geometry" />
        </mxCell>
        <mxCell id="GHpy8DAtyEdUzNsid3nN-20" value="Site Directory" style="shape=image;verticalLabelPosition=bottom;verticalAlign=top;imageAspect=0;aspect=fixed;image=data:image/svg+xml,PHN2ZyB4bWxucz0iaHR0cDovL3d3dy53My5vcmcvMjAwMC9zdmciIHZlcnNpb249IjEuMSIgeG1sbnM6eGxpbms9Imh0dHA6Ly93d3cudzMub3JnLzE5OTkveGxpbmsiIHZpZXdCb3g9IjAgMCA1MTAgNTEwIiBwcmVzZXJ2ZUFzcGVjdFJhdGlvPSJ4TWlkWU1pZCI+CiAgICAgICAgICAgICAgICAgICAgPGRlZnM+PHN0eWxlPi5jbHMtMXtmaWxsOiM1OTU5NTk7fTwvc3R5bGU+PC9kZWZzPgogICAgICAgICAgICAgICAgICAgIDx0aXRsZT53b3JsZDwvdGl0bGU+CiAgICAgICAgICAgICAgICAgICAgPGcgaWQ9IkxheWVyXzIiIGRhdGEtbmFtZT0iTGF5ZXIgMiI+PGcgaWQ9IndvcmxkIj4KICAgICAgICAgICAgICAgICAgICA8cGF0aCBjbGFzcz0iY2xzLTEiIGQ9Ik0wIDI1NXEwLTUzIDIwLTk5LjVUNzUgNzR0ODEuNS01NVQyNTYtMXQ5OS41IDIwVDQzNyA3NHQ1NSA4MS41IDIwIDk5LjUtMjAgOTkuNS01NSA4MS41LTgxLjUgNTUtOTkuNSAyMC05OS41LTIwVDc1IDQzNnQtNTUtODEuNVQwIDI1NXpNMjkyIDU0cTIwIDI1IDM1LjUgNTN0MjQuNSA2MGg4OXEtMjItNDUtNjEtNzV0LTg4LTM4ek0xNTMgMTY3cTE4LTYyIDU5LTExMi00NyAxMS04NCA0MC41VDcxIDE2N2g4MnptMTQ5IDBxLTE3LTUwLTUwLTg3LTMyIDM4LTQ5IDg3aDk5em0tMTEwIDQ4cS0yIDEwLTMgMTkuNXQtMSAyMC41IDEgMjAuNSAzIDE5LjVoMTIxcTMtMjAgMy00MCAwLTIxLTMtNDBIMTkyem0xNzAgMHExIDEwIDEuNSAxOS41dC41IDIwLjUtLjUgMjAuNVQzNjIgMjk1aDk1cTItMTAgMy0xOS41dDEtMjAuNS0xLTIwLjUtMy0xOS41aC05NXptLTMwNyAwcS0yIDEwLTMgMTkuNVQ1MSAyNTV0MSAyMC41IDMgMTkuNWg4OHEtMS0xMC0yLTE5LjV0LTEtMjAuNSAxLTIwLjUgMi0xOS41SDU1em0yOTcgMTI4cS05IDMyLTI0LjUgNjBUMjkyIDQ1NnE0OS04IDg4LTM4LjV0NjEtNzQuNWgtODl6bS0yODEgMHEyMCA0MiA1NyA3MS41dDg0IDQwLjVxLTQxLTUwLTU5LTExMkg3MXptMTgxIDg3cTMyLTM4IDQ5LTg3aC05OHExNyA0OSA0OSA4N3oiPjwvcGF0aD4KICAgICAgICAgICAgICAgICAgICA8L2c+PC9nPgogICAgICAgICAgICAgICAgICAgIDwvc3ZnPg==;fontStyle=0;fontColor=#333333;" parent="1" vertex="1">
          <mxGeometry x="541" y="375" width="36" height="36" as="geometry" />
        </mxCell>
        <mxCell id="GHpy8DAtyEdUzNsid3nN-22" value="Web Client" style="shape=image;verticalLabelPosition=bottom;verticalAlign=top;imageAspect=0;aspect=fixed;image=data:image/svg+xml,PHN2ZyB4bWxucz0iaHR0cDovL3d3dy53My5vcmcvMjAwMC9zdmciIHZlcnNpb249IjEuMSIgeG1sbnM6eGxpbms9Imh0dHA6Ly93d3cudzMub3JnLzE5OTkveGxpbmsiIHZpZXdCb3g9IjAgMCA1MTAgNTEwIiBwcmVzZXJ2ZUFzcGVjdFJhdGlvPSJ4TWlkWU1pZCI+CiAgICAgICAgICAgICAgICAgICAgPGRlZnM+PHN0eWxlPi5jbHMtMXtmaWxsOiM1OTU5NTk7fTwvc3R5bGU+PC9kZWZzPgogICAgICAgICAgICAgICAgICAgIDx0aXRsZT5sYXB0b3A8L3RpdGxlPgogICAgICAgICAgICAgICAgICAgIDxnIGlkPSJMYXllcl8yIiBkYXRhLW5hbWU9IkxheWVyIDIiPjxnIGlkPSJsYXB0b3AiPgogICAgICAgICAgICAgICAgICAgIDxwYXRoIGNsYXNzPSJjbHMtMSIgZD0iTTQ5NCA0MDVxMjEgMCAyMSAyMXQtMjEgMjFIMjRxLTkgMC0xNS01LjVUMyA0MjZ0Ni0xNS41IDE1LTUuNWgyNnEwLTItMS0zdi0xcS0zLTktMy0xOFYxNzBxMC0yNyAxOC00NS41dDQ2LTE4LjVoMjk4cTI4IDAgNDYgMTguNXQxOCA0NS41djIxM3EwIDExLTQgMjJoMjZ6TTg4IDM4M2gzNDJWMTcwcTAtMjEtMjItMjFIMTEwcS0yMiAwLTIyIDIxdjIxM3oiPjwvcGF0aD4KICAgICAgICAgICAgICAgICAgICA8L2c+PC9nPgogICAgICAgICAgICAgICAgICAgIDwvc3ZnPg==;fontStyle=1;fontColor=#333333;" parent="1" vertex="1">
          <mxGeometry x="75" y="220" width="80" height="80" as="geometry" />
        </mxCell>
        <mxCell id="GHpy8DAtyEdUzNsid3nN-23" value="Provider Manger" style="shape=image;verticalLabelPosition=bottom;verticalAlign=top;imageAspect=0;aspect=fixed;image=data:image/svg+xml,PHN2ZyB4bWxucz0iaHR0cDovL3d3dy53My5vcmcvMjAwMC9zdmciIHZlcnNpb249IjEuMSIgeG1sbnM6eGxpbms9Imh0dHA6Ly93d3cudzMub3JnLzE5OTkveGxpbmsiIHZpZXdCb3g9IjAgMCA1MTAgNTEwIiBwcmVzZXJ2ZUFzcGVjdFJhdGlvPSJ4TWlkWU1pZCI+CiAgICAgICAgICAgICAgICAgICAgPGRlZnM+PHN0eWxlPi5jbHMtMXtmaWxsOiM1OTU5NTk7fTwvc3R5bGU+PC9kZWZzPgogICAgICAgICAgICAgICAgICAgIDx0aXRsZT5vcmctY2hhcnQ8L3RpdGxlPgogICAgICAgICAgICAgICAgICAgIDxnIGlkPSJMYXllcl8yIiBkYXRhLW5hbWU9IkxheWVyIDIiPjxnIGlkPSJvcmctY2hhcnQiPgogICAgICAgICAgICAgICAgICAgIDxwYXRoIGNsYXNzPSJjbHMtMSIgZD0iTTQ4NCAzNDFxMjggMCAyOCAyOHYxMTNxMCAxMy03LjUgMjF0LTIwLjUgOEgzMTNxLTEzIDAtMjAuNS04dC03LjUtMjFWMzY5cTAtMjggMjgtMjhoNTd2LTU3SDE0M3Y1N2g1N3EyOCAwIDI4IDI4djExM3EwIDEzLTcuNSAyMXQtMjAuNSA4SDI5cS0xMyAwLTIwLjUtOFQxIDQ4MlYzNjlxMC0yOCAyOC0yOGg1N3YtODZxMC0yOCAyOS0yOGgxMTN2LTU3aC04NXEtMjggMC0yOC0yOFYyOHEwLTI4IDI4LTI4aDIyN3EyOCAwIDI4IDI4djExNHEwIDI4LTI4IDI4aC04NXY1N2gxMTNxMTMgMCAyMSA3LjV0OCAyMC41djg2aDU3ek0xNzEgMTEzaDE3MVY1N0gxNzF2NTZ6bTAgMjg0SDU4djU3aDExM3YtNTd6bTI4NCAwSDM0MnY1N2gxMTN2LTU3eiI+PC9wYXRoPgogICAgICAgICAgICAgICAgICAgIDwvZz48L2c+CiAgICAgICAgICAgICAgICAgICAgPC9zdmc+;" parent="1" vertex="1">
          <mxGeometry x="756" y="373" width="38" height="38" as="geometry" />
        </mxCell>
        <mxCell id="GHpy8DAtyEdUzNsid3nN-24" value="Content Manager" style="shape=image;verticalLabelPosition=bottom;verticalAlign=top;imageAspect=0;aspect=fixed;image=data:image/svg+xml,PHN2ZyB4bWxucz0iaHR0cDovL3d3dy53My5vcmcvMjAwMC9zdmciIHZlcnNpb249IjEuMSIgeG1sbnM6eGxpbms9Imh0dHA6Ly93d3cudzMub3JnLzE5OTkveGxpbmsiIHZpZXdCb3g9IjAgMCA1MTAgNTEwIiBwcmVzZXJ2ZUFzcGVjdFJhdGlvPSJ4TWlkWU1pZCI+CiAgICAgICAgICAgICAgICAgICAgPGRlZnM+PHN0eWxlPi5jbHMtMXtmaWxsOiM1OTU5NTk7fTwvc3R5bGU+PC9kZWZzPgogICAgICAgICAgICAgICAgICAgIDx0aXRsZT5wcm9kdWN0PC90aXRsZT4KICAgICAgICAgICAgICAgICAgICA8ZyBpZD0iTGF5ZXJfMiIgZGF0YS1uYW1lPSJMYXllciAyIj48ZyBpZD0icHJvZHVjdCI+CiAgICAgICAgICAgICAgICAgICAgPHBhdGggY2xhc3M9ImNscy0xIiBkPSJNNDc1Ljg5MyAxMzEuMTc1cTUuOTk3IDMuOTk4IDguOTk2IDEwLjQ5NXQxIDEyLjQ5NHYyMDMuOTA3cTAgMTQuOTkzLTEyLjk5NSAyMi45OUwyNjkuOTg3IDUwOHEtMTYuOTkyIDcuOTk3LTI3Ljk4NyAwTDM4LjA5NCAzODEuMDYycS01Ljk5Ny0zLjk5OS05LjQ5Ni0xMC45OTZUMjUuMSAzNTguMDcxVjE1NC4xNjRxMC0xNC45OTMgMTIuOTk0LTIyLjk4OWwxMDEuOTUzLTYzLjk3cTE1Ljk5My03Ljk5NyAyNy45ODcgMGwyMDMuOTA3IDEyNy45NHE0Ljk5NyAyIDguNDk2IDguNDk3dDMuNDk4IDExLjQ5NHY4OC45NnEwIDI1Ljk4OC0yNC45ODggMjUuOTg4LTEwLjk5NSAwLTE4LjQ5Mi02Ljk5N3QtNy40OTYtMTguOTkxVjIzMC4xM0wxNTUuMDQgMTE4LjE4bC03NS45NjUgNDguOTc3djE3NS45MmwxNzcuOTE4IDExMS45NDggMTc3LjkxOS0xMTEuOTQ4di0xNzUuOTJMMjQzLjk5OSA0Ny4yMTRxLTkuOTk1LTUuOTk4LTExLjQ5NC0xNS45OTN0My40OTgtMTkuOTlRMjQyIDMuMjMzIDI1MS45OTYuNzM0dDE5Ljk5IDMuNDk4ek0yMjIuMDEgMzI3LjA4NXE5Ljk5NSA1Ljk5NyAxMS40OTQgMTUuOTkzdC0zLjQ5OCAxOS45OXEtNS45OTcgNy45OTctMTUuOTkzIDEwLjQ5NnQtMTkuOTktMi41bC01MC45NzctMzAuOTg1cS05Ljk5Ni01Ljk5Ny0xMS40OTUtMTUuOTkzdDQuNDk4LTE5Ljk5cTQuOTk4LTcuOTk3IDE0Ljk5My0xMC40OTZ0MTkuOTkgMy40OTl6Ij48L3BhdGg+CiAgICAgICAgICAgICAgICAgICAgPC9nPjwvZz4KICAgICAgICAgICAgICAgICAgICA8L3N2Zz4=;fontColor=#333333;" parent="1" vertex="1">
          <mxGeometry x="646" y="373" width="38" height="38" as="geometry" />
        </mxCell>
        <mxCell id="GHpy8DAtyEdUzNsid3nN-25" value="" style="rounded=1;whiteSpace=wrap;html=1;labelPosition=center;verticalLabelPosition=top;align=center;verticalAlign=bottom;dashed=1;fillColor=none;fillStyle=auto;" parent="1" vertex="1">
          <mxGeometry x="500" y="348" width="330" height="110" as="geometry" />
        </mxCell>
        <mxCell id="GHpy8DAtyEdUzNsid3nN-26" value="Identity Authentication" style="shape=image;verticalLabelPosition=bottom;verticalAlign=top;imageAspect=0;aspect=fixed;image=data:image/svg+xml,PHN2ZyB3aWR0aD0iNDkiIGhlaWdodD0iNDkiIHZpZXdCb3g9IjAgMCA0OSA0OSIgZmlsbD0ibm9uZSIgeG1sbnM9Imh0dHA6Ly93d3cudzMub3JnLzIwMDAvc3ZnIj4KPGcgY2xpcC1wYXRoPSJ1cmwoI2NsaXAwXzI2MjJfMjA0ODUpIj4KPHBhdGggZmlsbC1ydWxlPSJldmVub2RkIiBjbGlwLXJ1bGU9ImV2ZW5vZGQiIGQ9Ik0yNC4xNjAxIDEuMjgzMDhDMTYuNTQ2OCAxLjI4MzA4IDExLjEzNzcgNy40ODAzMSAxMC4yMzY1IDEzLjk1MDNDNy43ODc1MiAxNC4wOTYxIDUuNjI1MDggMTUuMDE2NCAzLjk0NTU5IDE2LjU2MjNDMS42NzM1MSAxOC42NTM3IDAuNSAyMS42ODkyIDAuNSAyNC44OTA0QzAuNSAyNy44NjU0IDEuNDAyNDMgMzAuNjc3NCAzLjQyODQ1IDMyLjc1NjVDNS40NjgxMiAzNC44NDk2IDguMzYzODcgMzUuOTA5OCAxMS43NzM1IDM1LjkwOThIMTMuMjcxOEMxMy4yOTMxIDM1Ljg3NzIgMTMuMzE0NiAzNS44NDQ3IDEzLjMzNjIgMzUuODEyMkwxMy4zNTc4IDM1Ljc3OTlMMTMuMzgwMiAzNS43NDgzQzE0LjA1MDIgMzQuODAyNCAxNC44NDE2IDMzLjk2ODQgMTUuNzUgMzMuMjUzMUMxNS44MDU2IDMzLjIwNzQgMTUuODYxNyAzMy4xNjIzIDE1LjkxODEgMzMuMTE3N0MxNS40Mjk5IDMxLjk4MzkgMTUuMTg4MyAzMC43NDI3IDE1LjE4ODMgMjkuNDI0M0MxNS4xODgzIDI4LjE3MyAxNS40Mjc2IDI2Ljk2MDYgMTUuOTEzOSAyNS44MTEzQzE2LjM4MzcgMjQuNzAwOSAxNy4wNCAyMy43MDcxIDE3Ljg4ODMgMjIuODU4OEMxOC43NTQ0IDIxLjk5MjcgMTkuNzU5MiAyMS4zMTUzIDIwLjg4NyAyMC44MzgyQzIyLjAzNjMgMjAuMzUxOSAyMy4yNDg3IDIwLjExMjUgMjQuNSAyMC4xMTI1QzI1Ljc1MTMgMjAuMTEyNSAyNi45NjM3IDIwLjM1MTkgMjguMTEzIDIwLjgzODJDMjkuMjMyIDIxLjMxMTYgMzAuMjI0NSAyMS45ODY1IDMxLjA2NTkgMjIuODU4NEMzMS45Mzc4IDIzLjY5OTggMzIuNjEyNyAyNC42OTIzIDMzLjA4NjEgMjUuODExM0MzMy41NzI0IDI2Ljk2MDYgMzMuODExOCAyOC4xNzMgMzMuODExOCAyOS40MjQzQzMzLjgxMTggMzAuNjc1NiAzMy41NzI0IDMxLjg4ODEgMzMuMDg2MSAzMy4wMzczTDMzLjA3ODUgMzMuMDU1NEwzMy4wNzA2IDMzLjA3MzNDMzQuMDQ0MiAzMy44MTc3IDM0Ljg5ODQgMzQuNzE3NiAzNS42Mjg2IDM1Ljc2MDhDMzUuNjY3IDM1LjgxNTYgMzUuNzA0OSAzNS44NzA3IDM1Ljc0MjMgMzUuOTI2QzQyLjM3NjUgMzUuNzQ0MSA0OC4zNDk5IDMwLjc1MzMgNDguMzQ5OSAyMi44MzMzQzQ4LjM0OTkgMTUuNzUwNiA0My4yODggMTAuMzA3NyAzNy4xOTQgOS43MzIwM0MzNC43NTEyIDQuNjgwNjEgMzAuMjE2NyAxLjI4MzA4IDI0LjE2MDEgMS4yODMwOFoiIGZpbGw9InVybCgjcGFpbnQwX3JhZGlhbF8yNjIyXzIwNDg1KSIvPgo8cGF0aCBkPSJNMjkuMDk2NyAzNC4yOTc1QzMwLjgyMzYgMzQuOTc1OSAzMi4yMjY3IDM2LjA4NjEgMzMuMzA2IDM3LjYyNzlDMzQuMzg1MyAzOS4xNjk4IDM0LjkyNDkgNDAuOTEyMSAzNC45MjQ5IDQyLjg1NDhWNDUuNDkxNEMzNC45MjQ5IDQ1Ljg2MTQgMzQuNzg2MiA0Ni4xNjk4IDM0LjUwODYgNDYuNDE2NUMzNC4yNjE5IDQ2LjY2MzIgMzMuOTY5IDQ2Ljc4NjUgMzMuNjI5OCA0Ni43ODY1SDMwLjk5MzJDMzAuNjIzMiA0Ni43ODY1IDMwLjI5OTQgNDYuNjYzMiAzMC4wMjE4IDQ2LjQxNjVDMjkuNzc1MSA0Ni4xNjk4IDI5LjY1MTggNDUuODYxNCAyOS42NTE4IDQ1LjQ5MTRDMjkuNjUxOCA0NS4xMjEzIDI5Ljc3NTEgNDQuODEzIDMwLjAyMTggNDQuNTY2M0MzMC4yOTk0IDQ0LjI4ODcgMzAuNjIzMiA0NC4xNSAzMC45OTMyIDQ0LjE1SDMyLjI4ODRWNDIuODU0OEMzMi4yODg0IDQxLjk2MDUgMzIuMTE4OCA0MS4xMTI1IDMxLjc3OTYgNDAuMzEwN0MzMS40NDAzIDM5LjUwOSAzMC45NjI0IDM4LjgxNTEgMzAuMzQ1NiAzOC4yMjkyQzI5Ljc1OTcgMzcuNjEyNSAyOS4wNjU5IDM3LjEzNDUgMjguMjY0MSAzNi43OTUzQzI3LjQ5MzIgMzYuNDU2MSAyNi42NDUyIDM2LjI4NjUgMjUuNzIwMSAzNi4yODY1SDIzLjEyOThDMjIuMjA0NyAzNi4yODY1IDIxLjM0MTIgMzYuNDU2MSAyMC41Mzk1IDM2Ljc5NTNDMTkuNzY4NSAzNy4xMzQ1IDE5LjA3NDcgMzcuNjEyNSAxOC40NTggMzguMjI5MkMxNy44NzIxIDM4LjgxNTEgMTcuNDA5NSAzOS41MDkgMTcuMDcwMyA0MC4zMTA3QzE2LjczMTEgNDEuMTEyNSAxNi41NjE1IDQxLjk2MDUgMTYuNTYxNSA0Mi44NTQ4VjQ0LjE1SDE3Ljg1NjZDMTguMjI2NyA0NC4xNSAxOC41MzUxIDQ0LjI4ODcgMTguNzgxOCA0NC41NjYzQzE5LjAyODUgNDQuODEzIDE5LjE1MTggNDUuMTIxMyAxOS4xNTE4IDQ1LjQ5MTRDMTkuMTUxOCA0NS44NjE0IDE5LjAyODUgNDYuMTY5OCAxOC43ODE4IDQ2LjQxNjVDMTguNTM1MSA0Ni42NjMyIDE4LjIyNjcgNDYuNzg2NSAxNy44NTY2IDQ2Ljc4NjVIMTUuMjIwMUMxNC44ODA5IDQ2Ljc4NjUgMTQuNTcyNSA0Ni42NjMyIDE0LjI5NSA0Ni40MTY1QzE0LjA0ODMgNDYuMTY5OCAxMy45MjQ5IDQ1Ljg2MTQgMTMuOTI0OSA0NS40OTE0VjQyLjg1NDhDMTMuOTI0OSA0MS44NjggMTQuMDYzNyA0MC45NDI5IDE0LjM0MTIgNDAuMDc5NUMxNC42NDk2IDM5LjE4NTIgMTUuMDUwNSAzOC4zNjggMTUuNTQzOSAzNy42Mjc5QzE2LjA2ODEgMzYuODg3OCAxNi42ODQ4IDM2LjI0MDMgMTcuMzk0MSAzNS42ODUyQzE4LjEwMzMgMzUuMDk5MyAxOC44ODk3IDM0LjYzNjcgMTkuNzUzMSAzNC4yOTc1QzE4LjQ4ODggMzMuMDk0OSAxNy44NTY2IDMxLjU2ODQgMTcuODU2NiAyOS43MTgyQzE3Ljg1NjYgMjguODIzOSAxOC4wMjYyIDI3Ljk3NTkgMTguMzY1NSAyNy4xNzQxQzE4LjcwNDcgMjYuMzcyNCAxOS4xNjcyIDI1LjY3ODUgMTkuNzUzMSAyNS4wOTI2QzIwLjM2OTkgMjQuNDc1OSAyMS4wNzkxIDIzLjk5NzkgMjEuODgwOSAyMy42NTg3QzIyLjY4MjYgMjMuMzE5NSAyMy41MzA3IDIzLjE0OTkgMjQuNDI0OSAyMy4xNDk5QzI1LjMxOTIgMjMuMTQ5OSAyNi4xNjcyIDIzLjMxOTUgMjYuOTY5IDIzLjY1ODdDMjcuNzcwNyAyMy45OTc5IDI4LjQ2NDYgMjQuNDc1OSAyOS4wNTA1IDI1LjA5MjZDMjkuNjY3MiAyNS42Nzg1IDMwLjE0NTIgMjYuMzcyNCAzMC40ODQ0IDI3LjE3NDFDMzAuODIzNiAyNy45NzU5IDMwLjk5MzIgMjguODIzOSAzMC45OTMyIDI5LjcxODJDMzAuOTkzMiAzMC42MTI1IDMwLjgyMzYgMzEuNDYwNSAzMC40ODQ0IDMyLjI2MjNDMzAuMTQ1MiAzMy4wMzMyIDI5LjY4MjYgMzMuNzExNiAyOS4wOTY3IDM0LjI5NzVaTTI0LjQyNDkgMjUuNzg2NUMyMy4zNDU2IDI1Ljc4NjUgMjIuNDIwNSAyNi4xNzE5IDIxLjY0OTYgMjYuOTQyOUMyMC44Nzg3IDI3LjcxMzggMjAuNDkzMiAyOC42Mzg5IDIwLjQ5MzIgMjkuNzE4MkMyMC40OTMyIDMwLjc5NzUgMjAuODc4NyAzMS43MjI2IDIxLjY0OTYgMzIuNDkzNUMyMi40MjA1IDMzLjI2NDUgMjMuMzQ1NiAzMy42NDk5IDI0LjQyNDkgMzMuNjQ5OUMyNS41MDQyIDMzLjY0OTkgMjYuNDI5MyAzMy4yNjQ1IDI3LjIwMDMgMzIuNDkzNUMyNy45NzEyIDMxLjcyMjYgMjguMzU2NiAzMC43OTc1IDI4LjM1NjYgMjkuNzE4MkMyOC4zNTY2IDI4LjYzODkgMjcuOTcxMiAyNy43MTM4IDI3LjIwMDMgMjYuOTQyOUMyNi40MjkzIDI2LjE3MTkgMjUuNTA0MiAyNS43ODY1IDI0LjQyNDkgMjUuNzg2NVoiIGZpbGw9InVybCgjcGFpbnQxX3JhZGlhbF8yNjIyXzIwNDg1KSIvPgo8L2c+CjxkZWZzPgo8cmFkaWFsR3JhZGllbnQgaWQ9InBhaW50MF9yYWRpYWxfMjYyMl8yMDQ4NSIgY3g9IjAiIGN5PSIwIiByPSIxIiBncmFkaWVudFVuaXRzPSJ1c2VyU3BhY2VPblVzZSIgZ3JhZGllbnRUcmFuc2Zvcm09InRyYW5zbGF0ZSg3LjkyMDI3IDcuOTY0MzMpIHJvdGF0ZSg0My44Nzc5KSBzY2FsZSg0NS45NTk4IDg2Ljc3NjMpIj4KPHN0b3Agc3RvcC1jb2xvcj0iIzAxOTVGRiIvPgo8c3RvcCBvZmZzZXQ9IjEiIHN0b3AtY29sb3I9IiMxMTQ3RTkiLz4KPC9yYWRpYWxHcmFkaWVudD4KPHJhZGlhbEdyYWRpZW50IGlkPSJwYWludDFfcmFkaWFsXzI2MjJfMjA0ODUiIGN4PSIwIiBjeT0iMCIgcj0iMSIgZ3JhZGllbnRVbml0cz0idXNlclNwYWNlT25Vc2UiIGdyYWRpZW50VHJhbnNmb3JtPSJ0cmFuc2xhdGUoNy45MDk0NiA4LjEyODM1KSByb3RhdGUoNDMuNTYwMSkgc2NhbGUoNDUuOTk1OSA0MS44NjE0KSI+CjxzdG9wIHN0b3AtY29sb3I9IiMxMzQ4RkYiLz4KPHN0b3Agb2Zmc2V0PSIxIiBzdG9wLWNvbG9yPSIjMDYyMzhEIi8+CjwvcmFkaWFsR3JhZGllbnQ+CjxjbGlwUGF0aCBpZD0iY2xpcDBfMjYyMl8yMDQ4NSI+CjxyZWN0IHdpZHRoPSI0OCIgaGVpZ2h0PSI0OCIgZmlsbD0id2hpdGUiIHRyYW5zZm9ybT0idHJhbnNsYXRlKDAuNSAwLjAzNDkxMjEpIi8+CjwvY2xpcFBhdGg+CjwvZGVmcz4KPC9zdmc+Cg==;fontStyle=1;fontColor=#333333;" parent="1" vertex="1">
          <mxGeometry x="385" y="500" width="50" height="50" as="geometry" />
        </mxCell>
        <mxCell id="GHpy8DAtyEdUzNsid3nN-29" value="" style="endArrow=block;html=1;strokeColor=#354A5F;bendable=1;rounded=1;endFill=1;endSize=3;entryX=0.5;entryY=0;entryDx=0;entryDy=0;dashed=1;" parent="1" target="GHpy8DAtyEdUzNsid3nN-26" edge="1">
          <mxGeometry width="50" height="50" relative="1" as="geometry">
            <mxPoint x="410" y="340" as="sourcePoint" />
            <mxPoint x="620" y="460" as="targetPoint" />
            <Array as="points" />
          </mxGeometry>
        </mxCell>
        <mxCell id="GHpy8DAtyEdUzNsid3nN-30" value="" style="endArrow=none;html=1;strokeColor=#354A5F;bendable=1;rounded=1;endFill=0;endSize=3;exitX=0;exitY=0.5;exitDx=0;exitDy=0;" parent="1" source="GHpy8DAtyEdUzNsid3nN-32" edge="1">
          <mxGeometry width="50" height="50" relative="1" as="geometry">
            <mxPoint x="185" y="273.9" as="sourcePoint" />
            <mxPoint x="190" y="274" as="targetPoint" />
            <Array as="points" />
          </mxGeometry>
        </mxCell>
        <mxCell id="GHpy8DAtyEdUzNsid3nN-31" value="" style="endArrow=block;html=1;strokeColor=#354A5F;bendable=1;rounded=1;endFill=1;endSize=3;entryX=0;entryY=0.5;entryDx=0;entryDy=0;" parent="1" source="GHpy8DAtyEdUzNsid3nN-32" target="GHpy8DAtyEdUzNsid3nN-19" edge="1">
          <mxGeometry width="50" height="50" relative="1" as="geometry">
            <mxPoint x="185" y="273.9" as="sourcePoint" />
            <mxPoint x="310" y="274" as="targetPoint" />
            <Array as="points" />
          </mxGeometry>
        </mxCell>
        <mxCell id="GHpy8DAtyEdUzNsid3nN-32" value="" style="rounded=1;whiteSpace=wrap;html=1;arcSize=30;absoluteArcSize=1;strokeColor=#354A5F;fillColor=#354A5F;imageVerticalAlign=top;imageAlign=center;imageWidth=24;imageHeight=16;" parent="1" vertex="1">
          <mxGeometry x="230" y="269" width="30" height="10" as="geometry" />
        </mxCell>
        <mxCell id="GHpy8DAtyEdUzNsid3nN-33" value="&lt;font color=&quot;#ffffff&quot; style=&quot;font-size: 6px;&quot;&gt;HTTPS&lt;/font&gt;" style="text;html=1;align=center;verticalAlign=middle;resizable=0;points=[];autosize=1;strokeColor=none;fillColor=none;" parent="1" vertex="1">
          <mxGeometry x="225" y="257" width="40" height="30" as="geometry" />
        </mxCell>
        <mxCell id="GHpy8DAtyEdUzNsid3nN-34" value="" style="endArrow=block;html=1;strokeColor=#354A5F;bendable=1;rounded=1;endFill=1;endSize=3;edgeStyle=entityRelationEdgeStyle;startArrow=none;startFill=0;startSize=3;jumpStyle=none;jumpSize=0;targetPerimeterSpacing=15;dashed=1;strokeWidth=1;entryX=0.02;entryY=0.827;entryDx=0;entryDy=0;entryPerimeter=0;" parent="1" target="GHpy8DAtyEdUzNsid3nN-19" edge="1">
          <mxGeometry width="50" height="50" relative="1" as="geometry">
            <mxPoint x="190" y="290" as="sourcePoint" />
            <mxPoint x="370" y="290" as="targetPoint" />
          </mxGeometry>
        </mxCell>
        <mxCell id="GHpy8DAtyEdUzNsid3nN-38" value="Conectivity" style="shape=image;verticalLabelPosition=bottom;verticalAlign=top;imageAspect=0;aspect=fixed;image=data:image/svg+xml,PHN2ZyB3aWR0aD0iNDkiIGhlaWdodD0iNDkiIHZpZXdCb3g9IjAgMCA0OSA0OSIgZmlsbD0ibm9uZSIgeG1sbnM9Imh0dHA6Ly93d3cudzMub3JnLzIwMDAvc3ZnIj4KPGcgY2xpcC1wYXRoPSJ1cmwoI2NsaXAwXzI2MjJfMjg2MykiPgo8cGF0aCBmaWxsLXJ1bGU9ImV2ZW5vZGQiIGNsaXAtcnVsZT0iZXZlbm9kZCIgZD0iTTI3LjMwMTggNS4zOTExMkMyNy4zMDE4IDQuMDY1NjQgMjguMzc2NCAyLjk5MTEyIDI5LjcwMTggMi45OTExMkgzNy4xMTA0QzQxLjc0OTYgMi45OTExMiA0NS41MTA0IDYuNzUxOTMgNDUuNTEwNCAxMS4zOTExVjE3Ljc3MTRDNDUuNTEwNCAxOS4wOTY5IDQ0LjQzNTggMjAuMTcxNCA0My4xMTA0IDIwLjE3MTRDNDEuNzg0OSAyMC4xNzE0IDQwLjcxMDQgMTkuMDk2OSA0MC43MTA0IDE3Ljc3MTRWMTEuMzkxMUM0MC43MTA0IDkuNDAyODkgMzkuMDk4NiA3Ljc5MTEyIDM3LjExMDQgNy43OTExMkgyOS43MDE4QzI4LjM3NjQgNy43OTExMiAyNy4zMDE4IDYuNzE2NiAyNy4zMDE4IDUuMzkxMTJaTTUuODg3MyAyNi42QzcuMjEyNzkgMjYuNiA4LjI4NzMxIDI3LjY3NDUgOC4yODczMSAyOVYzNi42NTUzQzguMjg3MzEgMzguNjQzNSA5Ljg5OTA4IDQwLjI1NTMgMTEuODg3MyA0MC4yNTUzSDIwLjAzNjJDMjEuMzYxNyA0MC4yNTUzIDIyLjQzNjIgNDEuMzI5OCAyMi40MzYyIDQyLjY1NTNDMjIuNDM2MiA0My45ODA4IDIxLjM2MTcgNDUuMDU1MyAyMC4wMzYyIDQ1LjA1NTNIMTEuODg3M0M3LjI0ODExIDQ1LjA1NTMgMy40ODczIDQxLjI5NDUgMy40ODczIDM2LjY1NTNWMjlDMy40ODczIDI3LjY3NDUgNC41NjE4MiAyNi42IDUuODg3MyAyNi42WiIgZmlsbD0idXJsKCNwYWludDBfcmFkaWFsXzI2MjJfMjg2MykiLz4KPHBhdGggZmlsbC1ydWxlPSJldmVub2RkIiBjbGlwLXJ1bGU9ImV2ZW5vZGQiIGQ9Ik00Ny43NSA0Mi45MTc5QzQ4LjI1IDQzLjQxNzkgNDguNSA0My45NDkxIDQ4LjUgNDQuNTExNkM0OC41IDQ1LjEzNjYgNDguMjUgNDUuNjk5MSA0Ny43NSA0Ni4xOTkxQzQ3LjI1IDQ2LjY5OTEgNDYuNjg3NSA0Ni45NDkxIDQ2LjA2MjUgNDYuOTQ5MUM0NS41IDQ2Ljk0OTEgNDQuOTY4OCA0Ni42OTkxIDQ0LjQ2ODggNDYuMTk5MUwzNy44MTI1IDM5LjU0MjlDMzUuODc1IDQxLjIzMDQgMzMuNjg3NSA0Mi4wNDI5IDMxLjI1IDQxLjk4MDRDMjguODEyNSA0MS44NTU0IDI2LjY4NzUgNDAuODg2NiAyNC44NzUgMzkuMDc0MUwyMi43MTg4IDM2LjkxNzlDMjIuMjE4NyAzNi40MTc5IDIxLjk2ODggMzUuODg2NiAyMS45Njg4IDM1LjMyNDFDMjEuOTY4OCAzNC42OTkxIDIyLjIxODcgMzQuMTM2NiAyMi43MTg4IDMzLjYzNjZMMzQuOTA2MiAyMS40NDkxQzM1LjQwNjMgMjAuOTQ5MSAzNS45Njg4IDIwLjY5OTEgMzYuNTkzOCAyMC42OTkxQzM3LjIxODcgMjAuNjk5MSAzNy43ODEyIDIwLjk0OTEgMzguMjgxMiAyMS40NDkxTDQwLjQzNzUgMjMuNjA1NEM0Mi4yNSAyNS40MTc5IDQzLjE4NzUgMjcuNTExNiA0My4yNSAyOS44ODY2QzQzLjM3NSAzMi4xOTkxIDQyLjY1NjIgMzQuMjkyOSA0MS4wOTM4IDM2LjE2NzlMNDcuNzUgNDIuOTE3OVoiIGZpbGw9InVybCgjcGFpbnQxX3JhZGlhbF8yNjIyXzI4NjMpIi8+CjxwYXRoIGQ9Ik0yMy4xMzUzIDI3LjQxOTJDMjIuNjM1MyAyNy45MTkyIDIyLjA3MjggMjguMTY5MiAyMS40NDc4IDI4LjE2OTJDMjAuODg1MyAyOC4xNjkyIDIwLjM1NCAyNy45MTkyIDE5Ljg1NCAyNy40MTkyTDE1LjU0MTUgMjMuMTA2N0wxMy42NjY1IDI0Ljk4MTdDMTMuMTY2NSAyNS40ODE3IDEyLjYwNCAyNS43MzE3IDExLjk3OSAyNS43MzE3QzExLjI5MTUgMjUuNzMxNyAxMC43MjkgMjUuNDgxNyAxMC4yOTE1IDI0Ljk4MTdMOC4xMzUyIDIyLjkxOTJDNi4zMjI3IDIxLjEwNjcgNS4zNTM5NCAxOS4wNDQyIDUuMjI4OTQgMTYuNzMxN0M1LjEwMzk0IDE0LjM1NjcgNS43NjAxOSAxMi4yMDA1IDcuMTk3NyAxMC4yNjNMMS4yNSA0LjE1OTkxQzAuNzUwMDAxIDMuNjU5OTEgMC41IDMuMDk3NDEgMC41IDIuNDcyNDFDMC41IDEuODQ3NDEgMC43NTAwMDEgMS4yODQ5MSAxLjI1IDAuNzg0OTEyQzEuNzUwMDEgMC4yODQ5MTIgMi4yODEyNiAwLjAzNDkxMjEgMi44NDM3NiAwLjAzNDkxMjFDMy40Njg3NiAwLjAzNDkxMjEgNC4wMzEyNyAwLjI4NDkxMiA0LjUzMTI3IDAuNzg0OTEyTDEwLjQ3OSA2Ljg4Nzk2QzEyLjQxNjUgNS4zMjU0NiAxNC42MDQgNC42MDY3MSAxNy4wNDE1IDQuNzMxNzFDMTkuNDc5IDQuODU2NzEgMjEuNjA0IDUuODI1NDYgMjMuNDE2NSA3LjYzNzk2TDI1LjU3MjggOS43OTQyMUMyNi4wMTAzIDEwLjIzMTcgMjYuMjI5IDEwLjc5NDIgMjYuMjI5IDExLjQ4MTdDMjYuMjI5IDEyLjEwNjcgMjYuMDEwMyAxMi42MzggMjUuNTcyOCAxMy4wNzU1TDIzLjYwNCAxNS4wNDQyTDI3LjkxNjUgMTkuMjYzQzI4LjQxNjUgMTkuNzYzIDI4LjY2NjUgMjAuMzI1NSAyOC42NjY1IDIwLjk1MDVDMjguNjY2NSAyMS41NzU1IDI4LjQxNjUgMjIuMTM4IDI3LjkxNjUgMjIuNjM4QzI3LjQxNjUgMjMuMTM4IDI2Ljg1NCAyMy4zODggMjYuMjI5IDIzLjM4OEMyNS42MDQgMjMuMzg4IDI1LjA0MTUgMjMuMTM4IDI0LjU0MTUgMjIuNjM4TDIwLjMyMjggMTguMzI1NUwxOC44MjI4IDE5LjgyNTVMMjAuOTc5IDIxLjkzNDhMMjMuMTM1MyAyNC4wNDQyQzIzLjYzNTMgMjQuNTQ0MiAyMy44ODUzIDI1LjEwNjcgMjMuODg1MyAyNS43MzE3QzIzLjg4NTMgMjYuMzU2NyAyMy42MzUzIDI2LjkxOTIgMjMuMTM1MyAyNy40MTkyWiIgZmlsbD0idXJsKCNwYWludDJfcmFkaWFsXzI2MjJfMjg2MykiLz4KPC9nPgo8ZGVmcz4KPHJhZGlhbEdyYWRpZW50IGlkPSJwYWludDBfcmFkaWFsXzI2MjJfMjg2MyIgY3g9IjAiIGN5PSIwIiByPSIxIiBncmFkaWVudFVuaXRzPSJ1c2VyU3BhY2VPblVzZSIgZ3JhZGllbnRUcmFuc2Zvcm09InRyYW5zbGF0ZSgxMC4wMDQgOS4xNjczOCkgcm90YXRlKDQ1LjM0NjEpIHNjYWxlKDQxLjM5NjUgNzguMjE0OCkiPgo8c3RvcCBzdG9wLWNvbG9yPSIjMDE5NUZGIi8+CjxzdG9wIG9mZnNldD0iMSIgc3RvcC1jb2xvcj0iIzExNDdFOSIvPgo8L3JhZGlhbEdyYWRpZW50Pgo8cmFkaWFsR3JhZGllbnQgaWQ9InBhaW50MV9yYWRpYWxfMjYyMl8yODYzIiBjeD0iMCIgY3k9IjAiIHI9IjEiIGdyYWRpZW50VW5pdHM9InVzZXJTcGFjZU9uVXNlIiBncmFkaWVudFRyYW5zZm9ybT0idHJhbnNsYXRlKDI2LjE5MTEgMjQuNjM4OCkgcm90YXRlKDQ0LjY5NDcpIHNjYWxlKDI2LjEzNzEgMzEuNzE5MykiPgo8c3RvcCBzdG9wLWNvbG9yPSIjMDBCQkZGIi8+CjxzdG9wIG9mZnNldD0iMSIgc3RvcC1jb2xvcj0iIzAwOEJGRiIvPgo8L3JhZGlhbEdyYWRpZW50Pgo8cmFkaWFsR3JhZGllbnQgaWQ9InBhaW50Ml9yYWRpYWxfMjYyMl8yODYzIiBjeD0iMCIgY3k9IjAiIHI9IjEiIGdyYWRpZW50VW5pdHM9InVzZXJTcGFjZU9uVXNlIiBncmFkaWVudFRyYW5zZm9ybT0idHJhbnNsYXRlKDQuODYxNTMgNC4yNjcyNykgcm90YXRlKDQ0Ljk2NzIpIHNjYWxlKDI3LjczMTEgMjUuMjcwMykiPgo8c3RvcCBzdG9wLWNvbG9yPSIjMTM0OEZGIi8+CjxzdG9wIG9mZnNldD0iMSIgc3RvcC1jb2xvcj0iIzA2MjM4RCIvPgo8L3JhZGlhbEdyYWRpZW50Pgo8Y2xpcFBhdGggaWQ9ImNsaXAwXzI2MjJfMjg2MyI+CjxyZWN0IHdpZHRoPSI0OCIgaGVpZ2h0PSI0OCIgZmlsbD0id2hpdGUiIHRyYW5zZm9ybT0idHJhbnNsYXRlKDAuNSAwLjAzNDkxMjEpIi8+CjwvY2xpcFBhdGg+CjwvZGVmcz4KPC9zdmc+Cg==;fontStyle=1;fontColor=#333333;" parent="1" vertex="1">
          <mxGeometry x="750.5" y="500" width="49" height="49" as="geometry" />
        </mxCell>
        <mxCell id="GHpy8DAtyEdUzNsid3nN-40" value="Destination" style="shape=image;verticalLabelPosition=bottom;verticalAlign=top;imageAspect=0;aspect=fixed;image=data:image/svg+xml,PHN2ZyB3aWR0aD0iNDkiIGhlaWdodD0iNDkiIHZpZXdCb3g9IjAgMCA0OSA0OSIgZmlsbD0ibm9uZSIgeG1sbnM9Imh0dHA6Ly93d3cudzMub3JnLzIwMDAvc3ZnIj4KPGcgY2xpcC1wYXRoPSJ1cmwoI2NsaXAwXzI2MjJfMjg0OCkiPgo8cGF0aCBmaWxsLXJ1bGU9ImV2ZW5vZGQiIGNsaXAtcnVsZT0iZXZlbm9kZCIgZD0iTTMxLjQ1NCAwLjEyODY2MkgxNy4yODcyQzE2Ljc1NjkgMC4xMjg2NjIgMTYuMjQ4MyAwLjMzOTMyNyAxNS44NzM0IDAuNzE0MzEzQzE1LjQ5ODQgMS4wODkzIDE1LjI4NzcgMS41OTc4OSAxNS4yODc3IDIuMTI4MlY5LjE0NzY5QzE1LjI4NzcgMTAuNzg3NSAxNC43MDIxIDEyLjE5MzEgMTMuNTMwOCAxMy4zNjQ0QzEyLjM1OTUgMTQuNTM1NyAxMC45NTM5IDE1LjEyMTMgOS4zMTQwNyAxNS4xMjEzSDIuMjk0NThDMS43NjQyNyAxNS4xMjEzIDEuMjU1NjggMTUuMzMyIDAuODgwNjk1IDE1LjcwN0MwLjUwNTcwOSAxNi4wODIgMC4yOTUwNDQgMTYuNTkwNiAwLjI5NTA0NCAxNy4xMjA5VjQzLjIzNDlDMC4yOTUwNDQgNDUuODg1OSAyLjQ0NDA4IDQ4LjAzNDkgNS4wOTUwNCA0OC4wMzQ5SDE3LjU2ODNDMTYuNjY4NiA0Ny4xMzg4IDE1Ljg0ODEgNDYuMTYzMiAxNS4xMTgzIDQ1LjExOTRDMTQuNTQ4NiA0NC4zMDQ3IDE0Ljc0NzIgNDMuMTgyNSAxNS41NjE5IDQyLjYxMjhDMTYuMzc2NiA0Mi4wNDMxIDE3LjQ5ODggNDIuMjQxOCAxOC4wNjg1IDQzLjA1NjVDMTkuMjY5OSA0NC43NzQ2IDIwLjc2NjggNDYuMjcxNSAyMi40ODQ5IDQ3LjQ3MjlDMjIuNzAzOCA0Ny42MjU5IDIyLjg3ODIgNDcuODE4OCAyMy4wMDUyIDQ4LjAzNDlIMzEuNDU0QzMzLjY4ODMgNDguMDM0OSAzNS41NjYxIDQ2LjUwODMgMzYuMTAxMSA0NC40NDEzQzM1LjQxNDUgNDQuNTY3MyAzNC43MDU1IDQ0LjYzMDEgMzMuOTc3MyA0NC42MzAxSDMxLjUxNjhDMzAuMTMgNDQuNjMwMSAyOC45NDQ2IDQ0LjA0OTQgMjguMDU4MiA0My4xNjNDMjcuMzMyNSA0Mi40MzczIDI2Ljg2NzIgNDEuNTM3NSAyNi43MDcgNDAuNTQzOEwyNC43NzcgNDAuNTY1QzIzLjUyNDcgNDAuNTY1IDIyLjI1OTkgNDAuMTQ2MiAyMS4yNjUgMzkuMTUxM0MyMC4yNyAzOC4xNTYzIDE5Ljg1MTQgMzYuODkxNSAxOS44NTE0IDM1LjYzOTJDMTkuODUxNCAzNC42OTY5IDIwLjA4ODQgMzMuNzQ3NCAyMC42Mjk3IDMyLjkxMTJDMjAuMDg4NCAzMi4wNzUgMTkuODUxNCAzMS4xMjU2IDE5Ljg1MTQgMzAuMTgzMkMxOS44NTE0IDI4LjkzMDkgMjAuMjcgMjcuNjY2MSAyMS4yNjUgMjYuNjcxMkMyMi4yODQ2IDI1LjY1MTYgMjMuNTczIDI1LjMxMTEgMjQuNzIzNSAyNS4zMTExTDI2LjcxMjYgMjUuMzExMUMyNi44NjcgMjQuMzUzMSAyNy4yOTE1IDIzLjQyNjEgMjguMDU4MiAyMi42NTk0QzI5LjAwMDcgMjEuNzE3IDMwLjIzOTcgMjEuMTk3NCAzMS42MDczIDIxLjI0NDNMMzMuOTQ0IDIxLjE5MjRIMzMuOTc3M0MzNC43NTg5IDIxLjE5MjQgMzUuNTE5NCAyMS4yNjE4IDM2LjI1NCAyMS40MDM0VjE1LjMzM0MzNi4xMDgzIDE1LjM0MzYgMzUuOTU4OSAxNS4zMzY2IDM1LjgwODQgMTUuMzFDMzQuNzk1MiAxNS4xMzA5IDMzLjc1MTIgMTUuMDM3MyAzMi42ODM4IDE1LjAzNzNDMzEuNjE2NSAxNS4wMzczIDMwLjU3MjUgMTUuMTMwOSAyOS41NTkyIDE1LjMxQzI4LjU4MDMgMTUuNDgzIDI3LjY0NjQgMTQuODI5NyAyNy40NzM0IDEzLjg1MDdDMjcuMzAwNCAxMi44NzE4IDI3Ljk1MzcgMTEuOTM3OSAyOC45MzI3IDExLjc2NDlDMzAuMTUxOSAxMS41NDk0IDMxLjQwNTUgMTEuNDM3MyAzMi42ODM4IDExLjQzNzNDMzMuODk5IDExLjQzNzMgMzUuMDkxOCAxMS41Mzg2IDM2LjI1NCAxMS43MzM3VjQuOTI4NjZDMzYuMjU0IDIuMjc3NyAzNC4xMDUgMC4xMjg2NjIgMzEuNDU0IDAuMTI4NjYyWk0yMi45Mjg2IDE1LjczNTZDMjMuNDk4MyAxNi41NTAzIDIzLjI5OTYgMTcuNjcyNiAyMi40ODQ5IDE4LjI0MjNDMjAuNzY2OCAxOS40NDM3IDE5LjI2OTkgMjAuOTQwNSAxOC4wNjg1IDIyLjY1ODdDMTcuNDk4OCAyMy40NzM0IDE2LjM3NjYgMjMuNjcyIDE1LjU2MTkgMjMuMTAyM0MxNC43NDcyIDIyLjUzMjcgMTQuNTQ4NiAyMS40MTA0IDE1LjExODMgMjAuNTk1N0MxNi41NjEyIDE4LjUzMjEgMTguMzU4NCAxNi43MzUgMjAuNDIyIDE1LjI5MkMyMS4yMzY3IDE0LjcyMjMgMjIuMzU4OSAxNC45MjA5IDIyLjkyODYgMTUuNzM1NlpNMTMuNjc3IDI3LjY0NzJDMTQuNjU1OSAyNy44MjAyIDE1LjMwOTMgMjguNzU0IDE1LjEzNjIgMjkuNzMzQzE0Ljk1NzIgMzAuNzQ2MiAxNC44NjM1IDMxLjc5MDIgMTQuODYzNSAzMi44NTc2QzE0Ljg2MzUgMzMuOTI0OSAxNC45NTcyIDM0Ljk2ODkgMTUuMTM2MiAzNS45ODIyQzE1LjMwOTMgMzYuOTYxMSAxNC42NTU5IDM3Ljg5NSAxMy42NzcgMzguMDY4QzEyLjY5OCAzOC4yNDEgMTEuNzY0MiAzNy41ODc3IDExLjU5MTIgMzYuNjA4N0MxMS4zNzU3IDM1LjM4OTUgMTEuMjYzNSAzNC4xMzU5IDExLjI2MzUgMzIuODU3NkMxMS4yNjM1IDMxLjU3OTIgMTEuMzc1NyAzMC4zMjU2IDExLjU5MTIgMjkuMTA2NEMxMS43NjQyIDI4LjEyNzUgMTIuNjk4IDI3LjQ3NDEgMTMuNjc3IDI3LjY0NzJaIiBmaWxsPSJ1cmwoI3BhaW50MF9yYWRpYWxfMjYyMl8yODQ4KSIvPgo8cGF0aCBkPSJNMjMuMzg2MyAyOC43OTI1QzIzLjAyOTcgMjkuMTQ5MSAyMi44NTE0IDI5LjYxMjcgMjIuODUxNCAzMC4xODMyQzIyLjg1MTQgMzAuNzUzOCAyMy4wMjk3IDMxLjIxNzQgMjMuMzg2MyAzMS41NzRDMjMuNzQyOSAzMS45MzA2IDI0LjIwNjUgMzIuMTA4OSAyNC43NzcxIDMyLjEwODlMMjkuNjQ0NyAzMi4wNTU0TDI5LjY0NDcgMzMuNzY3MUwyNC43NzcxIDMzLjcxMzZDMjQuMjA2NSAzMy43MTM2IDIzLjc0MjkgMzMuODkxOSAyMy4zODYzIDM0LjI0ODVDMjMuMDI5NyAzNC42MDUxIDIyLjg1MTQgMzUuMDY4NyAyMi44NTE0IDM1LjYzOTJDMjIuODUxNCAzNi4yMDk4IDIzLjAyOTcgMzYuNjczNCAyMy4zODYzIDM3LjAzQzIzLjc0MjkgMzcuMzg2NiAyNC4yMDY1IDM3LjU2NDkgMjQuNzc3MSAzNy41NjQ5TDI5LjY0NDcgMzcuNTExNFYzOS43NThDMjkuNjQ0NyA0MC4yNTcyIDI5LjgyMyA0MC42ODUxIDMwLjE3OTYgNDEuMDQxN0MzMC41NzE4IDQxLjQzNCAzMS4wMTc2IDQxLjYzMDEgMzEuNTE2OCA0MS42MzAxSDMzLjk3NzRDMzYuMDQ1NiA0MS42MzAxIDM3LjgxMDggNDAuOTcwNCAzOS4yNzI5IDM5LjY1MUM0MC43MzQ5IDM4LjMzMTYgNDEuNTczIDM2LjY3MzQgNDEuNzg2OSAzNC42NzY0TDQ2LjU5MzggMzQuNjc2M0M0Ny4xNjQzIDM0LjY3NjMgNDcuNjI3OSAzNC40OTggNDcuOTg0NSAzNC4xNDE0QzQ4LjMwNTQgMzMuODIwNSA0OC40NjU5IDMzLjM3NDggNDguNDY1OSAzMi44MDQyQzQ4LjQ2NTkgMzIuMjMzNiA0OC4yODc2IDMxLjc3MDEgNDcuOTMxIDMxLjQxMzVDNDcuNTc0NCAzMS4wNTY5IDQ3LjExMDggMzAuODc4NiA0Ni41NDAzIDMwLjg3ODZMNDEuNzMzNCAzMC44Nzg2QzQxLjQ0ODEgMjguOTUzIDQwLjU5MjMgMjcuMzQ4MyAzOS4xNjU5IDI2LjA2NDVDMzcuNzc1MiAyNC44MTY0IDM2LjA0NTYgMjQuMTkyNCAzMy45Nzc0IDI0LjE5MjRMMzEuNTcwMyAyNC4yNDU4QzMxLjAzNTQgMjQuMjEwMiAzMC41NzE4IDI0LjM4ODUgMzAuMTc5NiAyNC43ODA3QzI5LjgyMyAyNS4xMzczIDI5LjY0NDcgMjUuNjAwOSAyOS42NDQ3IDI2LjE3MTVMMjkuNjQ0NyAyOC4zMTExTDI0LjcyMzYgMjguMzExMUMyNC4xNTMgMjguMzExMSAyMy43MDczIDI4LjQ3MTYgMjMuMzg2MyAyOC43OTI1WiIgZmlsbD0idXJsKCNwYWludDFfcmFkaWFsXzI2MjJfMjg0OCkiLz4KPHBhdGggZD0iTTEzLjA2MzYgOC44NDYxMlYzLjUyNDE3TDMuNjkwNTUgMTIuODk3Mkg5LjAxMjUxQzEwLjEyNDYgMTIuODk3MiAxMS4wNzc3IDEyLjUgMTEuODcyMSAxMS43MDU3QzEyLjY2NjQgMTAuOTExNCAxMy4wNjM2IDkuOTU4MTcgMTMuMDYzNiA4Ljg0NjEyWiIgZmlsbD0idXJsKCNwYWludDJfcmFkaWFsXzI2MjJfMjg0OCkiLz4KPC9nPgo8ZGVmcz4KPHJhZGlhbEdyYWRpZW50IGlkPSJwYWludDBfcmFkaWFsXzI2MjJfMjg0OCIgY3g9IjAiIGN5PSIwIiByPSIxIiBncmFkaWVudFVuaXRzPSJ1c2VyU3BhY2VPblVzZSIgZ3JhZGllbnRUcmFuc2Zvcm09InRyYW5zbGF0ZSg1Ljg3MTM0IDcuMTYyNzEpIHJvdGF0ZSg1My40MTI2KSBzY2FsZSg0MS43Njg1IDc1LjU0NDcpIj4KPHN0b3Agc3RvcC1jb2xvcj0iIzAxOTVGRiIvPgo8c3RvcCBvZmZzZXQ9IjEiIHN0b3AtY29sb3I9IiMxMTQ3RTkiLz4KPC9yYWRpYWxHcmFkaWVudD4KPHJhZGlhbEdyYWRpZW50IGlkPSJwYWludDFfcmFkaWFsXzI2MjJfMjg0OCIgY3g9IjAiIGN5PSIwIiByPSIxIiBncmFkaWVudFVuaXRzPSJ1c2VyU3BhY2VPblVzZSIgZ3JhZGllbnRUcmFuc2Zvcm09InRyYW5zbGF0ZSgyNi44MTc4IDI2LjgxNTYpIHJvdGF0ZSgzNC4yNDYxKSBzY2FsZSgyMS41ODQ1IDE4LjI5OTYpIj4KPHN0b3Agc3RvcC1jb2xvcj0iIzEzNDhGRiIvPgo8c3RvcCBvZmZzZXQ9IjEiIHN0b3AtY29sb3I9IiMwNjIzOEQiLz4KPC9yYWRpYWxHcmFkaWVudD4KPHJhZGlhbEdyYWRpZW50IGlkPSJwYWludDJfcmFkaWFsXzI2MjJfMjg0OCIgY3g9IjAiIGN5PSIwIiByPSIxIiBncmFkaWVudFVuaXRzPSJ1c2VyU3BhY2VPblVzZSIgZ3JhZGllbnRUcmFuc2Zvcm09InRyYW5zbGF0ZSg1LjE0MTk0IDQuOTM0MTkpIHJvdGF0ZSg0NSkgc2NhbGUoOS4yMzMzNyA4LjQxNDAyKSI+CjxzdG9wIHN0b3AtY29sb3I9IiMxMzQ4RkYiLz4KPHN0b3Agb2Zmc2V0PSIxIiBzdG9wLWNvbG9yPSIjMDYyMzhEIi8+CjwvcmFkaWFsR3JhZGllbnQ+CjxjbGlwUGF0aCBpZD0iY2xpcDBfMjYyMl8yODQ4Ij4KPHJlY3Qgd2lkdGg9IjQ4IiBoZWlnaHQ9IjQ4IiBmaWxsPSJ3aGl0ZSIgdHJhbnNmb3JtPSJ0cmFuc2xhdGUoMC41IDAuMDM0OTEyMSkiLz4KPC9jbGlwUGF0aD4KPC9kZWZzPgo8L3N2Zz4K;fontStyle=1;fontColor=#333333;" parent="1" vertex="1">
          <mxGeometry x="640.5" y="500" width="49" height="49" as="geometry" />
        </mxCell>
        <mxCell id="GHpy8DAtyEdUzNsid3nN-41" value="Fiori Custom Apps&#xa;and Extensions" style="shape=image;verticalLabelPosition=bottom;verticalAlign=top;imageAspect=0;aspect=fixed;image=data:image/svg+xml,PHN2ZyB3aWR0aD0iNDkiIGhlaWdodD0iNDkiIHZpZXdCb3g9IjAgMCA0OSA0OSIgZmlsbD0ibm9uZSIgeG1sbnM9Imh0dHA6Ly93d3cudzMub3JnLzIwMDAvc3ZnIj4KPGcgY2xpcC1wYXRoPSJ1cmwoI2NsaXAwXzI2MjJfMzI4MikiPgo8cGF0aCBmaWxsLXJ1bGU9ImV2ZW5vZGQiIGNsaXAtcnVsZT0iZXZlbm9kZCIgZD0iTTI0LjIzMjMgNC44MzQ5MUMxOC43NDk4IDQuODM0OTEgMTQuNjQ2IDEwLjE1MiAxNS4wMjUxIDE1LjE4ODZDMTUuMDgwNiAxNS45MjY2IDE0Ljc5MjYgMTYuNjQ4OSAxNC4yNDQ2IDE3LjE0NjJDMTMuNjk2NSAxNy42NDM0IDEyLjk0OTcgMTcuODYwMSAxMi4yMjA2IDE3LjczMzNDOS45MzQxIDE3LjMzNTYgOC4yNzMxMiAxNy45NDg0IDcuMTc2NTggMTguOTU3N0M2LjA0MjYzIDIwLjAwMTUgNS4zIDIxLjY2OSA1LjMgMjMuNzE0QzUuMyAyNS43MzM3IDUuOTAxMDcgMjcuMjIwMiA2Ljg0NzcyIDI4LjE5MTdDNy43ODE0OSAyOS4xNDk5IDkuMzEzMTQgMjkuODc1OCAxMS43MTg1IDI5Ljg3NThIMTcuNDAzOEMxOC43MjkzIDI5Ljg3NTggMTkuODAzOCAzMC45NTAzIDE5LjgwMzggMzIuMjc1OEMxOS44MDM4IDMzLjYwMTMgMTguNzI5MyAzNC42NzU4IDE3LjQwMzggMzQuNjc1OEgxMS43MTg1QzguMzA5NTMgMzQuNjc1OCA1LjQzMTk0IDMzLjYxNjUgMy40MTAwNCAzMS41NDE2QzEuNDAxMDMgMjkuNDggMC41IDI2LjY4NTcgMC41IDIzLjcxNEMwLjUgMjAuNTIwOCAxLjY3MDM0IDE3LjUwMjEgMy45MjU4NSAxNS40MjZDNS42MjMzMiAxMy44NjM2IDcuODIwNjQgMTIuOTQyMyAxMC4zMTU5IDEyLjgyNDVDMTEuMTU2MyA2LjMxMTAxIDE2LjU4NTEgMC4wMzQ5MTIxIDI0LjIzMjMgMC4wMzQ5MTIxQzMwLjI1ODEgMC4wMzQ5MTIxIDM0Ljc3NzIgMy40MDE0MyAzNy4yMjU2IDguNDMxMUM0MS42ODQ3IDguNDY3NTcgNDUuODQyIDExLjA3NTEgNDcuMjQ5MiAxNi4xMTc2QzQ3LjYwNTUgMTcuMzk0MyA0Ni44NTkzIDE4LjcxODEgNDUuNTgyNiAxOS4wNzQ0QzQ0LjMwNTkgMTkuNDMwNyA0Mi45ODIxIDE4LjY4NDYgNDIuNjI1OSAxNy40MDc5QzQxLjc1NDkgMTQuMjg3MSAzOS4wOTg2IDEyLjg0NTcgMzYuMDU2OSAxMy4zMTM4QzM0LjkzMTggMTMuNDg2OSAzMy44Mzk4IDEyLjg0NTggMzMuNDQyNyAxMS43Nzg5QzMxLjgwMzEgNy4zNzQ0NyAyOC41NTggNC44MzQ5MSAyNC4yMzIzIDQuODM0OTFaIiBmaWxsPSJ1cmwoI3BhaW50MF9yYWRpYWxfMjYyMl8zMjgyKSIvPgo8cGF0aCBmaWxsLXJ1bGU9ImV2ZW5vZGQiIGNsaXAtcnVsZT0iZXZlbm9kZCIgZD0iTTI3LjYxMDIgMjIuNzY4N0gyOC43NjdWMjQuMDM0OUgzMC4wMzA0VjIwLjI1NDFIMjguNzY3VjIxLjUwMjVIMjcuNjEwMlYyMC4yNTQxSDI2LjM0NjhWMjQuMDM0OUgyNy42MTAyVjIyLjc2ODdaTTMxLjY5MjggMjQuMDM0OUgzMi45NTcyVjIxLjUwODFIMzQuMDcwMVYyMC4yNTQxSDMwLjU3OTlWMjEuNTA4MUgzMS42OTI4VjI0LjAzNDlaTTM2LjczMDMgMjMuNTA1TDM1Ljg2MDQgMjIuMTYwM1YyNC4wMzQ5SDM0LjYyNDFWMjAuMjU0MUgzNS45NDE3TDM2Ljc1MjggMjEuNTgxOUwzNy41NjIgMjAuMjU0MUgzOC44ODA1VjI0LjAzNDlIMzcuNjIxOFYyMi4xNjAzTDM2Ljc1MjggMjMuNTA1SDM2LjczMDNaTTQyLjQ3MTIgMjIuNzg0Nkg0MC42OTM5VjIwLjI1NDFIMzkuNDI5NlYyNC4wMzQ5SDQyLjQ3MTJWMjIuNzg0NlpNMjYuMzA1NiA0NS43ODI5TDI0LjQ5ODQgMjUuNTE0Nkg0NC4zNjQ5TDQyLjU1NDkgNDUuNzgwMUwzNC40MTk1IDQ4LjAzNDlMMjYuMzA1NiA0NS43ODI5Wk0yOS41NzEyIDMxLjU1NzNMMzAuMDUyNCAzNi45NTU3SDM0LjQyMzhIMzQuNDM2OUgzNi44MzY2TDM2LjYwOTUgMzkuNDk1NUwzNC40MjM4IDQwLjA4NTJMMzIuMjQgMzkuNDk3NEwzMi4wOTk4IDM3LjkzNUgzMS4wNDAySDMwLjEzMjhMMzAuNDA3NSA0MS4wMTAzTDM0LjQyMTkgNDIuMTI0MUwzNC40MzA0IDQyLjEyMTNMMzguNDQxIDQxLjAxMDNMMzguNDcgNDAuNjc5NUwzOC45MzA3IDM1LjUyMzJMMzguOTc4MyAzNC45OTcxSDM4LjQ1MDRIMzQuNDM2OUgzNC40MjM4SDMxLjg0NDdMMzEuNjY1MyAzMi45OTA4SDM0LjQzMDRIMzQuNDM2OUgzOS4xNTY4SDM5LjE2MzRMMzkuMjAyNiAzMi41NTA3TDM5LjI5MjMgMzEuNTU3M0wzOS4zMzkgMzEuMDMyMkgzNC40MzY5SDM0LjQzMDRIMjkuNTI0NUwyOS41NzEyIDMxLjU1NzNaIiBmaWxsPSJ1cmwoI3BhaW50MV9yYWRpYWxfMjYyMl8zMjgyKSIvPgo8L2c+CjxkZWZzPgo8cmFkaWFsR3JhZGllbnQgaWQ9InBhaW50MF9yYWRpYWxfMjYyMl8zMjgyIiBjeD0iMCIgY3k9IjAiIHI9IjEiIGdyYWRpZW50VW5pdHM9InVzZXJTcGFjZU9uVXNlIiBncmFkaWVudFRyYW5zZm9ybT0idHJhbnNsYXRlKDcuNzYzMzcgNS4xMjEyMSkgcm90YXRlKDM2Ljc5MDgpIHNjYWxlKDQwLjQ5MzMgNzMuMzkzNykiPgo8c3RvcCBzdG9wLWNvbG9yPSIjMDE5NUZGIi8+CjxzdG9wIG9mZnNldD0iMSIgc3RvcC1jb2xvcj0iIzExNDdFOSIvPgo8L3JhZGlhbEdyYWRpZW50Pgo8cmFkaWFsR3JhZGllbnQgaWQ9InBhaW50MV9yYWRpYWxfMjYyMl8zMjgyIiBjeD0iMCIgY3k9IjAiIHI9IjEiIGdyYWRpZW50VW5pdHM9InVzZXJTcGFjZU9uVXNlIiBncmFkaWVudFRyYW5zZm9ybT0idHJhbnNsYXRlKDI3LjU3NDcgMjQuNDMzMikgcm90YXRlKDU0LjQzMDkpIHNjYWxlKDIzLjc5MDMgMjAuNTE1MSkiPgo8c3RvcCBzdG9wLWNvbG9yPSIjMTM0OEZGIi8+CjxzdG9wIG9mZnNldD0iMSIgc3RvcC1jb2xvcj0iIzA2MjM4RCIvPgo8L3JhZGlhbEdyYWRpZW50Pgo8Y2xpcFBhdGggaWQ9ImNsaXAwXzI2MjJfMzI4MiI+CjxyZWN0IHdpZHRoPSI0OCIgaGVpZ2h0PSI0OCIgZmlsbD0id2hpdGUiIHRyYW5zZm9ybT0idHJhbnNsYXRlKDAuNSAwLjAzNDkxMjEpIi8+CjwvY2xpcFBhdGg+CjwvZGVmcz4KPC9zdmc+Cg==;align=left;fontStyle=1" parent="1" vertex="1">
          <mxGeometry x="697.5" y="228" width="39" height="39" as="geometry" />
        </mxCell>
        <mxCell id="GHpy8DAtyEdUzNsid3nN-43" value="Fiori Standard Apps" style="shape=image;verticalLabelPosition=bottom;verticalAlign=top;imageAspect=0;aspect=fixed;image=data:image/svg+xml,PHN2ZyBpZD0ic2FwLWN1c3RvbWVyLW9yZGVyLXNvdXJjaW5nIiB4bWxucz0iaHR0cDovL3d3dy53My5vcmcvMjAwMC9zdmciIHZpZXdCb3g9IjAgMCA1NiA1NiI+PGRlZnM+PHN0eWxlPi5jbHMtMXtmaWxsOiMwNTNiNzA7fS5jbHMtMntmaWxsOiMwYTZlZDE7fTwvc3R5bGU+PC9kZWZzPjx0aXRsZT5zYXAtY3VzdG9tZXItb3JkZXItc291cmNpbmc8L3RpdGxlPjxwYXRoIGNsYXNzPSJjbHMtMSIgZD0iTTQwLDMwLjk1OEExMC41MjEsMTAuNTIxLDAsMSwwLDUwLjUsNDEuNDc5LDEwLjUxMiwxMC41MTIsMCwwLDAsNDAsMzAuOTU4Wk00MCw0OWE3LjUyMSw3LjUyMSwwLDEsMSw3LjUtNy41MjFBNy41MjEsNy41MjEsMCwwLDEsNDAsNDlaIi8+PHBvbHlnb24gY2xhc3M9ImNscy0xIiBwb2ludHM9IjQ0LjAxNiAzNi40MDQgMzguMDcgNDIuNDcyIDM1Ljk3OSA0MC41OTYgMzMuOTk3IDQyLjY5MiAzOC4wNyA0Ni41NTMgNDUuOTk3IDM4LjUgNDQuMDE2IDM2LjQwNCIvPjxwYXRoIGNsYXNzPSJjbHMtMiIgZD0iTTI0Ljk3OCw3LjU3Niw0MS4yLDE1LjQyN1YyOC45MTFhMTIuNjU1LDEyLjY1NSwwLDAsMSwzLjMuNzM5VjEzLjZMMjUsNCwxOC44MjgsNi45NjYsMjIuNDgyLDguOFoiLz48cGF0aCBjbGFzcz0iY2xzLTIiIGQ9Ik0yNy40NjQsNDMuNzE2LDI1LDQ0LjkxMSw4LjgsMzcuMDZWMTUuNDI3bDYuNDktMy4wNTNMMzEuNDcsMjAuMjI1djkuMTU5bDMuMy0xLjU3VjE4LjMwNkwxNS4yMjgsOC44LDUuNSwxMy42djI1LjNMMjUsNDguNDg3bDMuNC0xLjY3M0ExMi41NzcsMTIuNTc3LDAsMCwxLDI3LjQ2NCw0My43MTZaIi8+PHBvbHlnb24gY2xhc3M9ImNscy0yIiBwb2ludHM9IjEyLjAzMiAzNS4wNTQgMjEuNjkyIDM5LjY3NyAyMS42OTIgMzUuNzUxIDEyLjAzMiAzMS4wNDEgMTIuMDMyIDM1LjA1NCIvPjwvc3ZnPg==;fontColor=#333333;fontStyle=1" parent="1" vertex="1">
          <mxGeometry x="550" y="224" width="43" height="43" as="geometry" />
        </mxCell>
        <mxCell id="GHpy8DAtyEdUzNsid3nN-44" value="" style="shape=image;verticalLabelPosition=bottom;verticalAlign=top;imageAspect=0;aspect=fixed;image=data:image/svg+xml,PHN2ZyB3aWR0aD0iNDkiIGhlaWdodD0iNDkiIHZpZXdCb3g9IjAgMCA0OSA0OSIgZmlsbD0ibm9uZSIgeG1sbnM9Imh0dHA6Ly93d3cudzMub3JnLzIwMDAvc3ZnIj4KPGcgY2xpcC1wYXRoPSJ1cmwoI2NsaXAwXzI2MjJfNDAwNikiPgo8bWFzayBpZD0ibWFzazBfMjYyMl80MDA2IiBzdHlsZT0ibWFzay10eXBlOmx1bWluYW5jZSIgbWFza1VuaXRzPSJ1c2VyU3BhY2VPblVzZSIgeD0iMSIgeT0iMCIgd2lkdGg9IjQ3IiBoZWlnaHQ9IjQ5Ij4KPHBhdGggZD0iTTIzLjk2NzIgMC4wMzQ4NTExQzIzLjk2NzIgMC4wMzQ4NTExIDIzLjk2MTQgMi4wMzI2MSAyOS4xODM4IDUuMjA1NDFDMzkuMzIzMyAxMS4zNjI5IDM5LjI4ODggMTcuMDEyNSAzOS4yODg4IDE4LjE5ODFDMzkuMjg4OCAyMy4yMzIzIDM0LjA0OTEgMjYuNDg2NyAzMS42MTg0IDIzLjg1MjVDMzEuNjE4NCAyMy44NTI1IDM0LjAwNCAyMi4wODIyIDM0LjAwNCAxOS4zNTk3QzM0LjAwNCAxOS4zNTk3IDMyLjI1NDkgMjAuNTExNyAzMS4zNCAyMC43MTEzQzMxLjM0IDIwLjcxMTMgMzIuNTMyMyAxOC42MDQxIDMxLjk3NjUgMTQuOTA3MkMzMS45NzY1IDE0LjkwNzIgMzEuMDIyMiAxNi43NzUzIDI3Ljk2MDggMTguMjg2NEMyNy45NjA4IDE4LjI4NjQgMjkuMTUzMSAxNS42MjI0IDI4LjA0MDUgMTMuMDc4NEMyOC4wNDA1IDEzLjA3ODQgMjguMjc4NSAxNi4yNTg4IDIxLjA0MjEgMTkuNjM4MUMxMy44MDU2IDIzLjAxNzMgMTYuMDMyOCAyNi4zOTc0IDE2LjAzMjggMjYuMzk3NEMxNi4wMzI4IDI2LjM5NzQgMTcuNDcyOCAyNC44NjE0IDE5LjkyNDYgMjUuOTQxNEMyMy4yMzc2IDI3LjM5NjggMjEuODk4NCAzMy4yMzc0IDE2LjU3MDQgMzMuMjM3NEMxMS4zODY0IDMzLjIzNzQgNy45NzkzNSAyNy41OTY1IDcuOTc5MzUgMjMuMTkxQzcuOTc5MzUgMjEuMzY3IDguMTc3MSAxOC4wMTk1IDExLjQ2NyAxNC4zMzQxQzE0LjA4NCAxMS40MDMyIDE3LjMxMTUgOS44NTY2MSAxOC4wMDM3IDYuNjE1NjVDMTQuNDIgOS45MzgyMSA3Ljk1MDU1IDEyLjEwNzggNC4xMDU3NSAxNy43OTQ5QzAuNjQ5NzQ5IDIyLjkwMyAxLjc3Mjk1IDI5LjY2MDUgMi4zOTQwNyAzMS43Mzg5QzUuMjE0NTUgNDEuMTY1MSAxMy45NTM0IDQ4LjAzNDkgMjQuMjk2NSA0OC4wMzQ5QzM2LjkyMTQgNDguMDM0OSA0Ny4yODY1IDM3LjkzMjggNDcuMjg2NSAyNS4zMDc4QzQ3LjI4NjUgNi4xOTYxMyAyOS4xMTc2IDQuMTY4NjEgMjMuOTY3MiAwLjAzNDg1MTFaTTIwLjkwODYgMjMuNDMxQzIwLjUyNDYgMjMuNTIwMyAyMC4xNTUgMjMuMzU5IDE5LjU0MDYgMjMuMTcyOEMxOC45NjQ2IDIyLjk5ODEgMTguNzYyMSAyMy4wMzA3IDE4Ljc2MjEgMjMuMDMwN0MxOS4xNTAzIDIyLjc2OTUgMTkuNTU2NyAyMi41MzY2IDE5Ljk3ODQgMjIuMzMzN0MyMC41ODg5IDIyLjA1MjUgMjEuMTExMiAyMi4wMzgxIDIxLjM1MzEgMjIuNTk2OEMyMS41MTI1IDIyLjk2NDUgMjEuMjIzNSAyMy4zNTcxIDIwLjkwODYgMjMuNDMxWiIgZmlsbD0id2hpdGUiLz4KPC9tYXNrPgo8ZyBtYXNrPSJ1cmwoI21hc2swXzI2MjJfNDAwNikiPgo8cGF0aCBkPSJNMjMuOTY3MiAwLjAzNDg1MTFDMjMuOTY3MiAwLjAzNDg1MTEgMjMuOTYxNCAyLjAzMjYxIDI5LjE4MzggNS4yMDU0MUMzOS4zMjMzIDExLjM2MjkgMzkuMjg4OCAxNy4wMTI1IDM5LjI4ODggMTguMTk4MUMzOS4yODg4IDIzLjIzMjMgMzQuMDQ5MSAyNi40ODY3IDMxLjYxODQgMjMuODUyNUMzMS42MTg0IDIzLjg1MjUgMzQuMDA0IDIyLjA4MjIgMzQuMDA0IDE5LjM1OTdDMzQuMDA0IDE5LjM1OTcgMzIuMjU0OSAyMC41MTE3IDMxLjM0IDIwLjcxMTNDMzEuMzQgMjAuNzExMyAzMi41MzIzIDE4LjYwNDEgMzEuOTc2NSAxNC45MDcyQzMxLjk3NjUgMTQuOTA3MiAzMS4wMjIyIDE2Ljc3NTMgMjcuOTYwOCAxOC4yODY0QzI3Ljk2MDggMTguMjg2NCAyOS4xNTMxIDE1LjYyMjQgMjguMDQwNSAxMy4wNzg0QzI4LjA0MDUgMTMuMDc4NCAyOC4yNzg1IDE2LjI1ODggMjEuMDQyMSAxOS42MzgxQzEzLjgwNTYgMjMuMDE3MyAxNi4wMzI4IDI2LjM5NzQgMTYuMDMyOCAyNi4zOTc0QzE2LjAzMjggMjYuMzk3NCAxNy40NzI4IDI0Ljg2MTQgMTkuOTI0NiAyNS45NDE0QzIzLjIzNzYgMjcuMzk2OCAyMS44OTg0IDMzLjIzNzQgMTYuNTcwNCAzMy4yMzc0QzExLjM4NjQgMzMuMjM3NCA3Ljk3OTM1IDI3LjU5NjUgNy45NzkzNSAyMy4xOTFDNy45NzkzNSAyMS4zNjcgOC4xNzcxIDE4LjAxOTUgMTEuNDY3IDE0LjMzNDFDMTQuMDg0IDExLjQwMzIgMTcuMzExNSA5Ljg1NjYxIDE4LjAwMzcgNi42MTU2NUMxNC40MiA5LjkzODIxIDcuOTUwNTUgMTIuMTA3OCA0LjEwNTc1IDE3Ljc5NDlDMC42NDk3NDkgMjIuOTAzIDEuNzcyOTUgMjkuNjYwNSAyLjM5NDA3IDMxLjczODlDNS4yMTQ1NSA0MS4xNjUxIDEzLjk1MzQgNDguMDM0OSAyNC4yOTY1IDQ4LjAzNDlDMzYuOTIxNCA0OC4wMzQ5IDQ3LjI4NjUgMzcuOTMyOCA0Ny4yODY1IDI1LjMwNzhDNDcuMjg2NSA2LjE5NjEzIDI5LjExNzYgNC4xNjg2MSAyMy45NjcyIDAuMDM0ODUxMVoiIGZpbGw9InVybCgjcGFpbnQwX3JhZGlhbF8yNjIyXzQwMDYpIi8+CjxwYXRoIG9wYWNpdHk9IjAuNiIgZD0iTTIyLjY1NDcgMjMuOTA4OEMyNi42Nzk5IDIxLjgzNDMgMjcuOTcwMiAxOC4yNzk0IDI3Ljk3MDIgMTguMjc5NEMyNy45NzAyIDE4LjI3OTQgMjkuMTYyNSAxNS42MTQ0IDI4LjA0ODkgMTMuMDY3NkMyOC4wNDg5IDEzLjA2NzYgMjguMjg3IDE2LjI1MDkgMjEuMDQwOSAxOS42MzNDMTMuNzk0OCAyMy4wMTUxIDE2LjAyNzggMjYuMzk3MiAxNi4wMjc4IDI2LjM5NzJDMTYuNDA3IDI2LjA1OTIgMTYuNzY4IDI1LjgzMDggMTcuNDgzMiAyNS42Mzg4QzE4LjY3OTMgMjUuMzE4MSAyMC41NTQyIDI0Ljk5NDYgMjIuNjU0NyAyMy45MDg4WiIgZmlsbD0idXJsKCNwYWludDFfcmFkaWFsXzI2MjJfNDAwNikiLz4KPHBhdGggb3BhY2l0eT0iMC40IiBkPSJNMjIuODYyMSAyNS4zNzg2QzI1Ljk3MjUgMjUuMzc4NiAyOS41NzE1IDIzLjkzMjggMzEuMzUyMyAyMC43MDM0QzMxLjYzMDcgMjAuMTk5NCAzMS44Nzg0IDE5LjM4MDUgMzIuMDAyMyAxOC42MDk2QzMyLjE5NDMgMTcuMzgwOCAzMi4yMTgzIDE2LjQ2NjkgMzEuOTkxNyAxNC44MDcxQzMxLjk5MTcgMTQuODA3MSAzMS40MDIzIDE2LjQ1OTIgMjcuOTcwMyAxOC4yNzU1QzI2LjcyMjMgMTguOTM1MSAyNS4xMjc3IDE5LjU5NDYgMjMuMDE1NyAyMC4yMzU5QzE0LjgzMjcgMjIuNzE5NCAxNi4wMzI3IDI2LjM5MzMgMTYuMDMyNyAyNi4zOTMzQzE3LjMyMTkgMjUuNTQzNyAxNy4zMjk2IDI1LjM3ODYgMjIuODYyMSAyNS4zNzg2WiIgZmlsbD0idXJsKCNwYWludDJfcmFkaWFsXzI2MjJfNDAwNikiLz4KPHBhdGggb3BhY2l0eT0iMC4yIiBkPSJNMjIuODYyMiAyNS4zNzg1QzI1LjcyMiAyNS4zNzg1IDI5LjYxIDI1LjUzOTggMzEuNjI5OCAyMy44NDI1QzMyLjg2ODIgMjIuODA0OCAzMy45OTkxIDIxLjQzMjkgMzQuMDIwMiAxOS4zNDJDMzQuMDIwMiAxOS4zNDIgMzIuMzI1OCAyMC40NjA0IDMxLjM1MjQgMjAuNzAwNEMzMC4wMDg0IDIxLjAzMjYgMjcuNTgwNSAyMS41NDMzIDI1LjM2MjkgMjEuNDE3NkMxNy44MzU2IDIwLjk5MDQgMTYuMDMyNyAyNi4zODk0IDE2LjAzMjcgMjYuMzg5NEMxNy4wNzA1IDI1LjQzNzEgMTguMzMzOCAyNS4zNzg1IDIyLjg2MjIgMjUuMzc4NVoiIGZpbGw9InVybCgjcGFpbnQzX3JhZGlhbF8yNjIyXzQwMDYpIi8+CjxwYXRoIG9wYWNpdHk9IjAuNCIgZD0iTTIyLjY1NDcgMjMuOTA4OUMyNi42OCAyMS44MzQ0IDI3Ljk3MDMgMTguMjc5NSAyNy45NzAzIDE4LjI3OTVDMjYuNzIyMyAxOC45MzkgMjUuMTI3NyAxOS41OTg1IDIzLjAxNTcgMjAuMjM5OEMxNC44MzI3IDIyLjcyMzMgMTYuMDMyNyAyNi4zOTcyIDE2LjAzMjcgMjYuMzk3MkMxNi40MTE5IDI2LjA1OTMgMTYuNzcyOCAyNS44MzA4IDE3LjQ4OCAyNS42Mzg4QzE4LjY3OTQgMjUuMzE4MiAyMC41NTQzIDI0Ljk5NDcgMjIuNjU0NyAyMy45MDg5WiIgZmlsbD0idXJsKCNwYWludDRfcmFkaWFsXzI2MjJfNDAwNikiLz4KPHBhdGggZD0iTTE3LjQ5MTkgMjUuNjM4N0MxOC42ODMzIDI1LjMxODEgMjAuNTU4MiAyNC45OTE3IDIyLjY1ODYgMjMuOTEwN0MyMy44NzUyIDIzLjI4MzMgMjQuOTcyNyAyMi40NDggMjUuOTAxNSAyMS40NDI2QzI1LjcyMSAyMS40NDI2IDI1LjU0MTUgMjEuNDM1OCAyNS4zNjI5IDIxLjQyNjJDMTcuODM1NiAyMC45OTkgMTYuMDMyNyAyNi4zOTgxIDE2LjAzMjcgMjYuMzk4MUMxNi4zNTk3IDI2LjA4ODEgMTYuNzU0IDI1Ljg1ODEgMTcuMTg0NyAyNS43MjYxQzE3LjI4MTcgMjUuNjk4MiAxNy4zNzk2IDI1LjY2NjYgMTcuNDkxOSAyNS42Mzg3WiIgZmlsbD0idXJsKCNwYWludDVfcmFkaWFsXzI2MjJfNDAwNikiLz4KPHBhdGggb3BhY2l0eT0iMC40IiBkPSJNNDcuMjg2NCAyNS4zMDc1QzQ3LjI4NjQgMjEuNDk2MyA0Ni41NjI2IDE4LjM2NTggNDUuMzY2NCAxNS43NjAzQzQ1LjQ4MDcgMTYuMTA1IDQ3Ljc5NTIgMjMuMzQ0MyA0Mi4wMDA3IDI5LjEzNkMzOC42OTI1IDMyLjQ0NDIgMzMuMDY0IDMzLjU4OTQgMjguNTM4NiAyOS45NzIyQzI4LjUzODYgMjkuOTcyMiAyOS4xMTQ2IDM5LjA1MTggMTguMzU2OCA0MC4zOTFDMTEuMzMyNSA0MS4yNjU2IDUuODA0ODUgMzYuNzkwMSAzLjQwNjc3IDMxLjA4OTZDMS43MzgyOSAyNy4xMjQ4IDEuNTgyNzcgMjIuNTY3NyAzLjQ5MzE3IDE4LjgwMTZDMC43OTQ2MSAyMy43NTgxIDEuODEzMTcgMjkuNzk0NiAyLjM5Mzk3IDMxLjczODZDNS4yMTQ0NSA0MS4xNjQ4IDEzLjk1MzMgNDguMDM0NiAyNC4yOTY0IDQ4LjAzNDZDMzYuOTIxMyA0OC4wMzQ2IDQ3LjI4NjQgMzcuOTMyNSA0Ny4yODY0IDI1LjMwNzVaIiBmaWxsPSJ1cmwoI3BhaW50Nl9yYWRpYWxfMjYyMl80MDA2KSIvPgo8cGF0aCBvcGFjaXR5PSIwLjYiIGQ9Ik00NC45NjUzIDM1LjI3NjNDNDMuNzczIDM1LjU5ODkgMzQuNDI4MyAzNy44MjIyIDI4LjUzNjggMjkuOTcyM0MyOC41MzY4IDI5Ljk3MjMgMzEuMjgwNSA0MC42MTM5IDE5LjYxODQgNDcuNTU0N0MyMS4xNTcyIDQ3Ljg3NDggMjIuNzI0OCA0OC4wMzU3IDI0LjI5NjUgNDguMDM0N0MzMy4zMzY4IDQ4LjAzNDcgNDEuMjE4NCA0Mi44NTA3IDQ0Ljk2NTMgMzUuMjc2M1oiIGZpbGw9InVybCgjcGFpbnQ3X3JhZGlhbF8yNjIyXzQwMDYpIi8+CjxwYXRoIG9wYWNpdHk9IjAuNyIgZD0iTTM5Ljg5MTYgNDIuMDA0QzMyLjU4NTEgMzguMjQyNyAyOC41MzY3IDI5Ljk3MjMgMjguNTM2NyAyOS45NzIzQzMxLjc5MzEgMzcuOTE0NCAzMC4zODE5IDQ0LjExMjEgMjguOTIwNyA0Ny41NzI5QzMzLjAxNDUgNDYuNzQ0MyAzNi44MDY0IDQ0LjgxOTUgMzkuODkxNiA0Mi4wMDRaIiBmaWxsPSJ1cmwoI3BhaW50OF9yYWRpYWxfMjYyMl80MDA2KSIvPgo8L2c+CjwvZz4KPGRlZnM+CjxyYWRpYWxHcmFkaWVudCBpZD0icGFpbnQwX3JhZGlhbF8yNjIyXzQwMDYiIGN4PSIwIiBjeT0iMCIgcj0iMSIgZ3JhZGllbnRVbml0cz0idXNlclNwYWNlT25Vc2UiIGdyYWRpZW50VHJhbnNmb3JtPSJ0cmFuc2xhdGUoOC43ODAwNiA3LjA4MjY3KSByb3RhdGUoNDYuODAyOCkgc2NhbGUoNDYuMDk1MyA4Ni45MjY1KSI+CjxzdG9wIHN0b3AtY29sb3I9IiMwMTk1RkYiLz4KPHN0b3Agb2Zmc2V0PSIxIiBzdG9wLWNvbG9yPSIjMTE0N0U5Ii8+CjwvcmFkaWFsR3JhZGllbnQ+CjxyYWRpYWxHcmFkaWVudCBpZD0icGFpbnQxX3JhZGlhbF8yNjIyXzQwMDYiIGN4PSIwIiBjeT0iMCIgcj0iMSIgZ3JhZGllbnRVbml0cz0idXNlclNwYWNlT25Vc2UiIGdyYWRpZW50VHJhbnNmb3JtPSJ0cmFuc2xhdGUoMTcuNzQzNSAxNS4wNjgxKSByb3RhdGUoNDYuMTE0KSBzY2FsZSgxMi45NTIgMTUuNzA3MikiPgo8c3RvcCBzdG9wLWNvbG9yPSIjMDBCQkZGIi8+CjxzdG9wIG9mZnNldD0iMSIgc3RvcC1jb2xvcj0iIzAwOEJGRiIvPgo8L3JhZGlhbEdyYWRpZW50Pgo8cmFkaWFsR3JhZGllbnQgaWQ9InBhaW50Ml9yYWRpYWxfMjYyMl80MDA2IiBjeD0iMCIgY3k9IjAiIHI9IjEiIGdyYWRpZW50VW5pdHM9InVzZXJTcGFjZU9uVXNlIiBncmFkaWVudFRyYW5zZm9ybT0idHJhbnNsYXRlKDE4LjU0NjQgMTYuNTQ2KSByb3RhdGUoMzUuNjAwOCkgc2NhbGUoMTMuOTM4MiAxNi4wMTM2KSI+CjxzdG9wIHN0b3AtY29sb3I9IiMwMEJCRkYiLz4KPHN0b3Agb2Zmc2V0PSIxIiBzdG9wLWNvbG9yPSIjMDA4QkZGIi8+CjwvcmFkaWFsR3JhZGllbnQ+CjxyYWRpYWxHcmFkaWVudCBpZD0icGFpbnQzX3JhZGlhbF8yNjIyXzQwMDYiIGN4PSIwIiBjeT0iMCIgcj0iMSIgZ3JhZGllbnRVbml0cz0idXNlclNwYWNlT25Vc2UiIGdyYWRpZW50VHJhbnNmb3JtPSJ0cmFuc2xhdGUoMTguODk1MyAyMC4zOTk3KSByb3RhdGUoMjEuMzk0OCkgc2NhbGUoMTMuNTI5IDExLjE1MzgpIj4KPHN0b3Agc3RvcC1jb2xvcj0iIzAwQkJGRiIvPgo8c3RvcCBvZmZzZXQ9IjEiIHN0b3AtY29sb3I9IiMwMDhCRkYiLz4KPC9yYWRpYWxHcmFkaWVudD4KPHJhZGlhbEdyYWRpZW50IGlkPSJwYWludDRfcmFkaWFsXzI2MjJfNDAwNiIgY3g9IjAiIGN5PSIwIiByPSIxIiBncmFkaWVudFVuaXRzPSJ1c2VyU3BhY2VPblVzZSIgZ3JhZGllbnRUcmFuc2Zvcm09InRyYW5zbGF0ZSgxNy44ODA2IDE5LjQ5NzgpIHJvdGF0ZSgzNC4wNzkxKSBzY2FsZSgxMC4xNDU1IDExLjQyOTEpIj4KPHN0b3Agc3RvcC1jb2xvcj0iIzAwQkJGRiIvPgo8c3RvcCBvZmZzZXQ9IjEiIHN0b3AtY29sb3I9IiMwMDhCRkYiLz4KPC9yYWRpYWxHcmFkaWVudD4KPHJhZGlhbEdyYWRpZW50IGlkPSJwYWludDVfcmFkaWFsXzI2MjJfNDAwNiIgY3g9IjAiIGN5PSIwIiByPSIxIiBncmFkaWVudFVuaXRzPSJ1c2VyU3BhY2VPblVzZSIgZ3JhZGllbnRUcmFuc2Zvcm09InRyYW5zbGF0ZSgxNy42MDMzIDIyLjE1Mikgcm90YXRlKDI2Ljg1MDEpIHNjYWxlKDcuNzQ2MjggNy41NzY3KSI+CjxzdG9wIHN0b3AtY29sb3I9IiMwMEJCRkYiLz4KPHN0b3Agb2Zmc2V0PSIxIiBzdG9wLWNvbG9yPSIjMDA4QkZGIi8+CjwvcmFkaWFsR3JhZGllbnQ+CjxyYWRpYWxHcmFkaWVudCBpZD0icGFpbnQ2X3JhZGlhbF8yNjIyXzQwMDYiIGN4PSIwIiBjeT0iMCIgcj0iMSIgZ3JhZGllbnRVbml0cz0idXNlclNwYWNlT25Vc2UiIGdyYWRpZW50VHJhbnNmb3JtPSJ0cmFuc2xhdGUoOC43NzA0OCAyMC42MTU1KSByb3RhdGUoMzUuMzA1OCkgc2NhbGUoMzguODk5MiAzMy40MzcxKSI+CjxzdG9wIHN0b3AtY29sb3I9IiMxMzQ4RkYiLz4KPHN0b3Agb2Zmc2V0PSIxIiBzdG9wLWNvbG9yPSIjMDYyMzhEIi8+CjwvcmFkaWFsR3JhZGllbnQ+CjxyYWRpYWxHcmFkaWVudCBpZD0icGFpbnQ3X3JhZGlhbF8yNjIyXzQwMDYiIGN4PSIwIiBjeT0iMCIgcj0iMSIgZ3JhZGllbnRVbml0cz0idXNlclNwYWNlT25Vc2UiIGdyYWRpZW50VHJhbnNmb3JtPSJ0cmFuc2xhdGUoMjMuNTQ5IDMyLjYyNDQpIHJvdGF0ZSgzNS43NzUyKSBzY2FsZSgyMS42MyAzOC43NzAxKSI+CjxzdG9wIHN0b3AtY29sb3I9IiMwMTk1RkYiLz4KPHN0b3Agb2Zmc2V0PSIxIiBzdG9wLWNvbG9yPSIjMTE0N0U5Ii8+CjwvcmFkaWFsR3JhZGllbnQ+CjxyYWRpYWxHcmFkaWVudCBpZD0icGFpbnQ4X3JhZGlhbF8yNjIyXzQwMDYiIGN4PSIwIiBjeT0iMCIgcj0iMSIgZ3JhZGllbnRVbml0cz0idXNlclNwYWNlT25Vc2UiIGdyYWRpZW50VHJhbnNmb3JtPSJ0cmFuc2xhdGUoMzAuMzQzOCAzMi42MTM4KSByb3RhdGUoNTcuMTcyMykgc2NhbGUoMTQuNjY4MyAxNi4yMTkxKSI+CjxzdG9wIHN0b3AtY29sb3I9IiMwMEJCRkYiLz4KPHN0b3Agb2Zmc2V0PSIxIiBzdG9wLWNvbG9yPSIjMDA4QkZGIi8+CjwvcmFkaWFsR3JhZGllbnQ+CjxjbGlwUGF0aCBpZD0iY2xpcDBfMjYyMl80MDA2Ij4KPHJlY3Qgd2lkdGg9IjQ4IiBoZWlnaHQ9IjQ4IiBmaWxsPSJ3aGl0ZSIgdHJhbnNmb3JtPSJ0cmFuc2xhdGUoMC41IDAuMDM0OTEyMSkiLz4KPC9jbGlwUGF0aD4KPC9kZWZzPgo8L3N2Zz4K;" parent="1" vertex="1">
          <mxGeometry x="752" y="226" width="39" height="39" as="geometry" />
        </mxCell>
        <mxCell id="GHpy8DAtyEdUzNsid3nN-46" value="&lt;span style=&quot;font-weight: normal;&quot;&gt;for example SAPUI5&lt;/span&gt;" style="text;html=1;strokeColor=none;fillColor=none;align=left;verticalAlign=middle;whiteSpace=wrap;rounded=0;fontStyle=1;fontSize=12;fontColor=#808080;" parent="1" vertex="1">
          <mxGeometry x="698" y="297" width="114" height="30" as="geometry" />
        </mxCell>
        <mxCell id="GHpy8DAtyEdUzNsid3nN-47" value="" style="rounded=1;whiteSpace=wrap;html=1;labelPosition=center;verticalLabelPosition=top;align=center;verticalAlign=bottom;dashed=1;fillColor=none;fillStyle=auto;" parent="1" vertex="1">
          <mxGeometry x="500" y="217" width="330" height="110" as="geometry" />
        </mxCell>
        <mxCell id="GHpy8DAtyEdUzNsid3nN-48" value="" style="endArrow=block;html=1;strokeColor=#354A5F;bendable=1;rounded=1;endFill=1;endSize=3;sourcePerimeterSpacing=3;startSize=2;startArrow=block;startFill=1;targetPerimeterSpacing=4;jumpStyle=gap;fixDash=1;jumpSize=0;entryX=0.182;entryY=0.003;entryDx=0;entryDy=0;exitX=0.182;exitY=0.664;exitDx=0;exitDy=0;exitPerimeter=0;entryPerimeter=0;" parent="1" edge="1">
          <mxGeometry width="50" height="50" relative="1" as="geometry">
            <mxPoint x="571.16" y="289.71" as="sourcePoint" />
            <mxPoint x="571.16" y="348.00000000000006" as="targetPoint" />
          </mxGeometry>
        </mxCell>
        <mxCell id="GHpy8DAtyEdUzNsid3nN-50" value="" style="endArrow=block;html=1;strokeColor=#354A5F;bendable=1;rounded=1;endFill=1;endSize=3;exitX=0.5;exitY=1;exitDx=0;exitDy=0;" parent="1" source="GHpy8DAtyEdUzNsid3nN-15" edge="1">
          <mxGeometry width="50" height="50" relative="1" as="geometry">
            <mxPoint x="120" y="137.5" as="sourcePoint" />
            <mxPoint x="115" y="160" as="targetPoint" />
            <Array as="points" />
          </mxGeometry>
        </mxCell>
        <mxCell id="GHpy8DAtyEdUzNsid3nN-55" style="edgeStyle=orthogonalEdgeStyle;rounded=1;orthogonalLoop=1;jettySize=auto;html=1;fontSize=18;strokeColor=#354A5F;entryX=0.5;entryY=1;entryDx=0;entryDy=0;dashed=1;" parent="1" target="GHpy8DAtyEdUzNsid3nN-14" edge="1">
          <mxGeometry relative="1" as="geometry">
            <mxPoint x="530" y="599.9999999999999" as="targetPoint" />
            <mxPoint x="410" y="579.9999999999999" as="sourcePoint" />
            <Array as="points">
              <mxPoint x="410" y="600" />
              <mxPoint x="115" y="600" />
            </Array>
          </mxGeometry>
        </mxCell>
        <mxCell id="GHpy8DAtyEdUzNsid3nN-59" value="2MFA TOTP" style="edgeLabel;html=1;align=center;verticalAlign=middle;resizable=0;points=[];" parent="GHpy8DAtyEdUzNsid3nN-55" vertex="1" connectable="0">
          <mxGeometry x="0.0625" relative="1" as="geometry">
            <mxPoint as="offset" />
          </mxGeometry>
        </mxCell>
        <mxCell id="GHpy8DAtyEdUzNsid3nN-57" value="" style="endArrow=block;html=1;strokeColor=#354A5F;bendable=1;rounded=1;endFill=1;endSize=3;" parent="1" edge="1">
          <mxGeometry width="50" height="50" relative="1" as="geometry">
            <mxPoint x="435" y="273.8" as="sourcePoint" />
            <mxPoint x="500" y="274" as="targetPoint" />
            <Array as="points" />
          </mxGeometry>
        </mxCell>
        <mxCell id="GHpy8DAtyEdUzNsid3nN-60" value="" style="endArrow=block;html=1;strokeColor=#354A5F;bendable=1;rounded=1;endFill=1;endSize=3;" parent="1" edge="1">
          <mxGeometry width="50" height="50" relative="1" as="geometry">
            <mxPoint x="686.75" y="524.26" as="sourcePoint" />
            <mxPoint x="747.25" y="524" as="targetPoint" />
            <Array as="points" />
          </mxGeometry>
        </mxCell>
        <mxCell id="GHpy8DAtyEdUzNsid3nN-61" value="" style="rounded=1;whiteSpace=wrap;html=1;strokeColor=#0070F2;strokeWidth=1;arcSize=5;fillColor=#FFFFFF;perimeterSpacing=0;labelPosition=center;verticalLabelPosition=top;align=center;verticalAlign=bottom;" parent="1" vertex="1">
          <mxGeometry x="1026" y="360" width="160" height="220" as="geometry" />
        </mxCell>
        <mxCell id="GHpy8DAtyEdUzNsid3nN-62" value="Cloud Connector" style="shape=image;verticalLabelPosition=bottom;verticalAlign=top;imageAspect=0;aspect=fixed;image=data:image/svg+xml,PHN2ZyBpZD0iY2xvdWRjb25uZWN0b3IiIHhtbG5zPSJodHRwOi8vd3d3LnczLm9yZy8yMDAwL3N2ZyIgdmlld0JveD0iMCAwIDU2IDU2Ij48ZGVmcz48c3R5bGU+LmNscy0xe2ZpbGw6IzBhNmVkMTt9LmNscy0ye2ZpbGw6IzA1M2I3MDt9PC9zdHlsZT48L2RlZnM+PHRpdGxlPmNsb3VkY29ubmVjdG9yPC90aXRsZT48cGF0aCBjbGFzcz0iY2xzLTIiIGQ9Ik0xOS4xMDksN2E2LjQ1NSw2LjQ1NSwwLDAsMSw1Ljg2NCw0LjAzM2wxLjMwNywzLjI5TDI5LjMxLDEyLjVhMy45MjIsMy45MjIsMCwwLDEsMi4wNDMtLjU5MSwzLjk4OCwzLjk4OCwwLDAsMSwzLjkxNCwzLjI0OWwuMjg4LDEuNTI5LDEuNDE1LjY0NmE1LjM1MSw1LjM1MSwwLDAsMSwzLDQuNjdINDNhOC4zNTUsOC4zNTUsMCwwLDAtNC43ODUtNy40QTYuOTQxLDYuOTQxLDAsMCwwLDI3Ljc2Miw5LjkyOCw5LjQ1Miw5LjQ1MiwwLDAsMCwxOS4wNTUsNEM4LjcwNSw0LjU0OCw5LjgsMTQuNjIxLDkuOCwxNC42MjFBOC4zODcsOC4zODcsMCwwLDAsMTIuNDEsMzAuOTg2SDE5di0zSDEyLjQxYTUuMzg3LDUuMzg3LDAsMCwxLTEuNjc1LTEwLjUxNWwyLjMwOC0uNzU5TDEyLjc4MSwxNC4zYTguMSw4LjEsMCwwLDEsMS41LTUuMjg0QTYuNSw2LjUsMCwwLDEsMTkuMTA5LDdaIi8+PHBhdGggY2xhc3M9ImNscy0xIiBkPSJNNTIsNTAuMTI1LDUwLjMxMiw1MmwtNS45MDYtNS44MTJMNDQuNTk0LDQ2bC0xLjc4MiwxLjY4OGE3Ljc4Myw3Ljc4MywwLDAsMS01LjM0MywyLjM0Myw3LjA1Miw3LjA1MiwwLDAsMS01LjI1LTIuMzQzTDI5Ljc4MSw0NS4yNWwtNC4zMTItNC4xMjVhNy42NjcsNy42NjcsMCwwLDEtMi40MzgtNS41NzgsNy4zOCw3LjM4LDAsMCwxLDIuNDM4LTUuNDg1bDEuMTI1LTEuMjE4TDE5LDIxLjA2MiwyMC45NjksMTlsNy41OTMsNy43ODEsMS4yMTktMS4yMTlhNi4xNjEsNi4xNjEsMCwwLDEsMi40MzgtMS43ODEsNy43NDYsNy43NDYsMCwwLDEsMi45MDYtLjU2Miw4LjEsOC4xLDAsMCwxLDUuNjI1LDIuMzQzbDQuMjE5LDQuNXYuMDk0bDIuNDM3LDIuNDM4YTcuMTU3LDcuMTU3LDAsMCwxLDAsMTAuNTk0bC0xLjEyNSwxLjEyNFpNMjYuMDMxLDM1LjVhNC43NTUsNC43NTUsMCwwLDAsMS41LDMuNDY5bDIuMTU3LDIuMTU2TDQwLjc1LDMwLjA2MiwzOC41LDI3LjYyNWE0LjYsNC42LDAsMCwwLTMuMzc1LTEuNDA2LDMuODY1LDMuODY1LDAsMCwwLTMuMDk0LDEuMzEybC00LjQwNiw0LjY4OEE0LjA4Miw0LjA4MiwwLDAsMCwyNi4wMzEsMzUuNVptMTkuMzEzLDUuNTMxYTMuOTEzLDMuOTEzLDAsMCwwLDEuNDA2LTMuMDkzLDQuMzUxLDQuMzUxLDAsMCwwLTEuMzEyLTMuMTg4bC0yLjYyNi0yLjUzMUwzMS45MzgsNDMuMTg4bDIuMzQzLDIuMzQzaC4wOTRsLjA5NC4wOTRhMy44MTQsMy44MTQsMCwwLDAsMywxLjQwNiw0LjQ3NCw0LjQ3NCwwLDAsMCwzLjE4Ny0xLjVaIi8+PC9zdmc+;fontStyle=1;fontColor=#333333;" parent="1" vertex="1">
          <mxGeometry x="1081.5" y="497" width="56" height="56" as="geometry" />
        </mxCell>
        <mxCell id="GHpy8DAtyEdUzNsid3nN-67" value="" style="endArrow=none;html=1;strokeColor=#354A5F;bendable=1;rounded=1;endFill=0;endSize=3;exitX=0;exitY=0.5;exitDx=0;exitDy=0;" parent="1" source="GHpy8DAtyEdUzNsid3nN-69" edge="1">
          <mxGeometry width="50" height="50" relative="1" as="geometry">
            <mxPoint x="798" y="523.9" as="sourcePoint" />
            <mxPoint x="803" y="524" as="targetPoint" />
            <Array as="points" />
          </mxGeometry>
        </mxCell>
        <mxCell id="GHpy8DAtyEdUzNsid3nN-68" value="" style="endArrow=block;html=1;strokeColor=#354A5F;bendable=1;rounded=1;endFill=1;endSize=3;" parent="1" source="GHpy8DAtyEdUzNsid3nN-69" target="GHpy8DAtyEdUzNsid3nN-62" edge="1">
          <mxGeometry width="50" height="50" relative="1" as="geometry">
            <mxPoint x="844" y="523.9" as="sourcePoint" />
            <mxPoint x="969" y="524" as="targetPoint" />
            <Array as="points" />
          </mxGeometry>
        </mxCell>
        <mxCell id="GHpy8DAtyEdUzNsid3nN-69" value="&lt;font color=&quot;#ffffff&quot; style=&quot;font-size: 9px;&quot;&gt;Secure Tunnel&lt;/font&gt;" style="rounded=1;whiteSpace=wrap;html=1;arcSize=30;absoluteArcSize=1;strokeColor=#354A5F;fillColor=#354A5F;imageVerticalAlign=top;imageAlign=center;imageWidth=24;imageHeight=16;" parent="1" vertex="1">
          <mxGeometry x="967" y="519" width="67" height="10" as="geometry" />
        </mxCell>
        <mxCell id="GHpy8DAtyEdUzNsid3nN-73" value="" style="shape=image;verticalLabelPosition=bottom;verticalAlign=top;imageAspect=0;aspect=fixed;image=data:image/svg+xml,PHN2ZyB4bWxucz0iaHR0cDovL3d3dy53My5vcmcvMjAwMC9zdmciIGlkPSJMYXllcl8xIiBkYXRhLW5hbWU9IkxheWVyIDEiIHZpZXdCb3g9IjQ1LjA4IDQ1LjgyIDExNC45MiAyMy40OSI+CiAgPGRlZnM+CiAgICA8bGluZWFyR3JhZGllbnQgaWQ9ImxpbmVhci1ncmFkaWVudCIgeDE9IjY4LjgzIiB4Mj0iNjguODMiIHkxPSI3MC4xOCIgeTI9IjQ2LjY5IiBncmFkaWVudFRyYW5zZm9ybT0ibWF0cml4KDEgMCAwIC0xIDAgMTE2KSIgZ3JhZGllbnRVbml0cz0idXNlclNwYWNlT25Vc2UiPgogICAgICA8c3RvcCBvZmZzZXQ9IjAiIHN0b3AtY29sb3I9IiMwMGFlZWYiLz4KICAgICAgPHN0b3Agb2Zmc2V0PSIuMjEiIHN0b3AtY29sb3I9IiMwMDk3ZGMiLz4KICAgICAgPHN0b3Agb2Zmc2V0PSIuNTIiIHN0b3AtY29sb3I9IiMwMDdjYzUiLz4KICAgICAgPHN0b3Agb2Zmc2V0PSIuNzkiIHN0b3AtY29sb3I9IiMwMDZjYjgiLz4KICAgICAgPHN0b3Agb2Zmc2V0PSIxIiBzdG9wLWNvbG9yPSIjMDA2NmIzIi8+CiAgICA8L2xpbmVhckdyYWRpZW50PgogICAgPGNsaXBQYXRoIGlkPSJjbGlwLXBhdGgiPgogICAgICA8cGF0aCBkPSJNNDUuMDggNDUuODJoMTE0Ljg4djIzLjQ5SDQ1LjA4eiIgc3R5bGU9ImZpbGw6bm9uZSIvPgogICAgPC9jbGlwUGF0aD4KICAgIDxzdHlsZT4KICAgICAgLmNscy0ze2ZpbGw6IzAwYTFmYn0KICAgIDwvc3R5bGU+CiAgPC9kZWZzPgogIDxnIHN0eWxlPSJjbGlwLXBhdGg6dXJsKCNjbGlwLXBhdGgpIj4KICAgIDxwYXRoIGQ9Ik05MC42IDYxLjU5YTIuMjUgMi4yNSAwIDAgMCAuNDUgMS4xOSAyLjY1IDIuNjUgMCAwIDAgMi4wOS43MSA0LjU3IDQuNTcgMCAwIDAgMS40My0uMTkgMS4zNSAxLjM1IDAgMCAwIDEtMS4zNSAxIDEgMCAwIDAtLjUyLS45IDUuMzYgNS4zNiAwIDAgMC0xLjYxLS41NWwtMS4yNi0uMjlhOCA4IDAgMCAxLTIuNTctLjkgMi44NyAyLjg3IDAgMCAxLTEuMTktMi41MiAzLjMyIDMuMzIgMCAwIDEgMS4xNy0yLjYxIDQuOTEgNC45MSAwIDAgMSAzLjM5LTEgNS4zIDUuMyAwIDAgMSAzLjE5IDFBMy40NyAzLjQ3IDAgMCAxIDk3LjU5IDU3aC0yLjM2YTEuNjQgMS42NCAwIDAgMC0xLTEuNSAzLjI2IDMuMjYgMCAwIDAtMS40NS0uMjggMi43IDIuNyAwIDAgMC0xLjU0LjM4IDEuMjMgMS4yMyAwIDAgMC0uNTcgMS4wNyAxIDEgMCAwIDAgLjU3LjkyIDUuOCA1LjggMCAwIDAgMS41NC40OGwyIC40N2E1LjI1IDUuMjUgMCAwIDEgMiAuODYgMi44NyAyLjg3IDAgMCAxIDEgMi4zNyAzLjM3IDMuMzcgMCAwIDEtMS4yMyAyLjY3IDUuMjMgNS4yMyAwIDAgMS0zLjUgMS4wNiA1Ljc0IDUuNzQgMCAwIDEtMy42My0xIDMuNDUgMy40NSAwIDAgMS0xLjMzLTIuODhoMi41MVptMTAuNzItOC40M2gxLjg3bC0yLjY2IDEyaC0xLjg1Wm0xMC41OSA5LjU1aC0xLjN2Mi40N2gtMi4yMXYtMi40N2gtNC41NnYtMmw0LjIzLTdoMi41NHY3LjE4aDEuM1pNMTA4LjQgNjF2LTVsLTIuODggNC45NGgyLjg4Wm01LjE1IDQuMjV2LTEySDExNnY0LjU2aDQuNjRWNTMuM2gyLjQ3djExLjkzaC0yLjQ3di01LjMySDExNnY1LjMyaC0yLjQ3Wk0xMjkgNTMuM2gyLjgzTDEzNiA2NS4yM2gtMi43bC0uNzktMi40NWgtNC4zOWwtLjgxIDIuNDVoLTIuNjFabS0uMTcgNy40NGgzLjA3TDEzMC4zNSA1NlptOC42NS03LjQ0aDIuNjFsNC43MyA4LjMyVjUzLjNoMi4zM3YxMS45M2gtMi40OWwtNC44Ny04LjQ4djguNDhoLTIuMzNWNTMuM1ptMTUuNDQgMGgyLjgzTDE2MCA2NS4yM2gtMi43MWwtLjc4LTIuNDVoLTQuNGwtLjggMi40NWgtMi42MlptLS4xNiA3LjQ0aDMuMDZMMTU0LjMgNTZaIiBjbGFzcz0iY2xzLTMiLz4KICAgIDxwYXRoIGQ9Ik00NS4wOCA2OS4zMWgyNGwyMy40OS0yMy40OUg0NS4wOFoiIHN0eWxlPSJmaWxsOnVybCgjbGluZWFyLWdyYWRpZW50KTtmaWxsLXJ1bGU6ZXZlbm9kZCIvPgogICAgPHBhdGggZD0iTTczLjI2IDUwLjUyaC00LjY4djExbC00LjA5LTExaC00TDU3IDU5Ljc0Yy0uMzgtMi4zNS0yLjgxLTMuMTYtNC43MS0zLjc1LTEuMjYtLjQxLTIuNTktMS0yLjU5LTEuNjdzLjcyLTEgMi4xMi0xYTcuNDQgNy40NCAwIDAgMSAzLjQyLjkzbDEuNjEtMi44M2ExMi42MiAxMi42MiAwIDAgMC01LjI5LTEuMjYgNi4zOCA2LjM4IDAgMCAwLTQuNjggMS43MSA0IDQgMCAwIDAtMS4xMiAyLjczIDMuNjQgMy42NCAwIDAgMCAxLjYxIDMuMjYgMTEuMTggMTEuMTggMCAwIDAgMy4xOSAxLjQ1YzEuMzEuNCAyLjM1Ljc2IDIuMzUgMS40OWExLjE2IDEuMTYgMCAwIDEtLjMxLjc0IDIuMTIgMi4xMiAwIDAgMS0xLjUuNDcgNi40OSA2LjQ5IDAgMCAxLTMuODctMS4xMWwtMS40OSAyLjlhMTAuMTcgMTAuMTcgMCAwIDAgNS4xMSAxLjMzaC40M2E2LjM4IDYuMzggMCAwIDAgNC0xLjI4IDEuMjIgMS4yMiAwIDAgMCAuMTYtLjE0bC0uMTkuOTJoNGwuNzUtMS44NWE3LjYyIDcuNjIgMCAwIDAgMi41LjQgOCA4IDAgMCAwIDIuNDUtLjM4bC41IDEuODFoNy4xdi00LjEzaDEuNTJjMy42NiAwIDUuODMtMS44NiA1LjgzLTUtLjA2LTMuNDgtMi4xOC00Ljk2LTYuNjQtNC45NlpNNjIuNDcgNjBhNC4xNCA0LjE0IDAgMCAxLTEuNS0uMjZMNjIuNDUgNTVsMS40NSA0LjY4YTQgNCAwIDAgMS0xLjQzLjMyWm0xMS4wNy0yLjY4aC0xdi0zLjgzaDFjMS4zOCAwIDIuNDcuNDUgMi40NyAxLjg1cy0xLjA5IDEuOTMtMi40NyAxLjkzWiIgc3R5bGU9ImZpbGw6I2ZmZjtmaWxsLXJ1bGU6ZXZlbm9kZCIvPgogIDwvZz4KPC9zdmc+;" parent="1" vertex="1">
          <mxGeometry x="1049" y="415" width="115" height="23" as="geometry" />
        </mxCell>
        <mxCell id="GHpy8DAtyEdUzNsid3nN-75" value="SAP RISE" style="text;html=1;strokeColor=none;fillColor=none;align=left;verticalAlign=middle;whiteSpace=wrap;rounded=0;fontStyle=1;fontSize=15;fontColor=#333333;" parent="1" vertex="1">
          <mxGeometry x="1070.5" y="335" width="72" height="30" as="geometry" />
        </mxCell>
        <mxCell id="GHpy8DAtyEdUzNsid3nN-77" value="" style="shape=image;verticalLabelPosition=bottom;verticalAlign=top;imageAspect=0;aspect=fixed;image=data:image/svg+xml,PHN2ZyB4bWxucz0iaHR0cDovL3d3dy53My5vcmcvMjAwMC9zdmciIGRhdGEtbmFtZT0iTGF5ZXIgMSIgdmlld0JveD0iMCAwIDQxMi4zOCAyMDQiPgogIDxkZWZzPgogICAgPGxpbmVhckdyYWRpZW50IGlkPSJhIiB4MT0iMjA2LjE5IiB4Mj0iMjA2LjE5IiB5Mj0iMjA0IiBncmFkaWVudFVuaXRzPSJ1c2VyU3BhY2VPblVzZSI+CiAgICAgIDxzdG9wIG9mZnNldD0iMCIgc3RvcC1jb2xvcj0iIzAwYjhmMSIvPgogICAgICA8c3RvcCBvZmZzZXQ9Ii4wMiIgc3RvcC1jb2xvcj0iIzAxYjZmMCIvPgogICAgICA8c3RvcCBvZmZzZXQ9Ii4zMSIgc3RvcC1jb2xvcj0iIzBkOTBkOSIvPgogICAgICA8c3RvcCBvZmZzZXQ9Ii41OCIgc3RvcC1jb2xvcj0iIzE3NzVjOCIvPgogICAgICA8c3RvcCBvZmZzZXQ9Ii44MiIgc3RvcC1jb2xvcj0iIzFjNjViZiIvPgogICAgICA8c3RvcCBvZmZzZXQ9IjEiIHN0b3AtY29sb3I9IiMxZTVmYmIiLz4KICAgIDwvbGluZWFyR3JhZGllbnQ+CiAgPC9kZWZzPgogIDxwYXRoIGQ9Ik0wIDIwNGgyMDguNDFMNDEyLjM4IDBIMHYyMDQiIHN0eWxlPSJmaWxsOnVybCgjYSk7ZmlsbC1ydWxlOmV2ZW5vZGQiLz4KICA8cGF0aCBkPSJNMjQ0LjczIDM4LjM2aC00MC42djk2LjUybC0zNS40Ni05Ni41NWgtMzUuMTZsLTMwLjI3IDgwLjcyQzEwMCA5OC43IDc5IDkxLjY3IDYyLjQgODYuNCA1MS40NiA4Mi44OSAzOS44NSA3Ny43MiA0MCA3MmMuMDktNC42OCA2LjIzLTkgMTguMzgtOC4zOCA4LjE3LjQzIDE1LjM3IDEuMDkgMjkuNzEgOGwxNC4xLTI0LjU1Qzg5LjA2IDQwLjQyIDcxIDM2LjIxIDU2LjE3IDM2LjE5aC0uMDljLTE3LjI4IDAtMzEuNjggNS42LTQwLjYgMTQuODNBMzQuMjMgMzQuMjMgMCAwIDAgNS43NyA3NC43QzUuNTQgODcuMTUgMTAuMTEgOTYgMTkuNzEgMTAzYzguMSA1Ljk0IDE4LjQ2IDkuNzkgMjcuNiAxMi42MiAxMS4yNyAzLjQ5IDIwLjQ3IDYuNTMgMjAuMzYgMTNBOS41NyA5LjU3IDAgMCAxIDY1IDEzNWMtMi44MSAyLjktNy4xMyA0LTEzLjA5IDQuMS0xMS40OS4yNC0yMC0xLjU2LTMzLjYxLTkuNTlMNS43NyAxNTQuNDJhOTMuNzcgOTMuNzcgMCAwIDAgNDYgMTIuMjJoMi4xMWMxNC4yNC0uMjUgMjUuNzQtNC4zMSAzNC45Mi0xMS43MS41My0uNDEgMS0uODQgMS40OS0xLjI4bC00LjEyIDEwLjg1SDEyM2w2LjE5LTE4LjgyYTY3LjQ2IDY3LjQ2IDAgMCAwIDIxLjY4IDMuNDMgNjguMzMgNjguMzMgMCAwIDAgMjEuMTYtMy4yNWw2IDE4LjY0aDYwLjE0di0zOWgxMy4xMWMzMS43MSAwIDUwLjQ2LTE2LjE1IDUwLjQ2LTQzLjIgMC0zMC4xMS0xOC4yMi00My45NC01Ny4wMS00My45NFpNMTUwLjkxIDEyMWEzNi45MyAzNi45MyAwIDAgMS0xMy0yLjI4bDEyLjg3LTQwLjU5aC4yMmwxMi42NSA0MC43MWEzOC41IDM4LjUgMCAwIDEtMTIuNzQgMi4xNlptOTYuMi0yMy4zM2gtOC45NFY2NC45MWg4Ljk0YzExLjkzIDAgMjEuNDQgNCAyMS40NCAxNi4xNCAwIDEyLjYtOS41MSAxNi41Ny0yMS40NCAxNi41NyIgc3R5bGU9ImZpbGw6I2ZmZjtmaWxsLXJ1bGU6ZXZlbm9kZCIvPgo8L3N2Zz4=;" parent="1" vertex="1">
          <mxGeometry x="1069" y="379.5" width="47.47" height="23.5" as="geometry" />
        </mxCell>
        <mxCell id="GHpy8DAtyEdUzNsid3nN-78" value="CAR" style="text;html=1;strokeColor=none;fillColor=none;align=left;verticalAlign=middle;whiteSpace=wrap;rounded=0;fontStyle=1;fontSize=15;fontColor=#333333;" parent="1" vertex="1">
          <mxGeometry x="1110" y="380.5" width="33" height="30" as="geometry" />
        </mxCell>
        <mxCell id="GHpy8DAtyEdUzNsid3nN-87" value="" style="endArrow=block;html=1;strokeColor=#354A5F;bendable=1;rounded=1;endFill=1;endSize=3;entryX=0.5;entryY=1;entryDx=0;entryDy=0;" parent="1" source="GHpy8DAtyEdUzNsid3nN-88" target="GHpy8DAtyEdUzNsid3nN-73" edge="1">
          <mxGeometry width="50" height="50" relative="1" as="geometry">
            <mxPoint x="1106" y="497" as="sourcePoint" />
            <mxPoint x="1232" y="498" as="targetPoint" />
            <Array as="points" />
          </mxGeometry>
        </mxCell>
        <mxCell id="GHpy8DAtyEdUzNsid3nN-89" value="" style="endArrow=block;html=1;strokeColor=#354A5F;bendable=1;rounded=1;endFill=1;endSize=3;entryX=0.5;entryY=1;entryDx=0;entryDy=0;" parent="1" target="GHpy8DAtyEdUzNsid3nN-88" edge="1">
          <mxGeometry width="50" height="50" relative="1" as="geometry">
            <mxPoint x="1106" y="497" as="sourcePoint" />
            <mxPoint x="1107" y="370" as="targetPoint" />
            <Array as="points" />
          </mxGeometry>
        </mxCell>
        <mxCell id="GHpy8DAtyEdUzNsid3nN-88" value="&lt;font color=&quot;#ffffff&quot; style=&quot;font-size: 9px;&quot;&gt;OData&lt;/font&gt;" style="rounded=1;whiteSpace=wrap;html=1;arcSize=30;absoluteArcSize=1;strokeColor=#0a6ed1;fillColor=#0A6ED1;imageVerticalAlign=top;imageAlign=center;imageWidth=24;imageHeight=16;" parent="1" vertex="1">
          <mxGeometry x="1085" y="459" width="43" height="15" as="geometry" />
        </mxCell>
        <mxCell id="GHpy8DAtyEdUzNsid3nN-90" value="" style="endArrow=block;html=1;strokeColor=#354A5F;bendable=1;rounded=1;endFill=1;endSize=3;entryX=0.5;entryY=0;entryDx=0;entryDy=0;exitX=0.5;exitY=1.019;exitDx=0;exitDy=0;exitPerimeter=0;" parent="1" source="GHpy8DAtyEdUzNsid3nN-25" target="GHpy8DAtyEdUzNsid3nN-40" edge="1">
          <mxGeometry width="50" height="50" relative="1" as="geometry">
            <mxPoint x="660" y="480.26" as="sourcePoint" />
            <mxPoint x="720.5" y="480" as="targetPoint" />
            <Array as="points" />
          </mxGeometry>
        </mxCell>
        <mxCell id="GHpy8DAtyEdUzNsid3nN-91" value="" style="shape=image;verticalLabelPosition=bottom;verticalAlign=top;imageAspect=0;aspect=fixed;image=data:image/svg+xml,PHN2ZyB3aWR0aD0iNDkiIGhlaWdodD0iNDkiIHZpZXdCb3g9IjAgMCA0OSA0OSIgZmlsbD0ibm9uZSIgeG1sbnM9Imh0dHA6Ly93d3cudzMub3JnLzIwMDAvc3ZnIj4KPGcgY2xpcC1wYXRoPSJ1cmwoI2NsaXAwXzI2MjJfMjg3MCkiPgo8cGF0aCBmaWxsLXJ1bGU9ImV2ZW5vZGQiIGNsaXAtcnVsZT0iZXZlbm9kZCIgZD0iTTE5LjU0OTQgMi40NjI4OUMxMy42ODkxIDIuNDYyODkgOS41MjUzMyA3LjIzMzI0IDguODMxNjIgMTIuMjEzNkM2Ljk0NjUyIDEyLjMyNTcgNS4yODE5NyAxMy4wMzQyIDMuOTg5MTggMTQuMjI0MkMyLjI0MDIzIDE1LjgzNCAxLjMzNjkxIDE4LjE3MDYgMS4zMzY5MSAyMC42MzQ4QzEuMzM2OTEgMjIuOTI0OCAyLjAzMTU3IDI1LjA4OTMgMy41OTExIDI2LjY4OTdDNS4xNjExNSAyOC4zMDA5IDcuMzkwMTcgMjkuMTE3IDEwLjAxNDcgMjkuMTE3SDE0LjUwMTdDMTQuNTEyNSAyOS4xMDQ0IDE0LjUyMzQgMjkuMDkxNyAxNC41MzQzIDI5LjA3OTJMMTUuMzg1MyAyNy45NjY0TDE1LjQyNTYgMjcuOTE4MUMxNi4xNSAyNy4wNDg3IDE3LjIzMzQgMjYuNDI2NiAxOC41NTQyIDI2LjQyNjZDMTkuMzYzMSAyNi40MjY2IDIwLjEzNzggMjYuNjYzNyAyMC44MDQgMjcuMTEzQzIwLjg4NDcgMjcuMDcwMSAyMC45NjU5IDI3LjAyODMgMjEuMDQ3NiAyNi45ODc0TDIxLjA2NDUgMjYuNzQxNEwyMS4wODgzIDI2LjU5ODhDMjEuMjI4NyAyNS43NTY0IDIxLjYxMDMgMjQuOTQzMiAyMi4yNjk1IDI0LjI4NEMyMi45NTI5IDIzLjYwMDYgMjMuOTM1IDIzLjA2MiAyNS4xNDYxIDIzLjA2MkgyNi41ODgxQzI3LjYyMzggMjMuMDYyIDI4LjY3NDYgMjMuNDQyMSAyOS40NjY0IDI0LjI3ODhDMzAuMTU0IDI0LjkyNjQgMzAuNjEyNiAyNS44MTE3IDMwLjY3ODYgMjYuODM1OEMzMC43NzczIDI2Ljg4MDIgMzAuODc1NSAyNi45MjU5IDMwLjk3MzIgMjYuOTczTDMxLjA2OTIgMjYuOTA2MkwzMS4xNTU5IDI2Ljg1NDJDMzEuMzMyNyAyNi43NDgxIDMxLjU0MTUgMjYuNjM2OSAzMS43NzkgMjYuNTM3OUwzMS43NjI1IDI2LjQ0OTRMMzEuNzc4MiAyNi4xMjk4QzMxLjgwMjEgMjUuNjQ0IDMxLjk0MzQgMjUuMTEwOCAzMi4yOTA3IDI0LjYyOEMzMi42MzczIDI0LjE0NiAzMy4wOTYzIDIzLjg0MzUgMzMuNTQ0NiAyMy42NjU3TDMzLjY1OTMgMjMuNjIwM0wzMy44MTAxIDIzLjU4MTVDMzMuODIwNyAyMy41MzQzIDMzLjgzMTcgMjMuNDg3MiAzMy44NDMzIDIzLjQ0MDNMMzMuNzM3MSAyMy4zMzM4TDMzLjcwNTggMjMuMjk5M0MzMy4yNDY2IDIyLjc5MjUgMzMuMDk4NiAyMi4xNzc2IDMzLjAzNTYgMjEuODZMMzIuOTg4NyAyMS42MjMyTDMzLjAwMDYgMjEuMzgyMUMzMy4wMjc4IDIwLjgyNzkgMzMuMjE3MSAyMC4xODUgMzMuNzIwOSAxOS42NjI1TDM0LjMxMjIgMTguOTYzNEwzNC4zNCAxOC45MzMxQzM0Ljg0MDkgMTguMzg4OSAzNS41NjgxIDE4LjAxNzcgMzYuNDMwNCAxOC4wNjAxQzM2Ljk1ODQgMTguMDg2MSAzNy40NTY1IDE4LjI2NTcgMzcuODc3IDE4LjU4MDVDMzcuOTMxIDE4LjU1NTEgMzcuOTg1NCAxOC41MzA0IDM4LjA0IDE4LjUwNjNMMzguMDU5IDE4LjM0NjNMMzguMDc5MSAxOC4yNTRDMzguMDkyOCAxOC4xOTA4IDM4LjEwODcgMTguMTI4IDM4LjEyNjcgMTguMDY1N0MzNy42OTAxIDEzLjEwMDkgMzMuOTg2MyA5LjM4MjU0IDI5LjU4MjMgOC45NjY1MUMyNy43MDIgNS4wNzgxNiAyNC4yMTE1IDIuNDYyODkgMTkuNTQ5NCAyLjQ2Mjg5WiIgZmlsbD0idXJsKCNwYWludDBfcmFkaWFsXzI2MjJfMjg3MCkiLz4KPHBhdGggZmlsbC1ydWxlPSJldmVub2RkIiBjbGlwLXJ1bGU9ImV2ZW5vZGQiIGQ9Ik00Ny42MzE3IDI2LjAxMTdDNDcuOTUzIDI2LjE3NzMgNDguMTA0OSAyNi40Mzk0IDQ4LjA4NzIgMjYuNzk4TDQ4LjA4MjggMjYuODg3Nkw0Ny44MTIzIDI3LjgxNzlDNDcuNzAzNiAyOC4yMDIgNDcuNDU0OSAyOC4zODQ0IDQ3LjA2NjQgMjguMzY1M0w0Ni45NzY4IDI4LjM2MDlMNDUuNTUzNCAyOC4wNjYxQzQ1LjI1NjUgMjguNjIwNyA0NC43OTc1IDI5LjEyMjMgNDQuMTc2MiAyOS41NzFMNDQuNjM5MSAzMS4xMjE1QzQ0LjY2NiAzMS4xODI4IDQ0LjY3NzMgMzEuMjU4MiA0NC42NzI5IDMxLjM0NzlDNDQuNjU1MiAzMS43MDY1IDQ0LjUwOSAzMS45Mzg5IDQ0LjIzNDEgMzIuMDQ1Mkw0My4zNjA0IDMyLjQ1MTVDNDMuMjM3OSAzMi41MDU0IDQzLjE0NjggMzIuNTMwOSA0My4wODcgMzIuNTI3OUM0Mi44MTgxIDMyLjUxNDcgNDIuNjE1NSAzMi4zNjk5IDQyLjQ3OTMgMzIuMDkzNkw0MS43MDA1IDMwLjU3MjRDNDEuNTQ5NiAzMC41OTUgNDEuMzgzOCAzMC42MTY3IDQxLjIwMyAzMC42Mzc4TDQwLjcwOTkgMzAuNjEzNUw0MC4yNjE3IDMwLjU5MTRDNDAuMTQzNiAzMC41NTU3IDQwLjAxMDYgMzAuNTE5MiAzOS44NjI3IDMwLjQ4MTlMMzguODkxMSAzMS45NjE4QzM4LjcyOTkgMzIuMTkzNSAzOC41Mjk4IDMyLjMwMzUgMzguMjkwNyAzMi4yOTE3QzM4LjE0MTMgMzIuMjg0NCAzOC4wMzgyIDMyLjI0OTMgMzcuOTgxNCAzMi4xODY2TDM3LjE0OTYgMzEuNzQxM0MzNi44ODY1IDMxLjYwODUgMzYuNzYyMyAzMS4zOTI3IDM2Ljc3NzEgMzEuMDkzOEMzNi43ODI5IDMwLjk3NDMgMzYuODAyMyAzMC44ODU0IDM2LjgzNTEgMzAuODI3MUwzNy40NDgxIDI5LjMyOTVDMzYuOTI5MyAyOC45MTQ2IDM2LjUyMSAyOC4zODUyIDM2LjIyMzIgMjcuNzQxNUwzNC42ODgxIDI3Ljg5MDZMMzQuNTk4NSAyNy44ODYxQzM0LjIxIDI3Ljg2NyAzMy45ODA1IDI3LjY2MSAzMy45MSAyNy4yNjgxTDMzLjczMjIgMjYuMzE1N0wzMy43MzY2IDI2LjIyNjFDMzMuNzU0MyAyNS44Njc1IDMzLjkzMTEgMjUuNjIxNiAzNC4yNjcyIDI1LjQ4ODNMMzUuNTg3IDI1LjE0ODlMMzUuNTk1OCAyNC45Njk2QzM1LjYzMjYgMjQuMjIyNiAzNS44MDA5IDIzLjU0MTkgMzYuMTAwOCAyMi45Mjc2TDM1LjE1ODggMjEuOTgyNUMzNS4wNzM2IDIxLjg4ODQgMzUuMDA2OSAyMS43MjA0IDM0Ljk1ODkgMjEuNDc4NEMzNC45NjkyIDIxLjI2OTIgMzUuMDM3MSAyMS4xMDc4IDM1LjE2MjUgMjAuOTk0MUwzNS43ODI4IDIwLjI2MDhDMzUuOTQxIDIwLjA4ODkgMzYuMTI0NyAyMC4wMDggMzYuMzMzOSAyMC4wMTgzQzM2LjQ4MzMgMjAuMDI1NyAzNi42MTU2IDIwLjA3NzIgMzYuNzMwNyAyMC4xNzI3TDM3LjcyNjQgMjAuOTQwN0MzOC4zNzg5IDIwLjQ2MzUgMzkuMDgzOSAyMC4xMzg4IDM5Ljg0MTMgMTkuOTY2NEwzOS45OTUgMTguNjcwOUM0MC4wMzM3IDE4LjQ5MzEgNDAuMTE1NyAxOC4zNDczIDQwLjI0MTIgMTguMjMzN0M0MC4zOTc5IDE4LjA5MTYgNDAuNTY2IDE4LjAyNSA0MC43NDUzIDE4LjAzMzhMNDEuNjg2NiAxOC4wODAyQzQxLjg5NTggMTguMDkwNSA0Mi4wNTY1IDE4LjE3MzMgNDIuMTY4NiAxOC4zMjg2QzQyLjMxMjIgMTguNDU1NSA0Mi4zNzk1IDE4LjYwODYgNDIuMzcwNyAxOC43ODc5TDQyLjM5ODUgMjAuMDQ3NEM0My4xMzY4IDIwLjI2MzUgNDMuODM3OCAyMC42Mjc1IDQ0LjUwMTYgMjEuMTM5NUw0NS41Njc5IDIwLjQ3MzFDNDUuNzIxNyAyMC4zOTA4IDQ1Ljg1ODQgMjAuMzUyNiA0NS45Nzc5IDIwLjM1ODVDNDYuMjE3IDIwLjM3MDIgNDYuMzkxOSAyMC40Njg3IDQ2LjUwMjYgMjAuNjUzOUw0Ny4wNDc4IDIxLjQ0NDZDNDcuMTYxNCAyMS41NyA0Ny4yMTMxIDIxLjczNzMgNDcuMjAyOCAyMS45NDY1QzQ3LjE5NCAyMi4xMjU4IDQ3LjExMTIgMjIuMjg2NSA0Ni45NTQ0IDIyLjQyODZMNDYuMDEzNyAyMy4yODA5QzQ2LjE0NyAyMy42MTcgNDYuMjM0NiAyMy45NjU4IDQ2LjI3NjcgMjQuMzI3M0M0Ni4zNDg3IDI0LjY5MDMgNDYuMzc0NCAyNS4wODEgNDYuMzUzOCAyNS40OTk0TDQ2LjM1MTYgMjUuNTQ0Mkw0Ny42MzE3IDI2LjAxMTdaTTM4LjY3MDIgMjcuMzIyOEMzOC4xMDIgMjYuNjk1NyAzNy44MzkyIDI1Ljk0ODggMzcuODgxOSAyNS4wODIyQzM3LjkyNDYgMjQuMjE1NiAzOC4yNTk1IDIzLjQ5ODIgMzguODg2NiAyMi45Mjk5QzM5LjUxMzcgMjIuMzYxNyA0MC4yNjA1IDIyLjA5ODkgNDEuMTI3MSAyMi4xNDE2QzQxLjk5MzggMjIuMTg0MyA0Mi43MTEyIDIyLjUxOTIgNDMuMjc5NCAyMy4xNDYzQzQzLjg0NzYgMjMuNzczNCA0NC4xMTA0IDI0LjUyMDIgNDQuMDY3OCAyNS4zODY4QzQ0LjAyNTEgMjYuMjUzNCA0My42OTAyIDI2Ljk3MDkgNDMuMDYzMSAyNy41MzkxQzQyLjQzNiAyOC4xMDczIDQxLjY4OTEgMjguMzcwMSA0MC44MjI1IDI4LjMyNzRDMzkuOTU1OSAyOC4yODQ4IDM5LjIzODUgMjcuOTQ5OSAzOC42NzAyIDI3LjMyMjhaIiBmaWxsPSJ1cmwoI3BhaW50MV9yYWRpYWxfMjYyMl8yODcwKSIvPgo8cGF0aCBmaWxsLXJ1bGU9ImV2ZW5vZGQiIGNsaXAtcnVsZT0iZXZlbm9kZCIgZD0iTTM2LjI3IDM3LjczNTFDMzYuNzczNSAzNy45NjQgMzcuMDI1MyAzOC4zNTMxIDM3LjAyNTMgMzguOTAyNFYzOS4wMzk3TDM2LjY4MiA0MC40ODE3QzM2LjU0NDcgNDEuMDc2OCAzNi4xNzg0IDQxLjM3NDQgMzUuNTgzMyA0MS4zNzQ0SDM1LjQ0NkwzMy4yNDg3IDQxLjAzMUMzMi44MzY3IDQxLjkwMDggMzIuMTcyOSA0Mi43MDE5IDMxLjI1NzQgNDMuNDM0M0wzMi4wODE0IDQ1Ljc2OUMzMi4xMjcyIDQ1Ljg2MDUgMzIuMTUgNDUuOTc1IDMyLjE1IDQ2LjExMjNDMzIuMTUgNDYuNjYxNiAzMS45NDQgNDcuMDI3OCAzMS41MzIxIDQ3LjIxMUwzMC4yMjc0IDQ3Ljg5NzZDMzAuMDQ0MyA0Ny45ODkyIDI5LjkwNyA0OC4wMzQ5IDI5LjgxNTQgNDguMDM0OUMyOS40MDM0IDQ4LjAzNDkgMjkuMDgzIDQ3LjgyODkgMjguODU0MSA0Ny40MTdMMjcuNTQ5NCA0NS4xNTFDMjcuMzIwNSA0NS4xOTY4IDI3LjA2ODggNDUuMjQyNSAyNi43OTQxIDQ1LjI4ODNIMjYuMDM4OEgyNS4zNTIxQzI1LjE2OSA0NS4yNDI1IDI0Ljk2MyA0NS4xOTY4IDI0LjczNDEgNDUuMTUxTDIzLjM2MDggNDcuNDg1NkMyMy4xMzE5IDQ3Ljg1MTggMjIuODM0NCA0OC4wMzQ5IDIyLjQ2ODIgNDguMDM0OUMyMi4yMzkzIDQ4LjAzNDkgMjIuMDc5MSA0Ny45ODkyIDIxLjk4NzUgNDcuODk3NkwyMC42ODI4IDQ3LjI3OTZDMjAuMjcwOSA0Ny4wOTY1IDIwLjA2NDkgNDYuNzc2MSAyMC4wNjQ5IDQ2LjMxODNDMjAuMDY0OSA0Ni4xMzUyIDIwLjA4NzcgNDUuOTk3OSAyMC4xMzM1IDQ1LjkwNjNMMjAuOTU3NSA0My41NzE3QzIwLjEzMzUgNDIuOTc2NiAxOS40Njk3IDQyLjE5ODQgMTguOTY2MiA0MS4yMzdMMTYuNjMxNiA0MS41ODA0SDE2LjQ5NDJDMTUuODk5MSA0MS41ODA0IDE1LjUzMjkgNDEuMjgyOCAxNS4zOTU2IDQwLjY4NzdMMTUuMDUyMiAzOS4yNDU3VjM5LjEwODRDMTUuMDUyMiAzOC41NTkxIDE1LjMwNCAzOC4xNyAxNS44MDc2IDM3Ljk0MTFMMTcuNzk4OSAzNy4zMjMxVjM3LjA0ODRDMTcuNzk4OSAzNS45MDQgMTguMDA0OSAzNC44NTExIDE4LjQxNjkgMzMuODg5OEwxNi45MDYyIDMyLjUxNjVDMTYuNzY4OSAzMi4zNzkxIDE2LjY1NDQgMzIuMTI3NCAxNi41NjI5IDMxLjc2MTJDMTYuNTYyOSAzMS40NDA3IDE2LjY1NDQgMzEuMTg4OSAxNi44Mzc2IDMxLjAwNThMMTcuNzMwMiAyOS44Mzg1QzE3Ljk1OTEgMjkuNTYzOCAxOC4yMzM4IDI5LjQyNjUgMTguNTU0MiAyOS40MjY1QzE4Ljc4MzEgMjkuNDI2NSAxOC45ODkxIDI5LjQ5NTIgMTkuMTcyMiAyOS42MzI1TDIwLjc1MTUgMzAuNzMxMkMyMS43MTI4IDI5Ljk1MyAyMi43NjU3IDI5LjQwMzYgMjMuOTEwMSAyOS4wODMyTDI0LjA0NzUgMjcuMDkxOUMyNC4wOTMyIDI2LjgxNzIgMjQuMjA3NyAyNi41ODgzIDI0LjM5MDggMjYuNDA1MkMyNC42MTk3IDI2LjE3NjMgMjQuODcxNSAyNi4wNjE5IDI1LjE0NjEgMjYuMDYxOUgyNi41ODgxQzI2LjkwODUgMjYuMDYxOSAyNy4xNjAzIDI2LjE3NjMgMjcuMzQzNCAyNi40MDUyQzI3LjU3MjMgMjYuNTg4MyAyNy42ODY4IDI2LjgxNzIgMjcuNjg2OCAyNy4wOTE5TDI3LjgyNDEgMjkuMDE0NUMyOC45Njg1IDI5LjI4OTIgMzAuMDY3MiAyOS43OTI3IDMxLjEyMDEgMzAuNTI1MkwzMi42OTk0IDI5LjQyNjVDMzIuOTI4MyAyOS4yODkyIDMzLjEzNDMgMjkuMjIwNSAzMy4zMTc0IDI5LjIyMDVDMzMuNjgzNiAyOS4yMjA1IDMzLjk1ODIgMjkuMzU3OCAzNC4xNDE0IDI5LjYzMjVMMzUuMDM0IDMwLjc5OThDMzUuMjE3MSAzMC45ODI5IDM1LjMwODcgMzEuMjM0NyAzNS4zMDg3IDMxLjU1NTJDMzUuMzA4NyAzMS44Mjk4IDM1LjE5NDIgMzIuMDgxNiAzNC45NjUzIDMyLjMxMDVMMzMuNTkyIDMzLjY4MzhDMzMuODIwOSAzNC4xODczIDMzLjk4MTEgMzQuNzEzOCAzNC4wNzI3IDM1LjI2MzFDMzQuMjEgMzUuODEyNCAzNC4yNzg3IDM2LjQwNzUgMzQuMjc4NyAzNy4wNDg0VjM3LjExNzFMMzYuMjcgMzcuNzM1MVpNMjIuNjc0MiA0MC40MTNDMjEuNzU4NiAzOS40OTc1IDIxLjMwMDggMzguMzc2IDIxLjMwMDggMzcuMDQ4NEMyMS4zMDA4IDM1LjcyMDkgMjEuNzU4NiAzNC41OTkzIDIyLjY3NDIgMzMuNjgzOEMyMy41ODk3IDMyLjc2ODMgMjQuNzExMiAzMi4zMTA1IDI2LjAzODggMzIuMzEwNUMyNy4zNjYzIDMyLjMxMDUgMjguNDg3OSAzMi43NjgzIDI5LjQwMzQgMzMuNjgzOEMzMC4zMTkgMzQuNTk5MyAzMC43NzY3IDM1LjcyMDkgMzAuNzc2NyAzNy4wNDg0QzMwLjc3NjcgMzguMzc2IDMwLjMxOSAzOS40OTc1IDI5LjQwMzQgNDAuNDEzQzI4LjQ4NzkgNDEuMzI4NiAyNy4zNjYzIDQxLjc4NjQgMjYuMDM4OCA0MS43ODY0QzI0LjcxMTIgNDEuNzg2NCAyMy41ODk3IDQxLjMyODYgMjIuNjc0MiA0MC40MTNaIiBmaWxsPSJ1cmwoI3BhaW50Ml9yYWRpYWxfMjYyMl8yODcwKSIvPgo8L2c+CjxkZWZzPgo8cmFkaWFsR3JhZGllbnQgaWQ9InBhaW50MF9yYWRpYWxfMjYyMl8yODcwIiBjeD0iMCIgY3k9IjAiIHI9IjEiIGdyYWRpZW50VW5pdHM9InVzZXJTcGFjZU9uVXNlIiBncmFkaWVudFRyYW5zZm9ybT0idHJhbnNsYXRlKDguNTg2ODggOS4xNTQyMSkgcm90YXRlKDQ0LjU4Nikgc2NhbGUoNDUuNDQ4NCA4NS44Njc3KSI+CjxzdG9wIHN0b3AtY29sb3I9IiMwMTk1RkYiLz4KPHN0b3Agb2Zmc2V0PSIxIiBzdG9wLWNvbG9yPSIjMTE0N0U5Ii8+CjwvcmFkaWFsR3JhZGllbnQ+CjxyYWRpYWxHcmFkaWVudCBpZD0icGFpbnQxX3JhZGlhbF8yNjIyXzI4NzAiIGN4PSIwIiBjeT0iMCIgcj0iMSIgZ3JhZGllbnRVbml0cz0idXNlclNwYWNlT25Vc2UiIGdyYWRpZW50VHJhbnNmb3JtPSJ0cmFuc2xhdGUoOC41NzYzMSA5LjMxODQ4KSByb3RhdGUoNDQuMjY4KSBzY2FsZSg0NS40NzggNDEuNDI4OCkiPgo8c3RvcCBzdG9wLWNvbG9yPSIjMTM0OEZGIi8+CjxzdG9wIG9mZnNldD0iMSIgc3RvcC1jb2xvcj0iIzA2MjM4RCIvPgo8L3JhZGlhbEdyYWRpZW50Pgo8cmFkaWFsR3JhZGllbnQgaWQ9InBhaW50Ml9yYWRpYWxfMjYyMl8yODcwIiBjeD0iMCIgY3k9IjAiIHI9IjEiIGdyYWRpZW50VW5pdHM9InVzZXJTcGFjZU9uVXNlIiBncmFkaWVudFRyYW5zZm9ybT0idHJhbnNsYXRlKDguNTc2MzEgOS4zMTg0OCkgcm90YXRlKDQ0LjI2OCkgc2NhbGUoNDUuNDc4IDQxLjQyODgpIj4KPHN0b3Agc3RvcC1jb2xvcj0iIzEzNDhGRiIvPgo8c3RvcCBvZmZzZXQ9IjEiIHN0b3AtY29sb3I9IiMwNjIzOEQiLz4KPC9yYWRpYWxHcmFkaWVudD4KPGNsaXBQYXRoIGlkPSJjbGlwMF8yNjIyXzI4NzAiPgo8cmVjdCB3aWR0aD0iNDgiIGhlaWdodD0iNDgiIGZpbGw9IndoaXRlIiB0cmFuc2Zvcm09InRyYW5zbGF0ZSgwLjUgMC4wMzQ5MTIxKSIvPgo8L2NsaXBQYXRoPgo8L2RlZnM+Cjwvc3ZnPgo=;" parent="1" vertex="1">
          <mxGeometry x="1164" y="340" width="49" height="49" as="geometry" />
        </mxCell>
        <mxCell id="GHpy8DAtyEdUzNsid3nN-92" style="edgeStyle=orthogonalEdgeStyle;rounded=0;orthogonalLoop=1;jettySize=auto;html=1;exitX=0.5;exitY=1;exitDx=0;exitDy=0;" parent="1" source="GHpy8DAtyEdUzNsid3nN-61" target="GHpy8DAtyEdUzNsid3nN-61" edge="1">
          <mxGeometry relative="1" as="geometry" />
        </mxCell>
        <mxCell id="GHpy8DAtyEdUzNsid3nN-42" value="SAP Integration&#xa;Suite" style="shape=image;verticalLabelPosition=bottom;verticalAlign=top;imageAspect=0;aspect=fixed;image=data:image/svg+xml,PHN2ZyB3aWR0aD0iNDkiIGhlaWdodD0iNDkiIHZpZXdCb3g9IjAgMCA0OSA0OSIgZmlsbD0ibm9uZSIgeG1sbnM9Imh0dHA6Ly93d3cudzMub3JnLzIwMDAvc3ZnIj4KPGcgY2xpcC1wYXRoPSJ1cmwoI2NsaXAwXzI2MjNfMjA2MjApIj4KPHBhdGggZD0iTTI0LjE5NTMgLTAuMDcyNzUzOUMxNi43NDQxIC0wLjA3Mjc1MzkgMTEuMzgzIDUuMzQ3NDQgOS43MjQ4MSAxMS40NDU1QzcuNzgwODYgMTEuODg0MyA2LjAxMjMgMTIuNzk5MyA0LjU0MjM0IDE0LjE1MjNDMS45MzI4IDE2LjU1NDMgMC42NjUyODMgMTkuOTYyNyAwLjY2NTI4MyAyMy40MTA1QzAuNjY1MjgzIDI2LjU1MzcgMS42MjQ2NyAyOS43NDA4IDMuOTg0NTggMzIuMTYyNUM2LjM3MDI3IDM0LjYxMDcgOS42NTE4OCAzNS43Mjc4IDEzLjIwOCAzNS43Mjc4SDE0LjY5OTJDMTMuNjUxMiAzNC42MDI3IDEzLjAxMDEgMzMuMDkzNyAxMy4wMTAxIDMxLjQzNDlWMjkuNDc1OEMxMy4wMTAxIDI1Ljk5NjQgMTUuODMwNyAyMy4xNzU4IDE5LjMxMDEgMjMuMTc1OEgyMC44NjM2TDIwLjg2MzEgMjMuMDk2MlYyMS4xMzcyQzIwLjg2MzEgMTcuNjU3OCAyMy42ODM3IDE0LjgzNzIgMjcuMTYzMSAxNC44MzcySDMwLjEzMDJDMzMuNjA5NiAxNC44MzcyIDM2LjQzMDIgMTcuNjU3OCAzNi40MzAyIDIxLjEzNzJWMjMuMDk2MkMzNi40MzAyIDIzLjU0MjQgMzYuMzgzOCAyMy45Nzc3IDM2LjI5NTcgMjQuMzk3NkMzNy4yMTQxIDIyLjA1NSAzOS40OTQ5IDIwLjM5NjIgNDIuMTYzMSAyMC4zOTYySDQ1LjEzMDJDNDYuMjQwOCAyMC4zOTYyIDQ3LjI4NDIgMjAuNjgzNiA0OC4xOTAyIDIxLjE4OEM0OC4wMTYgMTQuMzkzIDQzLjM5MjYgOC44ODU5OCAzNy4zOTc4IDcuNjQwNzdDMzQuNzM3NSAzLjA2OTExIDMwLjE4MDQgLTAuMDcyNzUzOSAyNC4xOTUzIC0wLjA3Mjc1MzlaIiBmaWxsPSJ1cmwoI3BhaW50MF9yYWRpYWxfMjYyM18yMDYyMCkiLz4KPHBhdGggZmlsbC1ydWxlPSJldmVub2RkIiBjbGlwLXJ1bGU9ImV2ZW5vZGQiIGQ9Ik0yMy45OTQ3IDIwLjk4MzdDMjMuOTk0NyAxOS4xNjEyIDI1LjQ3MjIgMTcuNjgzNyAyNy4yOTQ3IDE3LjY4MzdIMzAuMjYxOEMzMi4wODQzIDE3LjY4MzcgMzMuNTYxOCAxOS4xNjEyIDMzLjU2MTggMjAuOTgzN1YyMi45NDI4QzMzLjU2MTggMjQuMjE2OCAzMi44Mzk4IDI1LjMyMjMgMzEuNzgyNyAyNS44NzIyTDMyLjg4ODYgMjguODU1N0gzMy43NzM1QzM0LjYwODMgMjguODU1NyAzNS4zNzA3IDI5LjE2NTcgMzUuOTUxOSAyOS42NzY4TDM4LjkzMjkgMjguMjcwOVYyNi41QzM4LjkzMjkgMjQuNjc3NCA0MC40MTA0IDIzLjIgNDIuMjMyOSAyMy4ySDQ1LjJDNDcuMDIyNSAyMy4yIDQ4LjUgMjQuNjc3NCA0OC41IDI2LjVWMjguNDU5QzQ4LjUgMzAuMjgxNiA0Ny4wMjI1IDMxLjc1OSA0NS4yIDMxLjc1OUg0Mi4yMzI5QzQxLjQzNTggMzEuNzU5IDQwLjcwNDcgMzEuNDc2NCA0MC4xMzQ0IDMxLjAwNTlMMzcuMDczNSAzMi40NDAxVjM0LjExNDhDMzcuMDczNSAzNC40MzkyIDM3LjAyNjcgMzQuNzUyNyAzNi45Mzk0IDM1LjA0ODlMMzguNTIwNyAzNi42MzAyQzM4LjY3MzMgMzYuNjA4NiAzOC44MjkzIDM2LjU5NzQgMzguOTg3OSAzNi41OTc0SDQxLjk1NUM0My43Nzc1IDM2LjU5NzQgNDUuMjU1IDM4LjA3NDkgNDUuMjU1IDM5Ljg5NzRWNDEuODU2NUM0NS4yNTUgNDMuNjc5IDQzLjc3NzUgNDUuMTU2NSA0MS45NTUgNDUuMTU2NUgzOC45ODc5QzM3LjE2NTQgNDUuMTU2NSAzNS42ODc5IDQzLjY3OSAzNS42ODc5IDQxLjg1NjVWMzkuODk3NEMzNS42ODc5IDM5LjM1ODEgMzUuODE3MyAzOC44NDkxIDM2LjA0NjYgMzguMzk5NkwzNC44NTkzIDM3LjIzMkMzNC41MTkyIDM3LjM1MDQgMzQuMTUzOSAzNy40MTQ4IDMzLjc3MzUgMzcuNDE0OEgzMC44MDY0QzMwLjYzOTcgMzcuNDE0OCAzMC40NzU4IDM3LjQwMjQgMzAuMzE1NyAzNy4zNzg2TDI3LjYxNTMgNDAuOTc5MkMyNy45NTE0IDQxLjQ5NjIgMjguMTQ2NyA0Mi4xMTMyIDI4LjE0NjcgNDIuNzc1OFY0NC43MzQ5QzI4LjE0NjcgNDYuNTU3NSAyNi42NjkzIDQ4LjAzNDkgMjQuODQ2NyA0OC4wMzQ5SDIxLjg3OTdDMjAuMDU3MSA0OC4wMzQ5IDE4LjU3OTcgNDYuNTU3NSAxOC41Nzk3IDQ0LjczNDlWNDIuNzc1OEMxOC41Nzk3IDQwLjk1MzMgMjAuMDU3MSAzOS40NzU4IDIxLjg3OTcgMzkuNDc1OEgyNC44NDY3QzI0LjkwNDkgMzkuNDc1OCAyNC45NjI3IDM5LjQ3NzMgMjUuMDIwMiAzOS40ODAzTDI3Ljg4NzkgMzUuNjU2NUMyNy42NDQ0IDM1LjE5NjQgMjcuNTA2NCAzNC42NzE3IDI3LjUwNjQgMzQuMTE0OFYzMy4zMzNMMjUuMzQ5NCAzMi42MzA4QzI0LjgyOSAzMy43Njk0IDIzLjY4MDEgMzQuNTYwNSAyMi4zNDY0IDM0LjU2MDVIMTkuMzc5M0MxNy41NTY4IDM0LjU2MDUgMTYuMDc5MyAzMy4wODMxIDE2LjA3OTMgMzEuMjYwNVYyOS4zMDE1QzE2LjA3OTMgMjcuNDc4OSAxNy41NTY4IDI2LjAwMTUgMTkuMzc5MyAyNi4wMDE1SDIyLjM0NjRDMjQuMTY5IDI2LjAwMTUgMjUuNjQ2NCAyNy40Nzg5IDI1LjY0NjQgMjkuMzAxNVYyOS41NDI5TDI4LjA1MzkgMzAuMzM0N0MyOC40NTQ3IDI5LjczMDIgMjkuMDQ5MiAyOS4yNjUzIDI5Ljc0OSAyOS4wMjg4TDI4LjcwODMgMjYuMjQyOEgyNy4yOTQ3QzI1LjQ3MjIgMjYuMjQyOCAyMy45OTQ3IDI0Ljc2NTMgMjMuOTk0NyAyMi45NDI4VjIwLjk4MzdaTTI3LjI5NDcgMjAuNjgzN0MyNy4xMjkgMjAuNjgzNyAyNi45OTQ3IDIwLjgxOCAyNi45OTQ3IDIwLjk4MzdWMjIuOTQyOEMyNi45OTQ3IDIzLjEwODUgMjcuMTI5IDIzLjI0MjggMjcuMjk0NyAyMy4yNDI4SDMwLjI2MThDMzAuNDI3NSAyMy4yNDI4IDMwLjU2MTggMjMuMTA4NSAzMC41NjE4IDIyLjk0MjhWMjAuOTgzN0MzMC41NjE4IDIwLjgxOCAzMC40Mjc1IDIwLjY4MzcgMzAuMjYxOCAyMC42ODM3SDI3LjI5NDdaTTMwLjgwNjQgMzEuODU1N0MzMC42NDA3IDMxLjg1NTcgMzAuNTA2NCAzMS45OSAzMC41MDY0IDMyLjE1NTdWMzQuMTE0OEMzMC41MDY0IDM0LjI4MDUgMzAuNjQwNyAzNC40MTQ4IDMwLjgwNjQgMzQuNDE0OEgzMy43NzM1QzMzLjkzOTIgMzQuNDE0OCAzNC4wNzM1IDM0LjI4MDUgMzQuMDczNSAzNC4xMTQ4VjMyLjE1NTdDMzQuMDczNSAzMS45OSAzMy45MzkyIDMxLjg1NTcgMzMuNzczNSAzMS44NTU3SDMwLjgwNjRaTTQxLjkzMjkgMjYuNUM0MS45MzI5IDI2LjMzNDMgNDIuMDY3MiAyNi4yIDQyLjIzMjkgMjYuMkg0NS4yQzQ1LjM2NTcgMjYuMiA0NS41IDI2LjMzNDMgNDUuNSAyNi41VjI4LjQ1OUM0NS41IDI4LjYyNDcgNDUuMzY1NyAyOC43NTkgNDUuMiAyOC43NTlINDIuMjMyOUM0Mi4wNjcyIDI4Ljc1OSA0MS45MzI5IDI4LjYyNDcgNDEuOTMyOSAyOC40NTlWMjYuNVpNMzguOTg3OSAzOS41OTc0QzM4LjgyMjIgMzkuNTk3NCAzOC42ODc5IDM5LjczMTcgMzguNjg3OSAzOS44OTc0VjQxLjg1NjVDMzguNjg3OSA0Mi4wMjIyIDM4LjgyMjIgNDIuMTU2NSAzOC45ODc5IDQyLjE1NjVINDEuOTU1QzQyLjEyMDcgNDIuMTU2NSA0Mi4yNTUgNDIuMDIyMiA0Mi4yNTUgNDEuODU2NVYzOS44OTc0QzQyLjI1NSAzOS43MzE3IDQyLjEyMDcgMzkuNTk3NCA0MS45NTUgMzkuNTk3NEgzOC45ODc5Wk0yMS41Nzk3IDQyLjc3NThDMjEuNTc5NyA0Mi42MTAxIDIxLjcxNCA0Mi40NzU4IDIxLjg3OTcgNDIuNDc1OEgyNC44NDY3QzI1LjAxMjQgNDIuNDc1OCAyNS4xNDY3IDQyLjYxMDEgMjUuMTQ2NyA0Mi43NzU4VjQ0LjczNDlDMjUuMTQ2NyA0NC45MDA2IDI1LjAxMjQgNDUuMDM0OSAyNC44NDY3IDQ1LjAzNDlIMjEuODc5N0MyMS43MTQgNDUuMDM0OSAyMS41Nzk3IDQ0LjkwMDYgMjEuNTc5NyA0NC43MzQ5VjQyLjc3NThaTTE5LjM3OTMgMjkuMDAxNUMxOS4yMTM3IDI5LjAwMTUgMTkuMDc5MyAyOS4xMzU4IDE5LjA3OTMgMjkuMzAxNVYzMS4yNjA1QzE5LjA3OTMgMzEuNDI2MiAxOS4yMTM3IDMxLjU2MDUgMTkuMzc5MyAzMS41NjA1SDIyLjM0NjRDMjIuNTEyMSAzMS41NjA1IDIyLjY0NjQgMzEuNDI2MiAyMi42NDY0IDMxLjI2MDVWMjkuMzAxNUMyMi42NDY0IDI5LjEzNTggMjIuNTEyMSAyOS4wMDE1IDIyLjM0NjQgMjkuMDAxNUgxOS4zNzkzWiIgZmlsbD0idXJsKCNwYWludDFfcmFkaWFsXzI2MjNfMjA2MjApIi8+CjwvZz4KPGRlZnM+CjxyYWRpYWxHcmFkaWVudCBpZD0icGFpbnQwX3JhZGlhbF8yNjIzXzIwNjIwIiBjeD0iMCIgY3k9IjAiIHI9IjEiIGdyYWRpZW50VW5pdHM9InVzZXJTcGFjZU9uVXNlIiBncmFkaWVudFRyYW5zZm9ybT0idHJhbnNsYXRlKDguMDM1MTUgNS4xODM4Mikgcm90YXRlKDM3LjI5NjkpIHNjYWxlKDQxLjM2MTkgNzUuMzQ2NikiPgo8c3RvcCBzdG9wLWNvbG9yPSIjMDE5NUZGIi8+CjxzdG9wIG9mZnNldD0iMSIgc3RvcC1jb2xvcj0iIzExNDdFOSIvPgo8L3JhZGlhbEdyYWRpZW50Pgo8cmFkaWFsR3JhZGllbnQgaWQ9InBhaW50MV9yYWRpYWxfMjYyM18yMDYyMCIgY3g9IjAiIGN5PSIwIiByPSIxIiBncmFkaWVudFVuaXRzPSJ1c2VyU3BhY2VPblVzZSIgZ3JhZGllbnRUcmFuc2Zvcm09InRyYW5zbGF0ZSgyMS4wOTk2IDIyLjI0OTYpIHJvdGF0ZSg0My4xMTE4KSBzY2FsZSgzMC45MzUyIDI4LjEyODkpIj4KPHN0b3Agc3RvcC1jb2xvcj0iIzEzNDhGRiIvPgo8c3RvcCBvZmZzZXQ9IjEiIHN0b3AtY29sb3I9IiMwNjIzOEQiLz4KPC9yYWRpYWxHcmFkaWVudD4KPGNsaXBQYXRoIGlkPSJjbGlwMF8yNjIzXzIwNjIwIj4KPHJlY3Qgd2lkdGg9IjQ4IiBoZWlnaHQ9IjQ4IiBmaWxsPSJ3aGl0ZSIgdHJhbnNmb3JtPSJ0cmFuc2xhdGUoMC41IDAuMDM0OTEyMSkiLz4KPC9jbGlwUGF0aD4KPC9kZWZzPgo8L3N2Zz4K;fontStyle=1;fontColor=#333333;" parent="1" vertex="1">
          <mxGeometry x="862" y="235.5" width="49" height="49" as="geometry" />
        </mxCell>
        <mxCell id="GHpy8DAtyEdUzNsid3nN-99" value="&lt;b style=&quot;font-size: 15px;&quot;&gt;&lt;font color=&quot;#333333&quot;&gt;Otras soluciones&lt;br&gt;Cloud&lt;br&gt;&lt;/font&gt;&lt;/b&gt;&lt;font color=&quot;#333333&quot;&gt;(SAP / NO SAP)&lt;/font&gt;" style="rounded=1;whiteSpace=wrap;html=1;strokeColor=#0070F2;strokeWidth=1;arcSize=5;fillColor=#FFFFFF;perimeterSpacing=0;labelPosition=center;verticalLabelPosition=middle;align=center;verticalAlign=middle;" parent="1" vertex="1">
          <mxGeometry x="1026" y="210.5" width="160" height="90" as="geometry" />
        </mxCell>
        <mxCell id="GHpy8DAtyEdUzNsid3nN-109" style="edgeStyle=orthogonalEdgeStyle;rounded=1;orthogonalLoop=1;jettySize=auto;html=1;fontSize=18;strokeColor=#354A5F;entryX=0;entryY=0;entryDx=0;entryDy=0;exitX=0.91;exitY=0.5;exitDx=0;exitDy=0;exitPerimeter=0;" parent="1" source="GHpy8DAtyEdUzNsid3nN-6" target="GHpy8DAtyEdUzNsid3nN-69" edge="1">
          <mxGeometry relative="1" as="geometry">
            <mxPoint x="1085" y="276.4999999999999" as="targetPoint" />
            <mxPoint x="890" y="330" as="sourcePoint" />
            <Array as="points">
              <mxPoint x="890" y="519" />
            </Array>
          </mxGeometry>
        </mxCell>
        <mxCell id="GHpy8DAtyEdUzNsid3nN-110" value="" style="endArrow=block;html=1;strokeColor=#354A5F;bendable=1;rounded=1;endFill=1;endSize=3;entryX=-0.082;entryY=0.426;entryDx=0;entryDy=0;entryPerimeter=0;exitX=1;exitY=0.357;exitDx=0;exitDy=0;exitPerimeter=0;" parent="1" source="GHpy8DAtyEdUzNsid3nN-47" target="GHpy8DAtyEdUzNsid3nN-42" edge="1">
          <mxGeometry width="50" height="50" relative="1" as="geometry">
            <mxPoint x="830" y="257" as="sourcePoint" />
            <mxPoint x="920" y="257" as="targetPoint" />
            <Array as="points" />
          </mxGeometry>
        </mxCell>
        <mxCell id="GHpy8DAtyEdUzNsid3nN-111" value="" style="endArrow=block;html=1;strokeColor=#354A5F;bendable=1;rounded=1;endFill=1;endSize=3;entryX=0.001;entryY=0.519;entryDx=0;entryDy=0;entryPerimeter=0;exitX=1.041;exitY=0.438;exitDx=0;exitDy=0;exitPerimeter=0;" parent="1" source="GHpy8DAtyEdUzNsid3nN-42" target="GHpy8DAtyEdUzNsid3nN-99" edge="1">
          <mxGeometry width="50" height="50" relative="1" as="geometry">
            <mxPoint x="969" y="257" as="sourcePoint" />
            <mxPoint x="1020" y="260" as="targetPoint" />
            <Array as="points" />
          </mxGeometry>
        </mxCell>
        <mxCell id="GHpy8DAtyEdUzNsid3nN-113" value="Business Application Studio" style="shape=image;verticalLabelPosition=middle;verticalAlign=middle;imageAspect=0;aspect=fixed;image=data:image/svg+xml,PHN2ZyB3aWR0aD0iNDkiIGhlaWdodD0iNDkiIHZpZXdCb3g9IjAgMCA0OSA0OSIgZmlsbD0ibm9uZSIgeG1sbnM9Imh0dHA6Ly93d3cudzMub3JnLzIwMDAvc3ZnIj4KPGcgY2xpcC1wYXRoPSJ1cmwoI2NsaXAwXzI2MjJfMjg3OCkiPgo8cGF0aCBmaWxsLXJ1bGU9ImV2ZW5vZGQiIGNsaXAtcnVsZT0iZXZlbm9kZCIgZD0iTTEuMTAxNjIgMjMuODM3OUgxLjA5NzQ3TDEuNTI2MSAxOS4xMTY5TDEuNTgwOTcgMTguNDg1OUwyLjE1OTcyIDE4LjE5NDlMMTUuMjA1OSAxMS42NjQ5TDE1LjgxMjYgMTEuMzU4OUwxNi4zODYyIDExLjcxMDlMMjAuMjk5OCAxNC4wOTc5TDEuMTAxNjIgMjMuODM3OVpNMjYuODg2NSAxOC4xNDg5TDIuNDEyMjYgMzAuMzk4OUwwLjUgMzEuMzU4OUwwLjg5MTM1NiAyNi45MTc5TDAuOTQ3MjYzIDI2LjI5MzlMMS41MjE4NyAyNS45OTg5TDIyLjMyNzkgMTUuMzU5OUwyMi45MDk4IDE1LjcxMTlMMjYuODg2NSAxOC4xNDg5Wk0yMi4yMjg2IDMwLjc0ODhMMjQuMDk4NCAzMS43ODM4TDI2LjIyOTEgMzIuOTY5OEwyNi43OTEzIDMzLjI3OThMNDcuNjY0NiAyMi44NDI4TDQ4LjI3NDQgMjIuNTM2OEw0OC4zMDY1IDIxLjg3NDhMNDguNDEzMiAxOS4zMjM4TDQ4LjUwMDEgMTcuMzMwOEwyMi4yMjg2IDMwLjc0ODhaTTI4Ljk1ODMgMzQuNTU2OEw0Ni4zNTgxIDI1Ljc5MjhMNDguMTgzNCAyNC44NzA4TDQ4LjA5MjIgMjYuODU5OEw0Ny45ODE1IDI5LjMzNDhMNDcuOTUzNSAyOS45OTI4TDQ3LjM1MiAzMC4yOTg4TDMzLjc4NiAzNy4yMjc4TDMzLjIxOTcgMzYuOTEzOEwzMC44NDM2IDM1LjYwMThMMjguOTU4MyAzNC41NTY4WiIgZmlsbD0idXJsKCNwYWludDBfcmFkaWFsXzI2MjJfMjg3OCkiLz4KPHBhdGggZD0iTTIyLjk2ODcgMC4wNDk5MTJMMjIuOTQxOCAwLjAzNDkxMjFWMi4xMTk5MUwyMi45MTggNC40OTU5MVY1LjExODkxTDQyLjU1NTEgMTcuNTk0OUw0My4xMzM5IDE3Ljk3NjlMNDMuNzQ3OCAxNy42NzQ5TDQ3Ljk0MiAxNS42MTY5TDIyLjk2ODcgMC4wNDk5MTJaIiBmaWxsPSJ1cmwoI3BhaW50MV9yYWRpYWxfMjYyMl8yODc4KSIvPgo8cGF0aCBkPSJNMTMuMjQxOSAyNy44ODlMMTIuNjc1NiAyNy41NzJMMTIuMDk2OSAyNy44NjNMNy43NDAxOCAzMC4wNDdMOS42MjEzOCAzMS4wOTVMMjYuNTMwNCA0MC40ODNWMzUuMzU3TDI1Ljk0MDMgMzUuMDI0TDEzLjI0MTkgMjcuODg5WiIgZmlsbD0idXJsKCNwYWludDJfcmFkaWFsXzI2MjJfMjg3OCkiLz4KPHBhdGggZD0iTTIyLjgyNzEgNy41OTA4MkgyMi44MDc0VjkuNjkwODJMMjIuNzgzNiAxMi4zMzM4VjEyLjk2NThMMjMuMzMzNCAxMy4zMDU4TDM1LjY3NTUgMjEuMDE0OEwzNi4yNDYgMjEuMzY5OEwzNi44NTU4IDIxLjA3MThMMzkuMTQ0OSAxOS45NDM4TDQwLjk4MjYgMTkuMDQzOEwyMi44MjcxIDcuNTkwODJaIiBmaWxsPSJ1cmwoI3BhaW50M19yYWRpYWxfMjYyMl8yODc4KSIvPgo8cGF0aCBkPSJNNi4wNzYyNSAzMS41NUw1LjUxNDA2IDMxLjI0MUw0LjkzOTQ2IDMxLjUyN0wwLjg0NDcxOCAzMy41ODlMMC44NDA1NzYgMzMuNTk3TDI0Ljc0MzMgNDcuMDMzTDI2LjUzMDMgNDguMDM1VjQyLjgyNEwyNS45MzE4IDQyLjQ5Nkw2LjA3NjI1IDMxLjU1WiIgZmlsbD0idXJsKCNwYWludDRfcmFkaWFsXzI2MjJfMjg3OCkiLz4KPC9nPgo8ZGVmcz4KPHJhZGlhbEdyYWRpZW50IGlkPSJwYWludDBfcmFkaWFsXzI2MjJfMjg3OCIgY3g9IjAiIGN5PSIwIiByPSIxIiBncmFkaWVudFVuaXRzPSJ1c2VyU3BhY2VPblVzZSIgZ3JhZGllbnRUcmFuc2Zvcm09InRyYW5zbGF0ZSg3LjkzMjcyIDcuMjU1NzYpIHJvdGF0ZSg0NSkgc2NhbGUoNDcuMjg1MSA0My4wODkxKSI+CjxzdG9wIHN0b3AtY29sb3I9IiMxMzQ4RkYiLz4KPHN0b3Agb2Zmc2V0PSIxIiBzdG9wLWNvbG9yPSIjMDYyMzhEIi8+CjwvcmFkaWFsR3JhZGllbnQ+CjxyYWRpYWxHcmFkaWVudCBpZD0icGFpbnQxX3JhZGlhbF8yNjIyXzI4NzgiIGN4PSIwIiBjeT0iMCIgcj0iMSIgZ3JhZGllbnRVbml0cz0idXNlclNwYWNlT25Vc2UiIGdyYWRpZW50VHJhbnNmb3JtPSJ0cmFuc2xhdGUoNy45NDM1NiA3LjA4MjczKSByb3RhdGUoNDUuMzE4KSBzY2FsZSg0Ny4yNjExIDg5LjI5NjMpIj4KPHN0b3Agc3RvcC1jb2xvcj0iIzAxOTVGRiIvPgo8c3RvcCBvZmZzZXQ9IjEiIHN0b3AtY29sb3I9IiMxMTQ3RTkiLz4KPC9yYWRpYWxHcmFkaWVudD4KPHJhZGlhbEdyYWRpZW50IGlkPSJwYWludDJfcmFkaWFsXzI2MjJfMjg3OCIgY3g9IjAiIGN5PSIwIiByPSIxIiBncmFkaWVudFVuaXRzPSJ1c2VyU3BhY2VPblVzZSIgZ3JhZGllbnRUcmFuc2Zvcm09InRyYW5zbGF0ZSg3Ljk0MzU2IDcuMDgyNzMpIHJvdGF0ZSg0NS4zMTgpIHNjYWxlKDQ3LjI2MTEgODkuMjk2MykiPgo8c3RvcCBzdG9wLWNvbG9yPSIjMDE5NUZGIi8+CjxzdG9wIG9mZnNldD0iMSIgc3RvcC1jb2xvcj0iIzExNDdFOSIvPgo8L3JhZGlhbEdyYWRpZW50Pgo8cmFkaWFsR3JhZGllbnQgaWQ9InBhaW50M19yYWRpYWxfMjYyMl8yODc4IiBjeD0iMCIgY3k9IjAiIHI9IjEiIGdyYWRpZW50VW5pdHM9InVzZXJTcGFjZU9uVXNlIiBncmFkaWVudFRyYW5zZm9ybT0idHJhbnNsYXRlKDcuOTQzNTYgNy4wODI3Mykgcm90YXRlKDQ1LjMxOCkgc2NhbGUoNDcuMjYxMSA4OS4yOTYzKSI+CjxzdG9wIHN0b3AtY29sb3I9IiMwMTk1RkYiLz4KPHN0b3Agb2Zmc2V0PSIxIiBzdG9wLWNvbG9yPSIjMTE0N0U5Ii8+CjwvcmFkaWFsR3JhZGllbnQ+CjxyYWRpYWxHcmFkaWVudCBpZD0icGFpbnQ0X3JhZGlhbF8yNjIyXzI4NzgiIGN4PSIwIiBjeT0iMCIgcj0iMSIgZ3JhZGllbnRVbml0cz0idXNlclNwYWNlT25Vc2UiIGdyYWRpZW50VHJhbnNmb3JtPSJ0cmFuc2xhdGUoNy45NDM1NiA3LjA4MjczKSByb3RhdGUoNDUuMzE4KSBzY2FsZSg0Ny4yNjExIDg5LjI5NjMpIj4KPHN0b3Agc3RvcC1jb2xvcj0iIzAxOTVGRiIvPgo8c3RvcCBvZmZzZXQ9IjEiIHN0b3AtY29sb3I9IiMxMTQ3RTkiLz4KPC9yYWRpYWxHcmFkaWVudD4KPGNsaXBQYXRoIGlkPSJjbGlwMF8yNjIyXzI4NzgiPgo8cmVjdCB3aWR0aD0iNDgiIGhlaWdodD0iNDgiIGZpbGw9IndoaXRlIiB0cmFuc2Zvcm09InRyYW5zbGF0ZSgwLjUgMC4wMzQ5MTIxKSIvPgo8L2NsaXBQYXRoPgo8L2RlZnM+Cjwvc3ZnPgo=;labelPosition=right;align=left;fontStyle=1;fontColor=#4D4D4D;" parent="1" vertex="1">
          <mxGeometry x="550" y="170" width="38.5" height="38.5" as="geometry" />
        </mxCell>
        <mxCell id="GHpy8DAtyEdUzNsid3nN-114" value="" style="endArrow=block;html=1;strokeColor=#354A5F;bendable=1;rounded=1;endFill=1;endSize=3;entryX=0.443;entryY=0;entryDx=0;entryDy=0;entryPerimeter=0;" parent="1" target="GHpy8DAtyEdUzNsid3nN-47" edge="1">
          <mxGeometry width="50" height="50" relative="1" as="geometry">
            <mxPoint x="646" y="200" as="sourcePoint" />
            <mxPoint x="766" y="200" as="targetPoint" />
            <Array as="points" />
          </mxGeometry>
        </mxCell>
        <mxCell id="NgSRMJ3vrL7328Rm8IhI-1" value="" style="shape=image;verticalLabelPosition=bottom;verticalAlign=top;imageAspect=0;aspect=fixed;image=https://digitalmarketplace-sapcpprd.s3.eu-central-1.amazonaws.com/Z9D57SIRCyJdD7wzka96poiiQYdkutSd8nstUei0Z3nNeL2qb2vYszK39v9AmvLk.svg;" parent="1" vertex="1">
          <mxGeometry x="1081.5" y="44" width="56" height="56" as="geometry" />
        </mxCell>
      </root>
    </mxGraphModel>
  </diagram>
</mxfile>
